<ttFont>
    <TTGlyph name="A" xMin="-30" yMin="0" xMax="571" yMax="690">
      <contour>
        <pt x="446" y="215" on="1"/>
        <pt x="161" y="215" on="1"/>
        <pt x="63" y="0" on="1"/>
        <pt x="-30" y="0" on="1"/>
        <pt x="286" y="667" on="1"/>
        <pt x="293" y="690" on="0"/>
        <pt x="320" y="690" on="1"/>
        <pt x="412" y="690" on="1"/>
        <pt x="424" y="690" on="0"/>
        <pt x="441" y="675" on="0"/>
        <pt x="442" y="664" on="1"/>
        <pt x="571" y="0" on="1"/>
        <pt x="483" y="0" on="1"/>
      </contour>
      <contour>
        <pt x="432" y="292" on="1"/>
        <pt x="384" y="564" on="1"/>
        <pt x="383" y="573" on="0"/>
        <pt x="378" y="613" on="0"/>
        <pt x="376" y="623" on="1"/>
        <pt x="346" y="623" on="1"/>
        <pt x="320" y="564" on="1"/>
        <pt x="196" y="292" on="1"/>
      </contour>
    </TTGlyph>
    <TTGlyph name="AE" xMin="-42" yMin="-1" xMax="916" yMax="691">
      <contour>
        <pt x="904" y="616" on="1"/>
        <pt x="649" y="616" on="1"/>
        <pt x="582" y="616" on="0"/>
        <pt x="572" y="547" on="1"/>
        <pt x="552" y="398" on="1"/>
        <pt x="835" y="398" on="1"/>
        <pt x="826" y="329" on="1"/>
        <pt x="542" y="329" on="1"/>
        <pt x="516" y="139" on="1"/>
        <pt x="511" y="105" on="0"/>
        <pt x="537" y="74" on="0"/>
        <pt x="571" y="74" on="1"/>
        <pt x="829" y="74" on="1"/>
        <pt x="825" y="5" on="1"/>
        <pt x="735" y="-1" on="0"/>
        <pt x="555" y="-1" on="1"/>
        <pt x="490" y="-1" on="0"/>
        <pt x="423" y="73" on="0"/>
        <pt x="433" y="137" on="1"/>
        <pt x="445" y="224" on="1"/>
        <pt x="213" y="224" on="1"/>
        <pt x="52" y="0" on="1"/>
        <pt x="-42" y="0" on="1"/>
        <pt x="382" y="583" on="1"/>
        <pt x="427" y="647" on="0"/>
        <pt x="527" y="691" on="0"/>
        <pt x="619" y="691" on="1"/>
        <pt x="810" y="691" on="0"/>
        <pt x="916" y="685" on="1"/>
      </contour>
      <contour>
        <pt x="455" y="300" on="1"/>
        <pt x="492" y="560" on="1"/>
        <pt x="494" y="581" on="0"/>
        <pt x="517" y="621" on="0"/>
        <pt x="532" y="630" on="1"/>
        <pt x="527" y="630" on="1"/>
        <pt x="493" y="612" on="0"/>
        <pt x="460" y="565" on="1"/>
        <pt x="268" y="300" on="1"/>
      </contour>
    </TTGlyph>
    <TTGlyph name="Aacute" xMin="-30" yMin="0" xMax="571" yMax="914">
      <contour>
        <pt x="340" y="728" on="1"/>
        <pt x="313" y="768" on="1"/>
        <pt x="505" y="914" on="1"/>
        <pt x="546" y="849" on="1"/>
      </contour>
      <contour>
        <pt x="446" y="215" on="1"/>
        <pt x="161" y="215" on="1"/>
        <pt x="63" y="0" on="1"/>
        <pt x="-30" y="0" on="1"/>
        <pt x="286" y="667" on="1"/>
        <pt x="293" y="690" on="0"/>
        <pt x="320" y="690" on="1"/>
        <pt x="412" y="690" on="1"/>
        <pt x="424" y="690" on="0"/>
        <pt x="441" y="675" on="0"/>
        <pt x="442" y="664" on="1"/>
        <pt x="571" y="0" on="1"/>
        <pt x="483" y="0" on="1"/>
      </contour>
      <contour>
        <pt x="432" y="292" on="1"/>
        <pt x="384" y="564" on="1"/>
        <pt x="383" y="573" on="0"/>
        <pt x="378" y="613" on="0"/>
        <pt x="376" y="623" on="1"/>
        <pt x="346" y="623" on="1"/>
        <pt x="320" y="564" on="1"/>
        <pt x="196" y="292" on="1"/>
      </contour>
    </TTGlyph>
    <TTGlyph name="Abreve" xMin="-30" yMin="0" xMax="571" yMax="886">
      <contour>
        <pt x="501" y="886" on="1"/>
        <pt x="544" y="875" on="1"/>
        <pt x="539" y="817" on="0"/>
        <pt x="451" y="746" on="0"/>
        <pt x="381" y="746" on="1"/>
        <pt x="307" y="746" on="0"/>
        <pt x="233" y="820" on="0"/>
        <pt x="245" y="879" on="1"/>
        <pt x="289" y="882" on="1"/>
        <pt x="284" y="847" on="0"/>
        <pt x="333" y="809" on="0"/>
        <pt x="381" y="809" on="1"/>
        <pt x="433" y="809" on="0"/>
        <pt x="496" y="850" on="0"/>
      </contour>
      <contour>
        <pt x="446" y="215" on="1"/>
        <pt x="161" y="215" on="1"/>
        <pt x="63" y="0" on="1"/>
        <pt x="-30" y="0" on="1"/>
        <pt x="286" y="667" on="1"/>
        <pt x="293" y="690" on="0"/>
        <pt x="320" y="690" on="1"/>
        <pt x="412" y="690" on="1"/>
        <pt x="424" y="690" on="0"/>
        <pt x="441" y="675" on="0"/>
        <pt x="442" y="664" on="1"/>
        <pt x="571" y="0" on="1"/>
        <pt x="483" y="0" on="1"/>
      </contour>
      <contour>
        <pt x="432" y="292" on="1"/>
        <pt x="384" y="564" on="1"/>
        <pt x="383" y="573" on="0"/>
        <pt x="378" y="613" on="0"/>
        <pt x="376" y="623" on="1"/>
        <pt x="346" y="623" on="1"/>
        <pt x="320" y="564" on="1"/>
        <pt x="196" y="292" on="1"/>
      </contour>
    </TTGlyph>
    <TTGlyph name="Acircumflex" xMin="-30" yMin="0" xMax="571" yMax="896">
      <contour>
        <pt x="241" y="732" on="1"/>
        <pt x="217" y="769" on="1"/>
        <pt x="365" y="896" on="1"/>
        <pt x="426" y="896" on="1"/>
        <pt x="549" y="764" on="1"/>
        <pt x="518" y="730" on="1"/>
        <pt x="398" y="831" on="1"/>
        <pt x="390" y="831" on="1"/>
      </contour>
      <contour>
        <pt x="446" y="215" on="1"/>
        <pt x="161" y="215" on="1"/>
        <pt x="63" y="0" on="1"/>
        <pt x="-30" y="0" on="1"/>
        <pt x="286" y="667" on="1"/>
        <pt x="293" y="690" on="0"/>
        <pt x="320" y="690" on="1"/>
        <pt x="412" y="690" on="1"/>
        <pt x="424" y="690" on="0"/>
        <pt x="441" y="675" on="0"/>
        <pt x="442" y="664" on="1"/>
        <pt x="571" y="0" on="1"/>
        <pt x="483" y="0" on="1"/>
      </contour>
      <contour>
        <pt x="432" y="292" on="1"/>
        <pt x="384" y="564" on="1"/>
        <pt x="383" y="573" on="0"/>
        <pt x="378" y="613" on="0"/>
        <pt x="376" y="623" on="1"/>
        <pt x="346" y="623" on="1"/>
        <pt x="320" y="564" on="1"/>
        <pt x="196" y="292" on="1"/>
      </contour>
    </TTGlyph>
    <TTGlyph name="Adieresis" xMin="-30" yMin="0" xMax="571" yMax="870">
      <contour>
        <pt x="310" y="767" on="1"/>
        <pt x="282" y="767" on="1"/>
        <pt x="257" y="767" on="0"/>
        <pt x="260" y="790" on="1"/>
        <pt x="269" y="845" on="1"/>
        <pt x="272" y="870" on="0"/>
        <pt x="297" y="870" on="1"/>
        <pt x="323" y="870" on="1"/>
        <pt x="348" y="870" on="0"/>
        <pt x="345" y="845" on="1"/>
        <pt x="336" y="791" on="1"/>
        <pt x="333" y="767" on="0"/>
      </contour>
      <contour>
        <pt x="479" y="767" on="1"/>
        <pt x="451" y="767" on="1"/>
        <pt x="426" y="767" on="0"/>
        <pt x="429" y="790" on="1"/>
        <pt x="438" y="845" on="1"/>
        <pt x="441" y="870" on="0"/>
        <pt x="466" y="870" on="1"/>
        <pt x="492" y="870" on="1"/>
        <pt x="517" y="870" on="0"/>
        <pt x="514" y="845" on="1"/>
        <pt x="505" y="791" on="1"/>
        <pt x="502" y="767" on="0"/>
      </contour>
      <contour>
        <pt x="446" y="215" on="1"/>
        <pt x="161" y="215" on="1"/>
        <pt x="63" y="0" on="1"/>
        <pt x="-30" y="0" on="1"/>
        <pt x="286" y="667" on="1"/>
        <pt x="293" y="690" on="0"/>
        <pt x="320" y="690" on="1"/>
        <pt x="412" y="690" on="1"/>
        <pt x="424" y="690" on="0"/>
        <pt x="441" y="675" on="0"/>
        <pt x="442" y="664" on="1"/>
        <pt x="571" y="0" on="1"/>
        <pt x="483" y="0" on="1"/>
      </contour>
      <contour>
        <pt x="432" y="292" on="1"/>
        <pt x="384" y="564" on="1"/>
        <pt x="383" y="573" on="0"/>
        <pt x="378" y="613" on="0"/>
        <pt x="376" y="623" on="1"/>
        <pt x="346" y="623" on="1"/>
        <pt x="320" y="564" on="1"/>
        <pt x="196" y="292" on="1"/>
      </contour>
    </TTGlyph>
    <TTGlyph name="Agrave" xMin="-30" yMin="0" xMax="571" yMax="913">
      <contour>
        <pt x="397" y="728" on="1"/>
        <pt x="212" y="853" on="1"/>
        <pt x="258" y="913" on="1"/>
        <pt x="427" y="766" on="1"/>
      </contour>
      <contour>
        <pt x="446" y="215" on="1"/>
        <pt x="161" y="215" on="1"/>
        <pt x="63" y="0" on="1"/>
        <pt x="-30" y="0" on="1"/>
        <pt x="286" y="667" on="1"/>
        <pt x="293" y="690" on="0"/>
        <pt x="320" y="690" on="1"/>
        <pt x="412" y="690" on="1"/>
        <pt x="424" y="690" on="0"/>
        <pt x="441" y="675" on="0"/>
        <pt x="442" y="664" on="1"/>
        <pt x="571" y="0" on="1"/>
        <pt x="483" y="0" on="1"/>
      </contour>
      <contour>
        <pt x="432" y="292" on="1"/>
        <pt x="384" y="564" on="1"/>
        <pt x="383" y="573" on="0"/>
        <pt x="378" y="613" on="0"/>
        <pt x="376" y="623" on="1"/>
        <pt x="346" y="623" on="1"/>
        <pt x="320" y="564" on="1"/>
        <pt x="196" y="292" on="1"/>
      </contour>
    </TTGlyph>
    <TTGlyph name="Amacron" xMin="-30" yMin="0" xMax="571" yMax="849">
      <contour>
        <pt x="522" y="786" on="1"/>
        <pt x="243" y="786" on="1"/>
        <pt x="251" y="849" on="1"/>
        <pt x="530" y="849" on="1"/>
      </contour>
      <contour>
        <pt x="446" y="215" on="1"/>
        <pt x="161" y="215" on="1"/>
        <pt x="63" y="0" on="1"/>
        <pt x="-30" y="0" on="1"/>
        <pt x="286" y="667" on="1"/>
        <pt x="293" y="690" on="0"/>
        <pt x="320" y="690" on="1"/>
        <pt x="412" y="690" on="1"/>
        <pt x="424" y="690" on="0"/>
        <pt x="441" y="675" on="0"/>
        <pt x="442" y="664" on="1"/>
        <pt x="571" y="0" on="1"/>
        <pt x="483" y="0" on="1"/>
      </contour>
      <contour>
        <pt x="432" y="292" on="1"/>
        <pt x="384" y="564" on="1"/>
        <pt x="383" y="573" on="0"/>
        <pt x="378" y="613" on="0"/>
        <pt x="376" y="623" on="1"/>
        <pt x="346" y="623" on="1"/>
        <pt x="320" y="564" on="1"/>
        <pt x="196" y="292" on="1"/>
      </contour>
    </TTGlyph>
    <TTGlyph name="Aogonek" xMin="-30" yMin="-213" xMax="571" yMax="690">
      <contour>
        <pt x="442" y="664" on="1"/>
        <pt x="571" y="0" on="1"/>
        <pt x="516" y="-58" on="0"/>
        <pt x="483" y="-117" on="1"/>
        <pt x="463" y="-152" on="0"/>
        <pt x="501" y="-173" on="0"/>
        <pt x="551" y="-157" on="1"/>
        <pt x="561" y="-194" on="1"/>
        <pt x="523" y="-209" on="0"/>
        <pt x="462" y="-216" on="0"/>
        <pt x="426" y="-202" on="0"/>
        <pt x="407" y="-174" on="0"/>
        <pt x="410" y="-135" on="0"/>
        <pt x="421" y="-114" on="1"/>
        <pt x="450" y="-57" on="0"/>
        <pt x="527" y="0" on="1"/>
        <pt x="483" y="0" on="1"/>
        <pt x="446" y="215" on="1"/>
        <pt x="161" y="215" on="1"/>
        <pt x="63" y="0" on="1"/>
        <pt x="-30" y="0" on="1"/>
        <pt x="286" y="667" on="1"/>
        <pt x="293" y="690" on="0"/>
        <pt x="320" y="690" on="1"/>
        <pt x="412" y="690" on="1"/>
        <pt x="424" y="690" on="0"/>
        <pt x="441" y="675" on="0"/>
      </contour>
      <contour>
        <pt x="432" y="292" on="1"/>
        <pt x="384" y="564" on="1"/>
        <pt x="383" y="573" on="0"/>
        <pt x="378" y="613" on="0"/>
        <pt x="376" y="623" on="1"/>
        <pt x="346" y="623" on="1"/>
        <pt x="320" y="564" on="1"/>
        <pt x="196" y="292" on="1"/>
      </contour>
    </TTGlyph>
    <TTGlyph name="Aring" xMin="-30" yMin="0" xMax="571" yMax="924">
      <contour>
        <pt x="381" y="715" on="1"/>
        <pt x="332" y="715" on="0"/>
        <pt x="276" y="776" on="0"/>
        <pt x="281" y="823" on="1"/>
        <pt x="286" y="866" on="0"/>
        <pt x="346" y="924" on="0"/>
        <pt x="393" y="924" on="1"/>
        <pt x="441" y="924" on="0"/>
        <pt x="499" y="863" on="0"/>
        <pt x="494" y="816" on="1"/>
        <pt x="489" y="773" on="0"/>
        <pt x="428" y="715" on="0"/>
      </contour>
      <contour>
        <pt x="328" y="819" on="1"/>
        <pt x="325" y="791" on="0"/>
        <pt x="356" y="758" on="0"/>
        <pt x="382" y="758" on="1"/>
        <pt x="409" y="758" on="0"/>
        <pt x="444" y="794" on="0"/>
        <pt x="446" y="821" on="1"/>
        <pt x="449" y="847" on="0"/>
        <pt x="420" y="881" on="0"/>
        <pt x="366" y="881" on="0"/>
        <pt x="331" y="846" on="0"/>
      </contour>
      <contour>
        <pt x="446" y="215" on="1"/>
        <pt x="161" y="215" on="1"/>
        <pt x="63" y="0" on="1"/>
        <pt x="-30" y="0" on="1"/>
        <pt x="286" y="667" on="1"/>
        <pt x="293" y="690" on="0"/>
        <pt x="320" y="690" on="1"/>
        <pt x="412" y="690" on="1"/>
        <pt x="424" y="690" on="0"/>
        <pt x="441" y="675" on="0"/>
        <pt x="442" y="664" on="1"/>
        <pt x="571" y="0" on="1"/>
        <pt x="483" y="0" on="1"/>
      </contour>
      <contour>
        <pt x="432" y="292" on="1"/>
        <pt x="384" y="564" on="1"/>
        <pt x="383" y="573" on="0"/>
        <pt x="378" y="613" on="0"/>
        <pt x="376" y="623" on="1"/>
        <pt x="346" y="623" on="1"/>
        <pt x="320" y="564" on="1"/>
        <pt x="196" y="292" on="1"/>
      </contour>
    </TTGlyph>
    <TTGlyph name="Atilde" xMin="-30" yMin="0" xMax="571" yMax="880">
      <contour>
        <pt x="513" y="877" on="1"/>
        <pt x="553" y="873" on="1"/>
        <pt x="551" y="818" on="0"/>
        <pt x="502" y="760" on="0"/>
        <pt x="464" y="763" on="1"/>
        <pt x="425" y="766" on="0"/>
        <pt x="339" y="817" on="0"/>
        <pt x="321" y="820" on="1"/>
        <pt x="293" y="823" on="0"/>
        <pt x="266" y="795" on="0"/>
        <pt x="261" y="764" on="1"/>
        <pt x="221" y="767" on="1"/>
        <pt x="224" y="825" on="0"/>
        <pt x="274" y="883" on="0"/>
        <pt x="311" y="880" on="1"/>
        <pt x="344" y="877" on="0"/>
        <pt x="428" y="827" on="0"/>
        <pt x="452" y="824" on="1"/>
        <pt x="481" y="821" on="0"/>
        <pt x="509" y="847" on="0"/>
      </contour>
      <contour>
        <pt x="446" y="215" on="1"/>
        <pt x="161" y="215" on="1"/>
        <pt x="63" y="0" on="1"/>
        <pt x="-30" y="0" on="1"/>
        <pt x="286" y="667" on="1"/>
        <pt x="293" y="690" on="0"/>
        <pt x="320" y="690" on="1"/>
        <pt x="412" y="690" on="1"/>
        <pt x="424" y="690" on="0"/>
        <pt x="441" y="675" on="0"/>
        <pt x="442" y="664" on="1"/>
        <pt x="571" y="0" on="1"/>
        <pt x="483" y="0" on="1"/>
      </contour>
      <contour>
        <pt x="432" y="292" on="1"/>
        <pt x="384" y="564" on="1"/>
        <pt x="383" y="573" on="0"/>
        <pt x="378" y="613" on="0"/>
        <pt x="376" y="623" on="1"/>
        <pt x="346" y="623" on="1"/>
        <pt x="320" y="564" on="1"/>
        <pt x="196" y="292" on="1"/>
      </contour>
    </TTGlyph>
    <TTGlyph name="B" xMin="45" yMin="-8" xMax="571" yMax="698">
      <contour>
        <pt x="45" y="0" on="1"/>
        <pt x="142" y="690" on="1"/>
        <pt x="222" y="698" on="0"/>
        <pt x="363" y="698" on="1"/>
        <pt x="490" y="698" on="0"/>
        <pt x="586" y="619" on="0"/>
        <pt x="571" y="515" on="1"/>
        <pt x="560" y="440" on="0"/>
        <pt x="496" y="365" on="0"/>
        <pt x="433" y="359" on="1"/>
        <pt x="432" y="355" on="1"/>
        <pt x="570" y="343" on="0"/>
        <pt x="544" y="169" on="1"/>
        <pt x="528" y="64" on="0"/>
        <pt x="425" y="-8" on="0"/>
        <pt x="305" y="-8" on="1"/>
        <pt x="135" y="-8" on="0"/>
      </contour>
      <contour>
        <pt x="187" y="391" on="1"/>
        <pt x="333" y="391" on="1"/>
        <pt x="410" y="392" on="0"/>
        <pt x="476" y="442" on="0"/>
        <pt x="486" y="511" on="1"/>
        <pt x="495" y="580" on="0"/>
        <pt x="442" y="623" on="0"/>
        <pt x="359" y="623" on="1"/>
        <pt x="219" y="623" on="1"/>
      </contour>
      <contour>
        <pt x="177" y="324" on="1"/>
        <pt x="141" y="68" on="1"/>
        <pt x="181" y="67" on="0"/>
        <pt x="292" y="67" on="1"/>
        <pt x="378" y="67" on="0"/>
        <pt x="448" y="117" on="0"/>
        <pt x="458" y="190" on="1"/>
        <pt x="469" y="268" on="0"/>
        <pt x="415" y="322" on="0"/>
        <pt x="329" y="324" on="1"/>
      </contour>
    </TTGlyph>
    <TTGlyph name="C" xMin="68" yMin="-12" xMax="571" yMax="702">
      <contour>
        <pt x="491" y="77" on="1"/>
        <pt x="496" y="10" on="1"/>
        <pt x="414" y="-12" on="0"/>
        <pt x="293" y="-12" on="1"/>
        <pt x="145" y="-12" on="0"/>
        <pt x="41" y="157" on="0"/>
        <pt x="68" y="348" on="1"/>
        <pt x="96" y="545" on="0"/>
        <pt x="235" y="702" on="0"/>
        <pt x="383" y="702" on="1"/>
        <pt x="494" y="702" on="0"/>
        <pt x="571" y="681" on="1"/>
        <pt x="557" y="615" on="1"/>
        <pt x="468" y="624" on="0"/>
        <pt x="382" y="624" on="1"/>
        <pt x="278" y="624" on="0"/>
        <pt x="182" y="507" on="0"/>
        <pt x="160" y="342" on="1"/>
        <pt x="138" y="186" on="0"/>
        <pt x="196" y="67" on="0"/>
        <pt x="294" y="66" on="1"/>
        <pt x="401" y="66" on="0"/>
      </contour>
    </TTGlyph>
    <TTGlyph name="Cacute" xMin="68" yMin="-12" xMax="571" yMax="914">
      <contour>
        <pt x="553" y="849" on="1"/>
        <pt x="346" y="728" on="1"/>
        <pt x="320" y="768" on="1"/>
        <pt x="512" y="914" on="1"/>
      </contour>
      <contour>
        <pt x="491" y="77" on="1"/>
        <pt x="496" y="10" on="1"/>
        <pt x="414" y="-12" on="0"/>
        <pt x="293" y="-12" on="1"/>
        <pt x="145" y="-12" on="0"/>
        <pt x="41" y="157" on="0"/>
        <pt x="68" y="348" on="1"/>
        <pt x="96" y="545" on="0"/>
        <pt x="235" y="702" on="0"/>
        <pt x="383" y="702" on="1"/>
        <pt x="494" y="702" on="0"/>
        <pt x="571" y="681" on="1"/>
        <pt x="557" y="615" on="1"/>
        <pt x="468" y="624" on="0"/>
        <pt x="382" y="624" on="1"/>
        <pt x="278" y="624" on="0"/>
        <pt x="182" y="507" on="0"/>
        <pt x="160" y="342" on="1"/>
        <pt x="138" y="186" on="0"/>
        <pt x="196" y="67" on="0"/>
        <pt x="294" y="66" on="1"/>
        <pt x="401" y="66" on="0"/>
      </contour>
    </TTGlyph>
    <TTGlyph name="Ccaron" xMin="68" yMin="-12" xMax="571" yMax="908">
      <contour>
        <pt x="566" y="871" on="1"/>
        <pt x="416" y="744" on="1"/>
        <pt x="354" y="744" on="1"/>
        <pt x="237" y="876" on="1"/>
        <pt x="272" y="908" on="1"/>
        <pt x="385" y="808" on="1"/>
        <pt x="393" y="808" on="1"/>
        <pt x="539" y="908" on="1"/>
      </contour>
      <contour>
        <pt x="491" y="77" on="1"/>
        <pt x="496" y="10" on="1"/>
        <pt x="414" y="-12" on="0"/>
        <pt x="293" y="-12" on="1"/>
        <pt x="145" y="-12" on="0"/>
        <pt x="41" y="157" on="0"/>
        <pt x="68" y="348" on="1"/>
        <pt x="96" y="545" on="0"/>
        <pt x="235" y="702" on="0"/>
        <pt x="383" y="702" on="1"/>
        <pt x="494" y="702" on="0"/>
        <pt x="571" y="681" on="1"/>
        <pt x="557" y="615" on="1"/>
        <pt x="468" y="624" on="0"/>
        <pt x="382" y="624" on="1"/>
        <pt x="278" y="624" on="0"/>
        <pt x="182" y="507" on="0"/>
        <pt x="160" y="342" on="1"/>
        <pt x="138" y="186" on="0"/>
        <pt x="196" y="67" on="0"/>
        <pt x="294" y="66" on="1"/>
        <pt x="401" y="66" on="0"/>
      </contour>
    </TTGlyph>
    <TTGlyph name="Ccedilla" xMin="68" yMin="-241" xMax="571" yMax="702">
      <contour>
        <pt x="491" y="77" on="1"/>
        <pt x="496" y="10" on="1"/>
        <pt x="414" y="-12" on="0"/>
        <pt x="293" y="-12" on="1"/>
        <pt x="145" y="-12" on="0"/>
        <pt x="41" y="157" on="0"/>
        <pt x="68" y="348" on="1"/>
        <pt x="96" y="545" on="0"/>
        <pt x="235" y="702" on="0"/>
        <pt x="383" y="702" on="1"/>
        <pt x="494" y="702" on="0"/>
        <pt x="571" y="681" on="1"/>
        <pt x="557" y="615" on="1"/>
        <pt x="468" y="624" on="0"/>
        <pt x="382" y="624" on="1"/>
        <pt x="278" y="624" on="0"/>
        <pt x="182" y="507" on="0"/>
        <pt x="160" y="342" on="1"/>
        <pt x="138" y="186" on="0"/>
        <pt x="196" y="67" on="0"/>
        <pt x="294" y="66" on="1"/>
        <pt x="401" y="66" on="0"/>
      </contour>
      <contour>
        <pt x="218" y="-95" on="1"/>
        <pt x="228" y="-55" on="1"/>
        <pt x="290" y="-49" on="0"/>
        <pt x="341" y="-79" on="0"/>
        <pt x="333" y="-124" on="1"/>
        <pt x="322" y="-186" on="0"/>
        <pt x="221" y="-251" on="0"/>
        <pt x="150" y="-241" on="1"/>
        <pt x="166" y="-196" on="1"/>
        <pt x="206" y="-197" on="0"/>
        <pt x="266" y="-156" on="0"/>
        <pt x="272" y="-123" on="1"/>
        <pt x="274" y="-106" on="0"/>
        <pt x="254" y="-96" on="0"/>
      </contour>
    </TTGlyph>
    <TTGlyph name="Cdotaccent" xMin="68" yMin="-12" xMax="571" yMax="867">
      <contour>
        <pt x="384" y="867" on="1"/>
        <pt x="412" y="867" on="1"/>
        <pt x="425" y="867" on="0"/>
        <pt x="438" y="853" on="0"/>
        <pt x="436" y="840" on="1"/>
        <pt x="428" y="783" on="1"/>
        <pt x="425" y="759" on="0"/>
        <pt x="401" y="759" on="1"/>
        <pt x="374" y="759" on="1"/>
        <pt x="361" y="759" on="0"/>
        <pt x="348" y="774" on="0"/>
        <pt x="350" y="786" on="1"/>
        <pt x="357" y="843" on="1"/>
        <pt x="361" y="867" on="0"/>
      </contour>
      <contour>
        <pt x="491" y="77" on="1"/>
        <pt x="496" y="10" on="1"/>
        <pt x="414" y="-12" on="0"/>
        <pt x="293" y="-12" on="1"/>
        <pt x="145" y="-12" on="0"/>
        <pt x="41" y="157" on="0"/>
        <pt x="68" y="348" on="1"/>
        <pt x="96" y="545" on="0"/>
        <pt x="235" y="702" on="0"/>
        <pt x="383" y="702" on="1"/>
        <pt x="494" y="702" on="0"/>
        <pt x="571" y="681" on="1"/>
        <pt x="557" y="615" on="1"/>
        <pt x="468" y="624" on="0"/>
        <pt x="382" y="624" on="1"/>
        <pt x="278" y="624" on="0"/>
        <pt x="182" y="507" on="0"/>
        <pt x="160" y="342" on="1"/>
        <pt x="138" y="186" on="0"/>
        <pt x="196" y="67" on="0"/>
        <pt x="294" y="66" on="1"/>
        <pt x="401" y="66" on="0"/>
      </contour>
    </TTGlyph>
    <TTGlyph name="D" xMin="45" yMin="-9" xMax="608" yMax="699">
      <contour>
        <pt x="45" y="0" on="1"/>
        <pt x="142" y="690" on="1"/>
        <pt x="264" y="699" on="0"/>
        <pt x="368" y="699" on="1"/>
        <pt x="528" y="699" on="0"/>
        <pt x="636" y="541" on="0"/>
        <pt x="608" y="342" on="1"/>
        <pt x="592" y="230" on="0"/>
        <pt x="544" y="92" on="0"/>
        <pt x="460" y="17" on="0"/>
        <pt x="357" y="-9" on="0"/>
        <pt x="274" y="-9" on="1"/>
        <pt x="176" y="-9" on="0"/>
      </contour>
      <contour>
        <pt x="220" y="621" on="1"/>
        <pt x="143" y="70" on="1"/>
        <pt x="233" y="68" on="0"/>
        <pt x="273" y="68" on="1"/>
        <pt x="335" y="68" on="0"/>
        <pt x="411" y="89" on="0"/>
        <pt x="470" y="152" on="0"/>
        <pt x="504" y="259" on="0"/>
        <pt x="517" y="348" on="1"/>
        <pt x="527" y="417" on="0"/>
        <pt x="528" y="510" on="0"/>
        <pt x="513" y="574" on="0"/>
        <pt x="471" y="609" on="0"/>
        <pt x="412" y="623" on="0"/>
        <pt x="320" y="623" on="0"/>
      </contour>
    </TTGlyph>
    <TTGlyph name="Dcaron" xMin="45" yMin="-9" xMax="608" yMax="908">
      <contour>
        <pt x="350" y="744" on="1"/>
        <pt x="233" y="876" on="1"/>
        <pt x="267" y="908" on="1"/>
        <pt x="380" y="808" on="1"/>
        <pt x="388" y="808" on="1"/>
        <pt x="535" y="908" on="1"/>
        <pt x="561" y="871" on="1"/>
        <pt x="412" y="744" on="1"/>
      </contour>
      <contour>
        <pt x="45" y="0" on="1"/>
        <pt x="142" y="690" on="1"/>
        <pt x="264" y="699" on="0"/>
        <pt x="368" y="699" on="1"/>
        <pt x="528" y="699" on="0"/>
        <pt x="636" y="541" on="0"/>
        <pt x="608" y="342" on="1"/>
        <pt x="592" y="230" on="0"/>
        <pt x="544" y="92" on="0"/>
        <pt x="460" y="17" on="0"/>
        <pt x="357" y="-9" on="0"/>
        <pt x="274" y="-9" on="1"/>
        <pt x="176" y="-9" on="0"/>
      </contour>
      <contour>
        <pt x="220" y="621" on="1"/>
        <pt x="143" y="70" on="1"/>
        <pt x="233" y="68" on="0"/>
        <pt x="273" y="68" on="1"/>
        <pt x="335" y="68" on="0"/>
        <pt x="411" y="89" on="0"/>
        <pt x="470" y="152" on="0"/>
        <pt x="504" y="259" on="0"/>
        <pt x="517" y="348" on="1"/>
        <pt x="527" y="417" on="0"/>
        <pt x="528" y="510" on="0"/>
        <pt x="513" y="574" on="0"/>
        <pt x="471" y="609" on="0"/>
        <pt x="412" y="623" on="0"/>
        <pt x="320" y="623" on="0"/>
      </contour>
    </TTGlyph>
    <TTGlyph name="Dcroat" xMin="27" yMin="-9" xMax="608" yMax="699">
      <contour>
        <pt x="100" y="391" on="1"/>
        <pt x="142" y="690" on="1"/>
        <pt x="264" y="699" on="0"/>
        <pt x="368" y="699" on="1"/>
        <pt x="528" y="699" on="0"/>
        <pt x="636" y="541" on="0"/>
        <pt x="608" y="342" on="1"/>
        <pt x="592" y="230" on="0"/>
        <pt x="544" y="92" on="0"/>
        <pt x="460" y="17" on="0"/>
        <pt x="357" y="-9" on="0"/>
        <pt x="274" y="-9" on="1"/>
        <pt x="176" y="-9" on="0"/>
        <pt x="45" y="0" on="1"/>
        <pt x="93" y="342" on="1"/>
        <pt x="27" y="342" on="1"/>
        <pt x="34" y="391" on="1"/>
      </contour>
      <contour>
        <pt x="181" y="342" on="1"/>
        <pt x="143" y="70" on="1"/>
        <pt x="233" y="68" on="0"/>
        <pt x="273" y="68" on="1"/>
        <pt x="335" y="68" on="0"/>
        <pt x="411" y="89" on="0"/>
        <pt x="470" y="152" on="0"/>
        <pt x="504" y="259" on="0"/>
        <pt x="517" y="348" on="1"/>
        <pt x="527" y="417" on="0"/>
        <pt x="528" y="510" on="0"/>
        <pt x="513" y="574" on="0"/>
        <pt x="471" y="609" on="0"/>
        <pt x="412" y="623" on="0"/>
        <pt x="320" y="623" on="0"/>
        <pt x="220" y="621" on="1"/>
        <pt x="188" y="391" on="1"/>
        <pt x="342" y="391" on="1"/>
        <pt x="336" y="342" on="1"/>
      </contour>
    </TTGlyph>
    <TTGlyph name="Delta" xMin="-13" yMin="0" xMax="567" yMax="690">
      <contour>
        <pt x="567" y="37" on="1"/>
        <pt x="562" y="0" on="1"/>
        <pt x="-13" y="0" on="1"/>
        <pt x="-9" y="37" on="1"/>
        <pt x="327" y="690" on="1"/>
        <pt x="415" y="690" on="1"/>
      </contour>
      <contour>
        <pt x="472" y="72" on="1"/>
        <pt x="373" y="528" on="1"/>
        <pt x="365" y="568" on="0"/>
        <pt x="361" y="605" on="1"/>
        <pt x="347" y="565" on="0"/>
        <pt x="328" y="526" on="1"/>
        <pt x="101" y="72" on="1"/>
      </contour>
    </TTGlyph>
    <TTGlyph name="E" xMin="58" yMin="-1" xMax="562" yMax="691">
      <contour>
        <pt x="550" y="616" on="1"/>
        <pt x="275" y="616" on="1"/>
        <pt x="241" y="616" on="0"/>
        <pt x="209" y="584" on="0"/>
        <pt x="204" y="548" on="1"/>
        <pt x="183" y="398" on="1"/>
        <pt x="480" y="398" on="1"/>
        <pt x="471" y="330" on="1"/>
        <pt x="174" y="330" on="1"/>
        <pt x="148" y="139" on="1"/>
        <pt x="143" y="105" on="0"/>
        <pt x="169" y="74" on="0"/>
        <pt x="203" y="74" on="1"/>
        <pt x="473" y="74" on="1"/>
        <pt x="471" y="5" on="1"/>
        <pt x="383" y="-1" on="0"/>
        <pt x="192" y="-1" on="1"/>
        <pt x="117" y="-1" on="0"/>
        <pt x="49" y="72" on="0"/>
        <pt x="58" y="137" on="1"/>
        <pt x="119" y="573" on="1"/>
        <pt x="127" y="629" on="0"/>
        <pt x="201" y="691" on="0"/>
        <pt x="264" y="691" on="1"/>
        <pt x="470" y="691" on="0"/>
        <pt x="562" y="685" on="1"/>
      </contour>
    </TTGlyph>
    <TTGlyph name="Eacute" xMin="58" yMin="-1" xMax="562" yMax="935">
      <contour>
        <pt x="337" y="749" on="1"/>
        <pt x="310" y="788" on="1"/>
        <pt x="502" y="935" on="1"/>
        <pt x="543" y="869" on="1"/>
      </contour>
      <contour>
        <pt x="550" y="616" on="1"/>
        <pt x="275" y="616" on="1"/>
        <pt x="241" y="616" on="0"/>
        <pt x="209" y="584" on="0"/>
        <pt x="204" y="548" on="1"/>
        <pt x="183" y="398" on="1"/>
        <pt x="480" y="398" on="1"/>
        <pt x="471" y="330" on="1"/>
        <pt x="174" y="330" on="1"/>
        <pt x="148" y="139" on="1"/>
        <pt x="143" y="105" on="0"/>
        <pt x="169" y="74" on="0"/>
        <pt x="203" y="74" on="1"/>
        <pt x="473" y="74" on="1"/>
        <pt x="471" y="5" on="1"/>
        <pt x="383" y="-1" on="0"/>
        <pt x="192" y="-1" on="1"/>
        <pt x="117" y="-1" on="0"/>
        <pt x="49" y="72" on="0"/>
        <pt x="58" y="137" on="1"/>
        <pt x="119" y="573" on="1"/>
        <pt x="127" y="629" on="0"/>
        <pt x="201" y="691" on="0"/>
        <pt x="264" y="691" on="1"/>
        <pt x="470" y="691" on="0"/>
        <pt x="562" y="685" on="1"/>
      </contour>
    </TTGlyph>
    <TTGlyph name="Ecaron" xMin="58" yMin="-1" xMax="562" yMax="928">
      <contour>
        <pt x="345" y="764" on="1"/>
        <pt x="228" y="897" on="1"/>
        <pt x="262" y="928" on="1"/>
        <pt x="375" y="829" on="1"/>
        <pt x="383" y="829" on="1"/>
        <pt x="530" y="928" on="1"/>
        <pt x="556" y="892" on="1"/>
        <pt x="406" y="764" on="1"/>
      </contour>
      <contour>
        <pt x="550" y="616" on="1"/>
        <pt x="275" y="616" on="1"/>
        <pt x="241" y="616" on="0"/>
        <pt x="209" y="584" on="0"/>
        <pt x="204" y="548" on="1"/>
        <pt x="183" y="398" on="1"/>
        <pt x="480" y="398" on="1"/>
        <pt x="471" y="330" on="1"/>
        <pt x="174" y="330" on="1"/>
        <pt x="148" y="139" on="1"/>
        <pt x="143" y="105" on="0"/>
        <pt x="169" y="74" on="0"/>
        <pt x="203" y="74" on="1"/>
        <pt x="473" y="74" on="1"/>
        <pt x="471" y="5" on="1"/>
        <pt x="383" y="-1" on="0"/>
        <pt x="192" y="-1" on="1"/>
        <pt x="117" y="-1" on="0"/>
        <pt x="49" y="72" on="0"/>
        <pt x="58" y="137" on="1"/>
        <pt x="119" y="573" on="1"/>
        <pt x="127" y="629" on="0"/>
        <pt x="201" y="691" on="0"/>
        <pt x="264" y="691" on="1"/>
        <pt x="470" y="691" on="0"/>
        <pt x="562" y="685" on="1"/>
      </contour>
    </TTGlyph>
    <TTGlyph name="Ecircumflex" xMin="58" yMin="-1" xMax="562" yMax="917">
      <contour>
        <pt x="238" y="752" on="1"/>
        <pt x="214" y="789" on="1"/>
        <pt x="362" y="917" on="1"/>
        <pt x="422" y="917" on="1"/>
        <pt x="546" y="784" on="1"/>
        <pt x="515" y="750" on="1"/>
        <pt x="395" y="852" on="1"/>
        <pt x="387" y="852" on="1"/>
      </contour>
      <contour>
        <pt x="550" y="616" on="1"/>
        <pt x="275" y="616" on="1"/>
        <pt x="241" y="616" on="0"/>
        <pt x="209" y="584" on="0"/>
        <pt x="204" y="548" on="1"/>
        <pt x="183" y="398" on="1"/>
        <pt x="480" y="398" on="1"/>
        <pt x="471" y="330" on="1"/>
        <pt x="174" y="330" on="1"/>
        <pt x="148" y="139" on="1"/>
        <pt x="143" y="105" on="0"/>
        <pt x="169" y="74" on="0"/>
        <pt x="203" y="74" on="1"/>
        <pt x="473" y="74" on="1"/>
        <pt x="471" y="5" on="1"/>
        <pt x="383" y="-1" on="0"/>
        <pt x="192" y="-1" on="1"/>
        <pt x="117" y="-1" on="0"/>
        <pt x="49" y="72" on="0"/>
        <pt x="58" y="137" on="1"/>
        <pt x="119" y="573" on="1"/>
        <pt x="127" y="629" on="0"/>
        <pt x="201" y="691" on="0"/>
        <pt x="264" y="691" on="1"/>
        <pt x="470" y="691" on="0"/>
        <pt x="562" y="685" on="1"/>
      </contour>
    </TTGlyph>
    <TTGlyph name="Edieresis" xMin="58" yMin="-1" xMax="562" yMax="890">
      <contour>
        <pt x="307" y="788" on="1"/>
        <pt x="279" y="788" on="1"/>
        <pt x="254" y="788" on="0"/>
        <pt x="257" y="811" on="1"/>
        <pt x="266" y="866" on="1"/>
        <pt x="269" y="890" on="0"/>
        <pt x="294" y="890" on="1"/>
        <pt x="319" y="890" on="1"/>
        <pt x="334" y="890" on="0"/>
        <pt x="344" y="879" on="0"/>
        <pt x="342" y="866" on="1"/>
        <pt x="333" y="812" on="1"/>
        <pt x="330" y="788" on="0"/>
      </contour>
      <contour>
        <pt x="476" y="788" on="1"/>
        <pt x="448" y="788" on="1"/>
        <pt x="423" y="788" on="0"/>
        <pt x="426" y="811" on="1"/>
        <pt x="435" y="866" on="1"/>
        <pt x="438" y="890" on="0"/>
        <pt x="463" y="890" on="1"/>
        <pt x="488" y="890" on="1"/>
        <pt x="503" y="890" on="0"/>
        <pt x="513" y="879" on="0"/>
        <pt x="511" y="866" on="1"/>
        <pt x="502" y="812" on="1"/>
        <pt x="499" y="788" on="0"/>
      </contour>
      <contour>
        <pt x="550" y="616" on="1"/>
        <pt x="275" y="616" on="1"/>
        <pt x="241" y="616" on="0"/>
        <pt x="209" y="584" on="0"/>
        <pt x="204" y="548" on="1"/>
        <pt x="183" y="398" on="1"/>
        <pt x="480" y="398" on="1"/>
        <pt x="471" y="330" on="1"/>
        <pt x="174" y="330" on="1"/>
        <pt x="148" y="139" on="1"/>
        <pt x="143" y="105" on="0"/>
        <pt x="169" y="74" on="0"/>
        <pt x="203" y="74" on="1"/>
        <pt x="473" y="74" on="1"/>
        <pt x="471" y="5" on="1"/>
        <pt x="383" y="-1" on="0"/>
        <pt x="192" y="-1" on="1"/>
        <pt x="117" y="-1" on="0"/>
        <pt x="49" y="72" on="0"/>
        <pt x="58" y="137" on="1"/>
        <pt x="119" y="573" on="1"/>
        <pt x="127" y="629" on="0"/>
        <pt x="201" y="691" on="0"/>
        <pt x="264" y="691" on="1"/>
        <pt x="470" y="691" on="0"/>
        <pt x="562" y="685" on="1"/>
      </contour>
    </TTGlyph>
    <TTGlyph name="Edotaccent" xMin="58" yMin="-1" xMax="562" yMax="888">
      <contour>
        <pt x="392" y="779" on="1"/>
        <pt x="364" y="779" on="1"/>
        <pt x="352" y="779" on="0"/>
        <pt x="339" y="794" on="0"/>
        <pt x="340" y="807" on="1"/>
        <pt x="347" y="863" on="1"/>
        <pt x="351" y="888" on="0"/>
        <pt x="374" y="888" on="1"/>
        <pt x="402" y="888" on="1"/>
        <pt x="430" y="888" on="0"/>
        <pt x="427" y="860" on="1"/>
        <pt x="419" y="804" on="1"/>
        <pt x="415" y="779" on="0"/>
      </contour>
      <contour>
        <pt x="550" y="616" on="1"/>
        <pt x="275" y="616" on="1"/>
        <pt x="241" y="616" on="0"/>
        <pt x="209" y="584" on="0"/>
        <pt x="204" y="548" on="1"/>
        <pt x="183" y="398" on="1"/>
        <pt x="480" y="398" on="1"/>
        <pt x="471" y="330" on="1"/>
        <pt x="174" y="330" on="1"/>
        <pt x="148" y="139" on="1"/>
        <pt x="143" y="105" on="0"/>
        <pt x="169" y="74" on="0"/>
        <pt x="203" y="74" on="1"/>
        <pt x="473" y="74" on="1"/>
        <pt x="471" y="5" on="1"/>
        <pt x="383" y="-1" on="0"/>
        <pt x="192" y="-1" on="1"/>
        <pt x="117" y="-1" on="0"/>
        <pt x="49" y="72" on="0"/>
        <pt x="58" y="137" on="1"/>
        <pt x="119" y="573" on="1"/>
        <pt x="127" y="629" on="0"/>
        <pt x="201" y="691" on="0"/>
        <pt x="264" y="691" on="1"/>
        <pt x="470" y="691" on="0"/>
        <pt x="562" y="685" on="1"/>
      </contour>
    </TTGlyph>
    <TTGlyph name="Egrave" xMin="58" yMin="-1" xMax="562" yMax="934">
      <contour>
        <pt x="393" y="749" on="1"/>
        <pt x="208" y="874" on="1"/>
        <pt x="255" y="934" on="1"/>
        <pt x="424" y="787" on="1"/>
      </contour>
      <contour>
        <pt x="550" y="616" on="1"/>
        <pt x="275" y="616" on="1"/>
        <pt x="241" y="616" on="0"/>
        <pt x="209" y="584" on="0"/>
        <pt x="204" y="548" on="1"/>
        <pt x="183" y="398" on="1"/>
        <pt x="480" y="398" on="1"/>
        <pt x="471" y="330" on="1"/>
        <pt x="174" y="330" on="1"/>
        <pt x="148" y="139" on="1"/>
        <pt x="143" y="105" on="0"/>
        <pt x="169" y="74" on="0"/>
        <pt x="203" y="74" on="1"/>
        <pt x="473" y="74" on="1"/>
        <pt x="471" y="5" on="1"/>
        <pt x="383" y="-1" on="0"/>
        <pt x="192" y="-1" on="1"/>
        <pt x="117" y="-1" on="0"/>
        <pt x="49" y="72" on="0"/>
        <pt x="58" y="137" on="1"/>
        <pt x="119" y="573" on="1"/>
        <pt x="127" y="629" on="0"/>
        <pt x="201" y="691" on="0"/>
        <pt x="264" y="691" on="1"/>
        <pt x="470" y="691" on="0"/>
        <pt x="562" y="685" on="1"/>
      </contour>
    </TTGlyph>
    <TTGlyph name="Emacron" xMin="58" yMin="-1" xMax="562" yMax="870">
      <contour>
        <pt x="518" y="806" on="1"/>
        <pt x="239" y="806" on="1"/>
        <pt x="248" y="870" on="1"/>
        <pt x="527" y="870" on="1"/>
      </contour>
      <contour>
        <pt x="550" y="616" on="1"/>
        <pt x="275" y="616" on="1"/>
        <pt x="241" y="616" on="0"/>
        <pt x="209" y="584" on="0"/>
        <pt x="204" y="548" on="1"/>
        <pt x="183" y="398" on="1"/>
        <pt x="480" y="398" on="1"/>
        <pt x="471" y="330" on="1"/>
        <pt x="174" y="330" on="1"/>
        <pt x="148" y="139" on="1"/>
        <pt x="143" y="105" on="0"/>
        <pt x="169" y="74" on="0"/>
        <pt x="203" y="74" on="1"/>
        <pt x="473" y="74" on="1"/>
        <pt x="471" y="5" on="1"/>
        <pt x="383" y="-1" on="0"/>
        <pt x="192" y="-1" on="1"/>
        <pt x="117" y="-1" on="0"/>
        <pt x="49" y="72" on="0"/>
        <pt x="58" y="137" on="1"/>
        <pt x="119" y="573" on="1"/>
        <pt x="127" y="629" on="0"/>
        <pt x="201" y="691" on="0"/>
        <pt x="264" y="691" on="1"/>
        <pt x="470" y="691" on="0"/>
        <pt x="562" y="685" on="1"/>
      </contour>
    </TTGlyph>
    <TTGlyph name="Eng" xMin="45" yMin="-216" xMax="673" yMax="690">
      <contour>
        <pt x="673" y="690" on="1"/>
        <pt x="564" y="-81" on="1"/>
        <pt x="555" y="-147" on="0"/>
        <pt x="477" y="-217" on="0"/>
        <pt x="416" y="-216" on="1"/>
        <pt x="365" y="-216" on="0"/>
        <pt x="326" y="-203" on="1"/>
        <pt x="341" y="-148" on="1"/>
        <pt x="389" y="-148" on="1"/>
        <pt x="472" y="-148" on="0"/>
        <pt x="483" y="-71" on="1"/>
        <pt x="493" y="0" on="1"/>
        <pt x="466" y="0" on="1"/>
        <pt x="460" y="0" on="0"/>
        <pt x="450" y="8" on="0"/>
        <pt x="445" y="18" on="0"/>
        <pt x="441" y="27" on="1"/>
        <pt x="255" y="504" on="1"/>
        <pt x="239" y="543" on="0"/>
        <pt x="229" y="595" on="1"/>
        <pt x="213" y="595" on="1"/>
        <pt x="212" y="556" on="0"/>
        <pt x="203" y="502" on="1"/>
        <pt x="133" y="0" on="1"/>
        <pt x="45" y="0" on="1"/>
        <pt x="137" y="657" on="1"/>
        <pt x="143" y="690" on="0"/>
        <pt x="174" y="690" on="1"/>
        <pt x="242" y="690" on="1"/>
        <pt x="266" y="690" on="0"/>
        <pt x="279" y="660" on="1"/>
        <pt x="455" y="198" on="1"/>
        <pt x="468" y="166" on="0"/>
        <pt x="490" y="98" on="1"/>
        <pt x="506" y="98" on="1"/>
        <pt x="508" y="135" on="0"/>
        <pt x="516" y="202" on="1"/>
        <pt x="585" y="690" on="1"/>
      </contour>
    </TTGlyph>
    <TTGlyph name="Eogonek" xMin="58" yMin="-209" xMax="562" yMax="691">
      <contour>
        <pt x="550" y="616" on="1"/>
        <pt x="275" y="616" on="1"/>
        <pt x="241" y="616" on="0"/>
        <pt x="209" y="584" on="0"/>
        <pt x="204" y="548" on="1"/>
        <pt x="183" y="398" on="1"/>
        <pt x="480" y="398" on="1"/>
        <pt x="471" y="330" on="1"/>
        <pt x="174" y="330" on="1"/>
        <pt x="148" y="139" on="1"/>
        <pt x="143" y="105" on="0"/>
        <pt x="169" y="74" on="0"/>
        <pt x="203" y="74" on="1"/>
        <pt x="473" y="74" on="1"/>
        <pt x="471" y="5" on="1"/>
        <pt x="419" y="-49" on="0"/>
        <pt x="383" y="-112" on="1"/>
        <pt x="363" y="-147" on="0"/>
        <pt x="401" y="-168" on="0"/>
        <pt x="451" y="-152" on="1"/>
        <pt x="461" y="-189" on="1"/>
        <pt x="413" y="-208" on="0"/>
        <pt x="343" y="-209" on="0"/>
        <pt x="312" y="-181" on="0"/>
        <pt x="305" y="-136" on="0"/>
        <pt x="320" y="-109" on="1"/>
        <pt x="349" y="-52" on="0"/>
        <pt x="423" y="2" on="1"/>
        <pt x="348" y="-1" on="0"/>
        <pt x="192" y="-1" on="1"/>
        <pt x="117" y="-1" on="0"/>
        <pt x="49" y="72" on="0"/>
        <pt x="58" y="137" on="1"/>
        <pt x="119" y="573" on="1"/>
        <pt x="127" y="629" on="0"/>
        <pt x="201" y="691" on="0"/>
        <pt x="264" y="691" on="1"/>
        <pt x="470" y="691" on="0"/>
        <pt x="562" y="685" on="1"/>
      </contour>
    </TTGlyph>
    <TTGlyph name="Eth" xMin="27" yMin="-9" xMax="608" yMax="699">
      <contour>
        <pt x="100" y="391" on="1"/>
        <pt x="142" y="690" on="1"/>
        <pt x="264" y="699" on="0"/>
        <pt x="368" y="699" on="1"/>
        <pt x="528" y="699" on="0"/>
        <pt x="636" y="541" on="0"/>
        <pt x="608" y="342" on="1"/>
        <pt x="592" y="230" on="0"/>
        <pt x="544" y="92" on="0"/>
        <pt x="460" y="17" on="0"/>
        <pt x="357" y="-9" on="0"/>
        <pt x="274" y="-9" on="1"/>
        <pt x="176" y="-9" on="0"/>
        <pt x="45" y="0" on="1"/>
        <pt x="93" y="342" on="1"/>
        <pt x="27" y="342" on="1"/>
        <pt x="34" y="391" on="1"/>
      </contour>
      <contour>
        <pt x="181" y="342" on="1"/>
        <pt x="143" y="70" on="1"/>
        <pt x="233" y="68" on="0"/>
        <pt x="273" y="68" on="1"/>
        <pt x="335" y="68" on="0"/>
        <pt x="411" y="89" on="0"/>
        <pt x="470" y="152" on="0"/>
        <pt x="504" y="259" on="0"/>
        <pt x="517" y="348" on="1"/>
        <pt x="527" y="417" on="0"/>
        <pt x="528" y="510" on="0"/>
        <pt x="513" y="574" on="0"/>
        <pt x="471" y="609" on="0"/>
        <pt x="412" y="623" on="0"/>
        <pt x="320" y="623" on="0"/>
        <pt x="220" y="621" on="1"/>
        <pt x="188" y="391" on="1"/>
        <pt x="342" y="391" on="1"/>
        <pt x="336" y="342" on="1"/>
      </contour>
    </TTGlyph>
    <TTGlyph name="Euro" xMin="46" yMin="-12" xMax="626" yMax="702">
      <contour>
        <pt x="626" y="681" on="1"/>
        <pt x="612" y="614" on="1"/>
        <pt x="537" y="626" on="0"/>
        <pt x="460" y="623" on="1"/>
        <pt x="375" y="620" on="0"/>
        <pt x="277" y="537" on="0"/>
        <pt x="252" y="445" on="1"/>
        <pt x="507" y="445" on="1"/>
        <pt x="492" y="392" on="1"/>
        <pt x="240" y="392" on="1"/>
        <pt x="238" y="383" on="0"/>
        <pt x="231" y="340" on="1"/>
        <pt x="228" y="314" on="1"/>
        <pt x="454" y="314" on="1"/>
        <pt x="439" y="261" on="1"/>
        <pt x="223" y="261" on="1"/>
        <pt x="219" y="160" on="0"/>
        <pt x="289" y="69" on="0"/>
        <pt x="372" y="67" on="1"/>
        <pt x="462" y="64" on="0"/>
        <pt x="544" y="79" on="1"/>
        <pt x="548" y="10" on="1"/>
        <pt x="473" y="-12" on="0"/>
        <pt x="375" y="-12" on="1"/>
        <pt x="243" y="-12" on="0"/>
        <pt x="128" y="122" on="0"/>
        <pt x="133" y="261" on="1"/>
        <pt x="46" y="261" on="1"/>
        <pt x="54" y="314" on="1"/>
        <pt x="137" y="314" on="1"/>
        <pt x="141" y="348" on="1"/>
        <pt x="144" y="375" on="0"/>
        <pt x="148" y="392" on="1"/>
        <pt x="65" y="392" on="1"/>
        <pt x="73" y="445" on="1"/>
        <pt x="159" y="445" on="1"/>
        <pt x="192" y="577" on="0"/>
        <pt x="336" y="702" on="0"/>
        <pt x="466" y="702" on="1"/>
        <pt x="554" y="702" on="0"/>
      </contour>
    </TTGlyph>
    <TTGlyph name="F" xMin="43" yMin="0" xMax="556" yMax="691">
      <contour>
        <pt x="544" y="616" on="1"/>
        <pt x="287" y="616" on="1"/>
        <pt x="248" y="616" on="0"/>
        <pt x="213" y="587" on="0"/>
        <pt x="208" y="548" on="1"/>
        <pt x="185" y="387" on="1"/>
        <pt x="474" y="387" on="1"/>
        <pt x="464" y="319" on="1"/>
        <pt x="176" y="319" on="1"/>
        <pt x="131" y="0" on="1"/>
        <pt x="43" y="0" on="1"/>
        <pt x="122" y="569" on="1"/>
        <pt x="131" y="628" on="0"/>
        <pt x="206" y="691" on="0"/>
        <pt x="268" y="691" on="1"/>
        <pt x="468" y="691" on="0"/>
        <pt x="556" y="684" on="1"/>
      </contour>
    </TTGlyph>
    <TTGlyph name="G" xMin="68" yMin="-13" xMax="593" yMax="703">
      <contour>
        <pt x="593" y="681" on="1"/>
        <pt x="580" y="616" on="1"/>
        <pt x="496" y="624" on="0"/>
        <pt x="406" y="624" on="1"/>
        <pt x="343" y="624" on="0"/>
        <pt x="265" y="602" on="0"/>
        <pt x="205" y="538" on="0"/>
        <pt x="171" y="430" on="0"/>
        <pt x="160" y="342" on="1"/>
        <pt x="143" y="188" on="0"/>
        <pt x="189" y="65" on="0"/>
        <pt x="267" y="65" on="1"/>
        <pt x="317" y="65" on="0"/>
        <pt x="401" y="114" on="0"/>
        <pt x="456" y="168" on="1"/>
        <pt x="488" y="400" on="1"/>
        <pt x="573" y="400" on="1"/>
        <pt x="516" y="0" on="1"/>
        <pt x="453" y="0" on="1"/>
        <pt x="455" y="95" on="1"/>
        <pt x="361" y="-13" on="0"/>
        <pt x="238" y="-13" on="1"/>
        <pt x="129" y="-13" on="0"/>
        <pt x="47" y="160" on="0"/>
        <pt x="68" y="348" on="1"/>
        <pt x="82" y="455" on="0"/>
        <pt x="134" y="595" on="0"/>
        <pt x="219" y="673" on="0"/>
        <pt x="321" y="703" on="0"/>
        <pt x="395" y="703" on="1"/>
        <pt x="509" y="703" on="0"/>
      </contour>
    </TTGlyph>
    <TTGlyph name="Gbreve" xMin="68" yMin="-13" xMax="593" yMax="886">
      <contour>
        <pt x="516" y="886" on="1"/>
        <pt x="559" y="875" on="1"/>
        <pt x="554" y="817" on="0"/>
        <pt x="466" y="746" on="0"/>
        <pt x="397" y="746" on="1"/>
        <pt x="323" y="746" on="0"/>
        <pt x="248" y="820" on="0"/>
        <pt x="260" y="879" on="1"/>
        <pt x="304" y="882" on="1"/>
        <pt x="299" y="847" on="0"/>
        <pt x="348" y="809" on="0"/>
        <pt x="396" y="809" on="1"/>
        <pt x="448" y="809" on="0"/>
        <pt x="511" y="850" on="0"/>
      </contour>
      <contour>
        <pt x="593" y="681" on="1"/>
        <pt x="580" y="616" on="1"/>
        <pt x="496" y="624" on="0"/>
        <pt x="406" y="624" on="1"/>
        <pt x="343" y="624" on="0"/>
        <pt x="265" y="602" on="0"/>
        <pt x="205" y="538" on="0"/>
        <pt x="171" y="430" on="0"/>
        <pt x="160" y="342" on="1"/>
        <pt x="143" y="188" on="0"/>
        <pt x="189" y="65" on="0"/>
        <pt x="267" y="65" on="1"/>
        <pt x="317" y="65" on="0"/>
        <pt x="401" y="114" on="0"/>
        <pt x="456" y="168" on="1"/>
        <pt x="488" y="400" on="1"/>
        <pt x="573" y="400" on="1"/>
        <pt x="516" y="0" on="1"/>
        <pt x="453" y="0" on="1"/>
        <pt x="455" y="95" on="1"/>
        <pt x="361" y="-13" on="0"/>
        <pt x="238" y="-13" on="1"/>
        <pt x="129" y="-13" on="0"/>
        <pt x="47" y="160" on="0"/>
        <pt x="68" y="348" on="1"/>
        <pt x="82" y="455" on="0"/>
        <pt x="134" y="595" on="0"/>
        <pt x="219" y="673" on="0"/>
        <pt x="321" y="703" on="0"/>
        <pt x="395" y="703" on="1"/>
        <pt x="509" y="703" on="0"/>
      </contour>
    </TTGlyph>
    <TTGlyph name="Gcommaaccent" xMin="68" yMin="-274" xMax="593" yMax="703">
      <contour>
        <pt x="593" y="681" on="1"/>
        <pt x="580" y="616" on="1"/>
        <pt x="496" y="624" on="0"/>
        <pt x="406" y="624" on="1"/>
        <pt x="343" y="624" on="0"/>
        <pt x="265" y="602" on="0"/>
        <pt x="205" y="538" on="0"/>
        <pt x="171" y="430" on="0"/>
        <pt x="160" y="342" on="1"/>
        <pt x="143" y="188" on="0"/>
        <pt x="189" y="65" on="0"/>
        <pt x="267" y="65" on="1"/>
        <pt x="317" y="65" on="0"/>
        <pt x="401" y="114" on="0"/>
        <pt x="456" y="168" on="1"/>
        <pt x="488" y="400" on="1"/>
        <pt x="573" y="400" on="1"/>
        <pt x="516" y="0" on="1"/>
        <pt x="453" y="0" on="1"/>
        <pt x="455" y="95" on="1"/>
        <pt x="361" y="-13" on="0"/>
        <pt x="238" y="-13" on="1"/>
        <pt x="129" y="-13" on="0"/>
        <pt x="47" y="160" on="0"/>
        <pt x="68" y="348" on="1"/>
        <pt x="82" y="455" on="0"/>
        <pt x="134" y="595" on="0"/>
        <pt x="219" y="673" on="0"/>
        <pt x="321" y="703" on="0"/>
        <pt x="395" y="703" on="1"/>
        <pt x="509" y="703" on="0"/>
      </contour>
      <contour>
        <pt x="276" y="-58" on="1"/>
        <pt x="300" y="-58" on="1"/>
        <pt x="330" y="-58" on="0"/>
        <pt x="324" y="-87" on="1"/>
        <pt x="316" y="-142" on="1"/>
        <pt x="309" y="-198" on="0"/>
        <pt x="265" y="-274" on="1"/>
        <pt x="227" y="-261" on="1"/>
        <pt x="250" y="-194" on="0"/>
        <pt x="257" y="-158" on="1"/>
        <pt x="245" y="-159" on="0"/>
        <pt x="232" y="-146" on="0"/>
        <pt x="233" y="-135" on="1"/>
        <pt x="241" y="-84" on="1"/>
        <pt x="244" y="-69" on="0"/>
        <pt x="258" y="-58" on="0"/>
      </contour>
    </TTGlyph>
    <TTGlyph name="Gdotaccent" xMin="68" yMin="-13" xMax="593" yMax="867">
      <contour>
        <pt x="410" y="759" on="1"/>
        <pt x="383" y="759" on="1"/>
        <pt x="370" y="759" on="0"/>
        <pt x="357" y="774" on="0"/>
        <pt x="359" y="786" on="1"/>
        <pt x="366" y="843" on="1"/>
        <pt x="369" y="867" on="0"/>
        <pt x="393" y="867" on="1"/>
        <pt x="420" y="867" on="1"/>
        <pt x="433" y="867" on="0"/>
        <pt x="447" y="852" on="0"/>
        <pt x="445" y="840" on="1"/>
        <pt x="437" y="783" on="1"/>
        <pt x="434" y="759" on="0"/>
      </contour>
      <contour>
        <pt x="593" y="681" on="1"/>
        <pt x="580" y="616" on="1"/>
        <pt x="496" y="624" on="0"/>
        <pt x="406" y="624" on="1"/>
        <pt x="343" y="624" on="0"/>
        <pt x="265" y="602" on="0"/>
        <pt x="205" y="538" on="0"/>
        <pt x="171" y="430" on="0"/>
        <pt x="160" y="342" on="1"/>
        <pt x="143" y="188" on="0"/>
        <pt x="189" y="65" on="0"/>
        <pt x="267" y="65" on="1"/>
        <pt x="317" y="65" on="0"/>
        <pt x="401" y="114" on="0"/>
        <pt x="456" y="168" on="1"/>
        <pt x="488" y="400" on="1"/>
        <pt x="573" y="400" on="1"/>
        <pt x="516" y="0" on="1"/>
        <pt x="453" y="0" on="1"/>
        <pt x="455" y="95" on="1"/>
        <pt x="361" y="-13" on="0"/>
        <pt x="238" y="-13" on="1"/>
        <pt x="129" y="-13" on="0"/>
        <pt x="47" y="160" on="0"/>
        <pt x="68" y="348" on="1"/>
        <pt x="82" y="455" on="0"/>
        <pt x="134" y="595" on="0"/>
        <pt x="219" y="673" on="0"/>
        <pt x="321" y="703" on="0"/>
        <pt x="395" y="703" on="1"/>
        <pt x="509" y="703" on="0"/>
      </contour>
    </TTGlyph>
    <TTGlyph name="H" xMin="45" yMin="0" xMax="636" yMax="690">
      <contour>
        <pt x="636" y="690" on="1"/>
        <pt x="539" y="0" on="1"/>
        <pt x="452" y="0" on="1"/>
        <pt x="498" y="330" on="1"/>
        <pt x="180" y="330" on="1"/>
        <pt x="134" y="0" on="1"/>
        <pt x="45" y="0" on="1"/>
        <pt x="142" y="690" on="1"/>
        <pt x="231" y="690" on="1"/>
        <pt x="191" y="406" on="1"/>
        <pt x="509" y="406" on="1"/>
        <pt x="549" y="690" on="1"/>
      </contour>
    </TTGlyph>
    <TTGlyph name="Hbar" xMin="45" yMin="0" xMax="692" yMax="690">
      <contour>
        <pt x="686" y="519" on="1"/>
        <pt x="612" y="519" on="1"/>
        <pt x="539" y="0" on="1"/>
        <pt x="452" y="0" on="1"/>
        <pt x="498" y="330" on="1"/>
        <pt x="180" y="330" on="1"/>
        <pt x="134" y="0" on="1"/>
        <pt x="45" y="0" on="1"/>
        <pt x="118" y="519" on="1"/>
        <pt x="51" y="519" on="1"/>
        <pt x="58" y="566" on="1"/>
        <pt x="125" y="566" on="1"/>
        <pt x="142" y="690" on="1"/>
        <pt x="231" y="690" on="1"/>
        <pt x="213" y="566" on="1"/>
        <pt x="531" y="566" on="1"/>
        <pt x="549" y="690" on="1"/>
        <pt x="636" y="690" on="1"/>
        <pt x="619" y="566" on="1"/>
        <pt x="692" y="566" on="1"/>
      </contour>
      <contour>
        <pt x="525" y="519" on="1"/>
        <pt x="207" y="519" on="1"/>
        <pt x="191" y="406" on="1"/>
        <pt x="509" y="406" on="1"/>
      </contour>
    </TTGlyph>
    <TTGlyph name="I" xMin="45" yMin="0" xMax="231" yMax="690">
      <contour>
        <pt x="134" y="0" on="1"/>
        <pt x="45" y="0" on="1"/>
        <pt x="142" y="690" on="1"/>
        <pt x="231" y="690" on="1"/>
      </contour>
    </TTGlyph>
    <TTGlyph name="IJ" xMin="45" yMin="-9" xMax="573" yMax="690">
      <contour>
        <pt x="134" y="0" on="1"/>
        <pt x="45" y="0" on="1"/>
        <pt x="142" y="690" on="1"/>
        <pt x="231" y="690" on="1"/>
      </contour>
      <contour>
        <pt x="573" y="690" on="1"/>
        <pt x="495" y="143" on="1"/>
        <pt x="474" y="-9" on="0"/>
        <pt x="345" y="-9" on="1"/>
        <pt x="293" y="-9" on="0"/>
        <pt x="252" y="4" on="1"/>
        <pt x="269" y="66" on="1"/>
        <pt x="316" y="66" on="1"/>
        <pt x="397" y="66" on="0"/>
        <pt x="408" y="143" on="1"/>
        <pt x="484" y="690" on="1"/>
      </contour>
    </TTGlyph>
    <TTGlyph name="Iacute" xMin="45" yMin="0" xMax="363" yMax="914">
      <contour>
        <pt x="363" y="849" on="1"/>
        <pt x="157" y="728" on="1"/>
        <pt x="131" y="768" on="1"/>
        <pt x="322" y="914" on="1"/>
      </contour>
      <contour>
        <pt x="134" y="0" on="1"/>
        <pt x="45" y="0" on="1"/>
        <pt x="142" y="690" on="1"/>
        <pt x="231" y="690" on="1"/>
      </contour>
    </TTGlyph>
    <TTGlyph name="Icircumflex" xMin="34" yMin="0" xMax="367" yMax="896">
      <contour>
        <pt x="367" y="764" on="1"/>
        <pt x="335" y="730" on="1"/>
        <pt x="216" y="831" on="1"/>
        <pt x="208" y="831" on="1"/>
        <pt x="59" y="732" on="1"/>
        <pt x="34" y="769" on="1"/>
        <pt x="183" y="896" on="1"/>
        <pt x="243" y="896" on="1"/>
      </contour>
      <contour>
        <pt x="134" y="0" on="1"/>
        <pt x="45" y="0" on="1"/>
        <pt x="142" y="690" on="1"/>
        <pt x="231" y="690" on="1"/>
      </contour>
    </TTGlyph>
    <TTGlyph name="Idieresis" xMin="45" yMin="0" xMax="331" yMax="870">
      <contour>
        <pt x="114" y="870" on="1"/>
        <pt x="140" y="870" on="1"/>
        <pt x="154" y="870" on="0"/>
        <pt x="164" y="858" on="0"/>
        <pt x="162" y="845" on="1"/>
        <pt x="153" y="791" on="1"/>
        <pt x="152" y="767" on="0"/>
        <pt x="127" y="767" on="1"/>
        <pt x="99" y="767" on="1"/>
        <pt x="76" y="767" on="0"/>
        <pt x="77" y="790" on="1"/>
        <pt x="86" y="845" on="1"/>
        <pt x="90" y="870" on="0"/>
      </contour>
      <contour>
        <pt x="283" y="870" on="1"/>
        <pt x="309" y="870" on="1"/>
        <pt x="323" y="870" on="0"/>
        <pt x="333" y="858" on="0"/>
        <pt x="331" y="845" on="1"/>
        <pt x="322" y="791" on="1"/>
        <pt x="321" y="767" on="0"/>
        <pt x="296" y="767" on="1"/>
        <pt x="268" y="767" on="1"/>
        <pt x="245" y="767" on="0"/>
        <pt x="246" y="790" on="1"/>
        <pt x="255" y="845" on="1"/>
        <pt x="259" y="870" on="0"/>
      </contour>
      <contour>
        <pt x="134" y="0" on="1"/>
        <pt x="45" y="0" on="1"/>
        <pt x="142" y="690" on="1"/>
        <pt x="231" y="690" on="1"/>
      </contour>
    </TTGlyph>
    <TTGlyph name="Idotaccent" xMin="45" yMin="0" xMax="247" yMax="867">
      <contour>
        <pt x="195" y="867" on="1"/>
        <pt x="223" y="867" on="1"/>
        <pt x="235" y="867" on="0"/>
        <pt x="249" y="852" on="0"/>
        <pt x="247" y="840" on="1"/>
        <pt x="239" y="783" on="1"/>
        <pt x="236" y="759" on="0"/>
        <pt x="212" y="759" on="1"/>
        <pt x="185" y="759" on="1"/>
        <pt x="172" y="759" on="0"/>
        <pt x="159" y="774" on="0"/>
        <pt x="161" y="786" on="1"/>
        <pt x="168" y="843" on="1"/>
        <pt x="171" y="867" on="0"/>
      </contour>
      <contour>
        <pt x="134" y="0" on="1"/>
        <pt x="45" y="0" on="1"/>
        <pt x="142" y="690" on="1"/>
        <pt x="231" y="690" on="1"/>
      </contour>
    </TTGlyph>
    <TTGlyph name="Igrave" xMin="29" yMin="0" xMax="245" yMax="913">
      <contour>
        <pt x="245" y="766" on="1"/>
        <pt x="214" y="728" on="1"/>
        <pt x="29" y="853" on="1"/>
        <pt x="76" y="913" on="1"/>
      </contour>
      <contour>
        <pt x="134" y="0" on="1"/>
        <pt x="45" y="0" on="1"/>
        <pt x="142" y="690" on="1"/>
        <pt x="231" y="690" on="1"/>
      </contour>
    </TTGlyph>
    <TTGlyph name="Imacron" xMin="45" yMin="0" xMax="348" yMax="849">
      <contour>
        <pt x="339" y="786" on="1"/>
        <pt x="60" y="786" on="1"/>
        <pt x="69" y="849" on="1"/>
        <pt x="348" y="849" on="1"/>
      </contour>
      <contour>
        <pt x="134" y="0" on="1"/>
        <pt x="45" y="0" on="1"/>
        <pt x="142" y="690" on="1"/>
        <pt x="231" y="690" on="1"/>
      </contour>
    </TTGlyph>
    <TTGlyph name="Iogonek" xMin="-40" yMin="-213" xMax="231" yMax="690">
      <contour>
        <pt x="134" y="0" on="1"/>
        <pt x="123" y="0" on="1"/>
        <pt x="68" y="-58" on="0"/>
        <pt x="35" y="-117" on="1"/>
        <pt x="15" y="-152" on="0"/>
        <pt x="53" y="-173" on="0"/>
        <pt x="103" y="-157" on="1"/>
        <pt x="113" y="-194" on="1"/>
        <pt x="75" y="-209" on="0"/>
        <pt x="14" y="-216" on="0"/>
        <pt x="-22" y="-202" on="0"/>
        <pt x="-41" y="-174" on="0"/>
        <pt x="-38" y="-135" on="0"/>
        <pt x="-27" y="-114" on="1"/>
        <pt x="2" y="-57" on="0"/>
        <pt x="79" y="0" on="1"/>
        <pt x="45" y="0" on="1"/>
        <pt x="142" y="690" on="1"/>
        <pt x="231" y="690" on="1"/>
      </contour>
    </TTGlyph>
    <TTGlyph name="J" xMin="-9" yMin="-9" xMax="312" yMax="690">
      <contour>
        <pt x="312" y="690" on="1"/>
        <pt x="234" y="143" on="1"/>
        <pt x="224" y="68" on="0"/>
        <pt x="147" y="-9" on="0"/>
        <pt x="84" y="-9" on="1"/>
        <pt x="32" y="-9" on="0"/>
        <pt x="-9" y="4" on="1"/>
        <pt x="8" y="66" on="1"/>
        <pt x="55" y="66" on="1"/>
        <pt x="136" y="66" on="0"/>
        <pt x="147" y="143" on="1"/>
        <pt x="223" y="690" on="1"/>
      </contour>
    </TTGlyph>
    <TTGlyph name="K" xMin="45" yMin="0" xMax="618" yMax="690">
      <contour>
        <pt x="331" y="360" on="1"/>
        <pt x="331" y="356" on="1"/>
        <pt x="348" y="336" on="0"/>
        <pt x="364" y="306" on="1"/>
        <pt x="534" y="0" on="1"/>
        <pt x="434" y="0" on="1"/>
        <pt x="257" y="324" on="1"/>
        <pt x="172" y="324" on="1"/>
        <pt x="172" y="279" on="0"/>
        <pt x="167" y="249" on="1"/>
        <pt x="133" y="0" on="1"/>
        <pt x="45" y="0" on="1"/>
        <pt x="142" y="690" on="1"/>
        <pt x="230" y="690" on="1"/>
        <pt x="199" y="473" on="1"/>
        <pt x="193" y="433" on="0"/>
        <pt x="183" y="395" on="1"/>
        <pt x="264" y="395" on="1"/>
        <pt x="511" y="690" on="1"/>
        <pt x="618" y="690" on="1"/>
        <pt x="378" y="404" on="1"/>
        <pt x="351" y="373" on="0"/>
      </contour>
    </TTGlyph>
    <TTGlyph name="Kcommaaccent" xMin="45" yMin="-274" xMax="618" yMax="690">
      <contour>
        <pt x="331" y="360" on="1"/>
        <pt x="331" y="356" on="1"/>
        <pt x="348" y="336" on="0"/>
        <pt x="364" y="306" on="1"/>
        <pt x="534" y="0" on="1"/>
        <pt x="434" y="0" on="1"/>
        <pt x="257" y="324" on="1"/>
        <pt x="172" y="324" on="1"/>
        <pt x="172" y="279" on="0"/>
        <pt x="167" y="249" on="1"/>
        <pt x="133" y="0" on="1"/>
        <pt x="45" y="0" on="1"/>
        <pt x="142" y="690" on="1"/>
        <pt x="230" y="690" on="1"/>
        <pt x="199" y="473" on="1"/>
        <pt x="193" y="433" on="0"/>
        <pt x="183" y="395" on="1"/>
        <pt x="264" y="395" on="1"/>
        <pt x="511" y="690" on="1"/>
        <pt x="618" y="690" on="1"/>
        <pt x="378" y="404" on="1"/>
        <pt x="351" y="373" on="0"/>
      </contour>
      <contour>
        <pt x="262" y="-58" on="1"/>
        <pt x="285" y="-58" on="1"/>
        <pt x="314" y="-58" on="0"/>
        <pt x="310" y="-87" on="1"/>
        <pt x="302" y="-142" on="1"/>
        <pt x="294" y="-201" on="0"/>
        <pt x="251" y="-274" on="1"/>
        <pt x="213" y="-261" on="1"/>
        <pt x="234" y="-201" on="0"/>
        <pt x="242" y="-158" on="1"/>
        <pt x="230" y="-159" on="0"/>
        <pt x="217" y="-146" on="0"/>
        <pt x="219" y="-135" on="1"/>
        <pt x="227" y="-84" on="1"/>
        <pt x="230" y="-69" on="0"/>
        <pt x="244" y="-58" on="0"/>
      </contour>
    </TTGlyph>
    <TTGlyph name="L" xMin="64" yMin="-1" xMax="456" yMax="690">
      <contour>
        <pt x="228" y="690" on="1"/>
        <pt x="151" y="139" on="1"/>
        <pt x="141" y="74" on="0"/>
        <pt x="206" y="74" on="1"/>
        <pt x="456" y="74" on="1"/>
        <pt x="454" y="5" on="1"/>
        <pt x="367" y="-1" on="0"/>
        <pt x="187" y="-1" on="1"/>
        <pt x="121" y="-1" on="0"/>
        <pt x="54" y="73" on="0"/>
        <pt x="64" y="142" on="1"/>
        <pt x="139" y="690" on="1"/>
      </contour>
    </TTGlyph>
    <TTGlyph name="Lacute" xMin="64" yMin="-1" xMax="456" yMax="914">
      <contour>
        <pt x="362" y="849" on="1"/>
        <pt x="156" y="728" on="1"/>
        <pt x="129" y="768" on="1"/>
        <pt x="321" y="914" on="1"/>
      </contour>
      <contour>
        <pt x="228" y="690" on="1"/>
        <pt x="151" y="139" on="1"/>
        <pt x="141" y="74" on="0"/>
        <pt x="206" y="74" on="1"/>
        <pt x="456" y="74" on="1"/>
        <pt x="454" y="5" on="1"/>
        <pt x="367" y="-1" on="0"/>
        <pt x="187" y="-1" on="1"/>
        <pt x="121" y="-1" on="0"/>
        <pt x="54" y="73" on="0"/>
        <pt x="64" y="142" on="1"/>
        <pt x="139" y="690" on="1"/>
      </contour>
    </TTGlyph>
    <TTGlyph name="Lcaron" xMin="64" yMin="-1" xMax="456" yMax="690">
      <contour>
        <pt x="346" y="690" on="1"/>
        <pt x="370" y="690" on="1"/>
        <pt x="400" y="690" on="0"/>
        <pt x="394" y="662" on="1"/>
        <pt x="386" y="607" on="1"/>
        <pt x="377" y="546" on="0"/>
        <pt x="335" y="475" on="1"/>
        <pt x="297" y="488" on="1"/>
        <pt x="320" y="556" on="0"/>
        <pt x="327" y="591" on="1"/>
        <pt x="315" y="590" on="0"/>
        <pt x="302" y="603" on="0"/>
        <pt x="303" y="614" on="1"/>
        <pt x="311" y="665" on="1"/>
        <pt x="314" y="680" on="0"/>
        <pt x="328" y="690" on="0"/>
      </contour>
      <contour>
        <pt x="228" y="690" on="1"/>
        <pt x="151" y="139" on="1"/>
        <pt x="141" y="74" on="0"/>
        <pt x="206" y="74" on="1"/>
        <pt x="456" y="74" on="1"/>
        <pt x="454" y="5" on="1"/>
        <pt x="367" y="-1" on="0"/>
        <pt x="187" y="-1" on="1"/>
        <pt x="121" y="-1" on="0"/>
        <pt x="54" y="73" on="0"/>
        <pt x="64" y="142" on="1"/>
        <pt x="139" y="690" on="1"/>
      </contour>
    </TTGlyph>
    <TTGlyph name="Lcommaaccent" xMin="64" yMin="-276" xMax="456" yMax="690">
      <contour>
        <pt x="228" y="690" on="1"/>
        <pt x="151" y="139" on="1"/>
        <pt x="141" y="74" on="0"/>
        <pt x="206" y="74" on="1"/>
        <pt x="456" y="74" on="1"/>
        <pt x="454" y="5" on="1"/>
        <pt x="367" y="-1" on="0"/>
        <pt x="187" y="-1" on="1"/>
        <pt x="121" y="-1" on="0"/>
        <pt x="54" y="73" on="0"/>
        <pt x="64" y="142" on="1"/>
        <pt x="139" y="690" on="1"/>
      </contour>
      <contour>
        <pt x="251" y="-61" on="1"/>
        <pt x="275" y="-61" on="1"/>
        <pt x="305" y="-61" on="0"/>
        <pt x="299" y="-89" on="1"/>
        <pt x="291" y="-145" on="1"/>
        <pt x="285" y="-200" on="0"/>
        <pt x="241" y="-276" on="1"/>
        <pt x="202" y="-264" on="1"/>
        <pt x="225" y="-197" on="0"/>
        <pt x="232" y="-161" on="1"/>
        <pt x="220" y="-162" on="0"/>
        <pt x="207" y="-149" on="0"/>
        <pt x="208" y="-137" on="1"/>
        <pt x="216" y="-87" on="1"/>
        <pt x="219" y="-72" on="0"/>
        <pt x="233" y="-61" on="0"/>
      </contour>
    </TTGlyph>
    <TTGlyph name="Ldot" xMin="64" yMin="-1" xMax="456" yMax="690">
      <contour>
        <pt x="228" y="690" on="1"/>
        <pt x="151" y="139" on="1"/>
        <pt x="141" y="74" on="0"/>
        <pt x="206" y="74" on="1"/>
        <pt x="456" y="74" on="1"/>
        <pt x="454" y="5" on="1"/>
        <pt x="367" y="-1" on="0"/>
        <pt x="187" y="-1" on="1"/>
        <pt x="121" y="-1" on="0"/>
        <pt x="54" y="73" on="0"/>
        <pt x="64" y="142" on="1"/>
        <pt x="139" y="690" on="1"/>
      </contour>
      <contour>
        <pt x="397" y="338" on="1"/>
        <pt x="369" y="338" on="1"/>
        <pt x="356" y="338" on="0"/>
        <pt x="343" y="353" on="0"/>
        <pt x="345" y="366" on="1"/>
        <pt x="353" y="422" on="1"/>
        <pt x="356" y="447" on="0"/>
        <pt x="380" y="447" on="1"/>
        <pt x="407" y="447" on="1"/>
        <pt x="434" y="447" on="0"/>
        <pt x="431" y="419" on="1"/>
        <pt x="424" y="363" on="1"/>
        <pt x="420" y="338" on="0"/>
      </contour>
    </TTGlyph>
    <TTGlyph name="Lslash" xMin="22" yMin="-1" xMax="456" yMax="690">
      <contour>
        <pt x="456" y="74" on="1"/>
        <pt x="453" y="5" on="1"/>
        <pt x="366" y="-1" on="0"/>
        <pt x="186" y="-1" on="1"/>
        <pt x="121" y="-1" on="0"/>
        <pt x="53" y="73" on="0"/>
        <pt x="63" y="142" on="1"/>
        <pt x="89" y="332" on="1"/>
        <pt x="22" y="305" on="1"/>
        <pt x="27" y="359" on="1"/>
        <pt x="97" y="387" on="1"/>
        <pt x="138" y="690" on="1"/>
        <pt x="227" y="690" on="1"/>
        <pt x="190" y="423" on="1"/>
        <pt x="317" y="473" on="1"/>
        <pt x="311" y="420" on="1"/>
        <pt x="182" y="369" on="1"/>
        <pt x="150" y="139" on="1"/>
        <pt x="142" y="74" on="0"/>
        <pt x="205" y="74" on="1"/>
      </contour>
    </TTGlyph>
    <TTGlyph name="M" xMin="32" yMin="0" xMax="825" yMax="690">
      <contour>
        <pt x="693" y="690" on="1"/>
        <pt x="791" y="690" on="1"/>
        <pt x="828" y="690" on="0"/>
        <pt x="825" y="651" on="1"/>
        <pt x="762" y="0" on="1"/>
        <pt x="674" y="0" on="1"/>
        <pt x="738" y="617" on="1"/>
        <pt x="718" y="617" on="1"/>
        <pt x="493" y="107" on="1"/>
        <pt x="481" y="78" on="0"/>
        <pt x="452" y="78" on="1"/>
        <pt x="373" y="78" on="1"/>
        <pt x="342" y="78" on="0"/>
        <pt x="336" y="110" on="1"/>
        <pt x="249" y="617" on="1"/>
        <pt x="229" y="617" on="1"/>
        <pt x="119" y="0" on="1"/>
        <pt x="32" y="0" on="1"/>
        <pt x="151" y="655" on="1"/>
        <pt x="157" y="690" on="0"/>
        <pt x="190" y="690" on="1"/>
        <pt x="287" y="690" on="1"/>
        <pt x="315" y="690" on="0"/>
        <pt x="320" y="658" on="1"/>
        <pt x="394" y="238" on="1"/>
        <pt x="397" y="223" on="0"/>
        <pt x="407" y="144" on="1"/>
        <pt x="426" y="144" on="1"/>
        <pt x="439" y="177" on="0"/>
        <pt x="465" y="237" on="1"/>
        <pt x="652" y="661" on="1"/>
        <pt x="664" y="689" on="0"/>
      </contour>
    </TTGlyph>
    <TTGlyph name="N" xMin="45" yMin="0" xMax="673" yMax="690">
      <contour>
        <pt x="673" y="690" on="1"/>
        <pt x="580" y="33" on="1"/>
        <pt x="576" y="0" on="0"/>
        <pt x="545" y="0" on="1"/>
        <pt x="465" y="0" on="1"/>
        <pt x="440" y="0" on="0"/>
        <pt x="429" y="30" on="1"/>
        <pt x="256" y="519" on="1"/>
        <pt x="236" y="573" on="0"/>
        <pt x="229" y="608" on="1"/>
        <pt x="212" y="608" on="1"/>
        <pt x="211" y="567" on="0"/>
        <pt x="204" y="517" on="1"/>
        <pt x="133" y="0" on="1"/>
        <pt x="45" y="0" on="1"/>
        <pt x="137" y="657" on="1"/>
        <pt x="143" y="690" on="0"/>
        <pt x="174" y="690" on="1"/>
        <pt x="252" y="690" on="1"/>
        <pt x="277" y="690" on="0"/>
        <pt x="288" y="660" on="1"/>
        <pt x="456" y="184" on="1"/>
        <pt x="479" y="118" on="0"/>
        <pt x="488" y="84" on="1"/>
        <pt x="507" y="84" on="1"/>
        <pt x="510" y="139" on="0"/>
        <pt x="517" y="185" on="1"/>
        <pt x="586" y="690" on="1"/>
      </contour>
    </TTGlyph>
    <TTGlyph name="Nacute" xMin="45" yMin="0" xMax="673" yMax="914">
      <contour>
        <pt x="592" y="849" on="1"/>
        <pt x="386" y="728" on="1"/>
        <pt x="359" y="768" on="1"/>
        <pt x="551" y="914" on="1"/>
      </contour>
      <contour>
        <pt x="673" y="690" on="1"/>
        <pt x="580" y="33" on="1"/>
        <pt x="576" y="0" on="0"/>
        <pt x="545" y="0" on="1"/>
        <pt x="465" y="0" on="1"/>
        <pt x="440" y="0" on="0"/>
        <pt x="429" y="30" on="1"/>
        <pt x="256" y="519" on="1"/>
        <pt x="236" y="573" on="0"/>
        <pt x="229" y="608" on="1"/>
        <pt x="212" y="608" on="1"/>
        <pt x="211" y="567" on="0"/>
        <pt x="204" y="517" on="1"/>
        <pt x="133" y="0" on="1"/>
        <pt x="45" y="0" on="1"/>
        <pt x="137" y="657" on="1"/>
        <pt x="143" y="690" on="0"/>
        <pt x="174" y="690" on="1"/>
        <pt x="252" y="690" on="1"/>
        <pt x="277" y="690" on="0"/>
        <pt x="288" y="660" on="1"/>
        <pt x="456" y="184" on="1"/>
        <pt x="479" y="118" on="0"/>
        <pt x="488" y="84" on="1"/>
        <pt x="507" y="84" on="1"/>
        <pt x="510" y="139" on="0"/>
        <pt x="517" y="185" on="1"/>
        <pt x="586" y="690" on="1"/>
      </contour>
    </TTGlyph>
    <TTGlyph name="Ncaron" xMin="45" yMin="0" xMax="673" yMax="908">
      <contour>
        <pt x="605" y="871" on="1"/>
        <pt x="455" y="744" on="1"/>
        <pt x="394" y="744" on="1"/>
        <pt x="277" y="876" on="1"/>
        <pt x="311" y="908" on="1"/>
        <pt x="424" y="808" on="1"/>
        <pt x="432" y="808" on="1"/>
        <pt x="579" y="908" on="1"/>
      </contour>
      <contour>
        <pt x="673" y="690" on="1"/>
        <pt x="580" y="33" on="1"/>
        <pt x="576" y="0" on="0"/>
        <pt x="545" y="0" on="1"/>
        <pt x="465" y="0" on="1"/>
        <pt x="440" y="0" on="0"/>
        <pt x="429" y="30" on="1"/>
        <pt x="256" y="519" on="1"/>
        <pt x="236" y="573" on="0"/>
        <pt x="229" y="608" on="1"/>
        <pt x="212" y="608" on="1"/>
        <pt x="211" y="567" on="0"/>
        <pt x="204" y="517" on="1"/>
        <pt x="133" y="0" on="1"/>
        <pt x="45" y="0" on="1"/>
        <pt x="137" y="657" on="1"/>
        <pt x="143" y="690" on="0"/>
        <pt x="174" y="690" on="1"/>
        <pt x="252" y="690" on="1"/>
        <pt x="277" y="690" on="0"/>
        <pt x="288" y="660" on="1"/>
        <pt x="456" y="184" on="1"/>
        <pt x="479" y="118" on="0"/>
        <pt x="488" y="84" on="1"/>
        <pt x="507" y="84" on="1"/>
        <pt x="510" y="139" on="0"/>
        <pt x="517" y="185" on="1"/>
        <pt x="586" y="690" on="1"/>
      </contour>
    </TTGlyph>
    <TTGlyph name="Ncommaaccent" xMin="45" yMin="-274" xMax="673" yMax="690">
      <contour>
        <pt x="673" y="690" on="1"/>
        <pt x="580" y="33" on="1"/>
        <pt x="576" y="0" on="0"/>
        <pt x="545" y="0" on="1"/>
        <pt x="465" y="0" on="1"/>
        <pt x="440" y="0" on="0"/>
        <pt x="429" y="30" on="1"/>
        <pt x="256" y="519" on="1"/>
        <pt x="236" y="573" on="0"/>
        <pt x="229" y="608" on="1"/>
        <pt x="212" y="608" on="1"/>
        <pt x="211" y="567" on="0"/>
        <pt x="204" y="517" on="1"/>
        <pt x="133" y="0" on="1"/>
        <pt x="45" y="0" on="1"/>
        <pt x="137" y="657" on="1"/>
        <pt x="143" y="690" on="0"/>
        <pt x="174" y="690" on="1"/>
        <pt x="252" y="690" on="1"/>
        <pt x="277" y="690" on="0"/>
        <pt x="288" y="660" on="1"/>
        <pt x="456" y="184" on="1"/>
        <pt x="479" y="118" on="0"/>
        <pt x="488" y="84" on="1"/>
        <pt x="507" y="84" on="1"/>
        <pt x="510" y="139" on="0"/>
        <pt x="517" y="185" on="1"/>
        <pt x="586" y="690" on="1"/>
      </contour>
      <contour>
        <pt x="311" y="-58" on="1"/>
        <pt x="335" y="-58" on="1"/>
        <pt x="365" y="-58" on="0"/>
        <pt x="359" y="-87" on="1"/>
        <pt x="352" y="-142" on="1"/>
        <pt x="344" y="-201" on="0"/>
        <pt x="301" y="-274" on="1"/>
        <pt x="263" y="-261" on="1"/>
        <pt x="286" y="-186" on="0"/>
        <pt x="292" y="-158" on="1"/>
        <pt x="280" y="-159" on="0"/>
        <pt x="267" y="-146" on="0"/>
        <pt x="269" y="-135" on="1"/>
        <pt x="276" y="-84" on="1"/>
        <pt x="280" y="-69" on="0"/>
        <pt x="293" y="-58" on="0"/>
      </contour>
    </TTGlyph>
    <TTGlyph name="Ntilde" xMin="45" yMin="0" xMax="673" yMax="880">
      <contour>
        <pt x="307" y="764" on="1"/>
        <pt x="267" y="767" on="1"/>
        <pt x="270" y="825" on="0"/>
        <pt x="320" y="883" on="0"/>
        <pt x="357" y="880" on="1"/>
        <pt x="390" y="877" on="0"/>
        <pt x="473" y="827" on="0"/>
        <pt x="498" y="824" on="1"/>
        <pt x="527" y="821" on="0"/>
        <pt x="555" y="847" on="0"/>
        <pt x="559" y="877" on="1"/>
        <pt x="598" y="873" on="1"/>
        <pt x="597" y="818" on="0"/>
        <pt x="548" y="760" on="0"/>
        <pt x="510" y="763" on="1"/>
        <pt x="471" y="766" on="0"/>
        <pt x="385" y="817" on="0"/>
        <pt x="367" y="820" on="1"/>
        <pt x="339" y="823" on="0"/>
        <pt x="311" y="795" on="0"/>
      </contour>
      <contour>
        <pt x="673" y="690" on="1"/>
        <pt x="580" y="33" on="1"/>
        <pt x="576" y="0" on="0"/>
        <pt x="545" y="0" on="1"/>
        <pt x="465" y="0" on="1"/>
        <pt x="440" y="0" on="0"/>
        <pt x="429" y="30" on="1"/>
        <pt x="256" y="519" on="1"/>
        <pt x="236" y="573" on="0"/>
        <pt x="229" y="608" on="1"/>
        <pt x="212" y="608" on="1"/>
        <pt x="211" y="567" on="0"/>
        <pt x="204" y="517" on="1"/>
        <pt x="133" y="0" on="1"/>
        <pt x="45" y="0" on="1"/>
        <pt x="137" y="657" on="1"/>
        <pt x="143" y="690" on="0"/>
        <pt x="174" y="690" on="1"/>
        <pt x="252" y="690" on="1"/>
        <pt x="277" y="690" on="0"/>
        <pt x="288" y="660" on="1"/>
        <pt x="456" y="184" on="1"/>
        <pt x="479" y="118" on="0"/>
        <pt x="488" y="84" on="1"/>
        <pt x="507" y="84" on="1"/>
        <pt x="510" y="139" on="0"/>
        <pt x="517" y="185" on="1"/>
        <pt x="586" y="690" on="1"/>
      </contour>
    </TTGlyph>
    <TTGlyph name="O" xMin="68" yMin="-13" xMax="612" yMax="703">
      <contour>
        <pt x="387" y="703" on="1"/>
        <pt x="532" y="703" on="0"/>
        <pt x="640" y="538" on="0"/>
        <pt x="612" y="342" on="1"/>
        <pt x="585" y="143" on="0"/>
        <pt x="445" y="-13" on="0"/>
        <pt x="297" y="-13" on="1"/>
        <pt x="151" y="-13" on="0"/>
        <pt x="41" y="150" on="0"/>
        <pt x="68" y="348" on="1"/>
        <pt x="95" y="544" on="0"/>
        <pt x="236" y="703" on="0"/>
      </contour>
      <contour>
        <pt x="382" y="624" on="1"/>
        <pt x="277" y="624" on="0"/>
        <pt x="182" y="504" on="0"/>
        <pt x="160" y="342" on="1"/>
        <pt x="138" y="185" on="0"/>
        <pt x="197" y="66" on="0"/>
        <pt x="299" y="66" on="1"/>
        <pt x="402" y="66" on="0"/>
        <pt x="498" y="188" on="0"/>
        <pt x="544" y="508" on="0"/>
        <pt x="485" y="624" on="0"/>
      </contour>
    </TTGlyph>
    <TTGlyph name="OE" xMin="69" yMin="-13" xMax="922" yMax="703">
      <contour>
        <pt x="911" y="616" on="1"/>
        <pt x="642" y="616" on="1"/>
        <pt x="578" y="616" on="0"/>
        <pt x="570" y="548" on="1"/>
        <pt x="549" y="398" on="1"/>
        <pt x="841" y="398" on="1"/>
        <pt x="832" y="329" on="1"/>
        <pt x="540" y="329" on="1"/>
        <pt x="514" y="139" on="1"/>
        <pt x="509" y="104" on="0"/>
        <pt x="535" y="74" on="0"/>
        <pt x="569" y="74" on="1"/>
        <pt x="835" y="74" on="1"/>
        <pt x="832" y="5" on="1"/>
        <pt x="746" y="-1" on="0"/>
        <pt x="558" y="-1" on="1"/>
        <pt x="499" y="-1" on="0"/>
        <pt x="465" y="22" on="1"/>
        <pt x="387" y="-13" on="0"/>
        <pt x="298" y="-13" on="1"/>
        <pt x="142" y="-13" on="0"/>
        <pt x="40" y="145" on="0"/>
        <pt x="69" y="348" on="1"/>
        <pt x="97" y="549" on="0"/>
        <pt x="236" y="703" on="0"/>
        <pt x="388" y="703" on="1"/>
        <pt x="477" y="703" on="0"/>
        <pt x="549" y="672" on="1"/>
        <pt x="581" y="691" on="0"/>
        <pt x="631" y="691" on="1"/>
        <pt x="833" y="691" on="0"/>
        <pt x="922" y="685" on="1"/>
      </contour>
      <contour>
        <pt x="425" y="137" on="1"/>
        <pt x="485" y="573" on="1"/>
        <pt x="487" y="587" on="0"/>
        <pt x="495" y="611" on="1"/>
        <pt x="445" y="624" on="0"/>
        <pt x="387" y="624" on="1"/>
        <pt x="281" y="624" on="0"/>
        <pt x="182" y="503" on="0"/>
        <pt x="160" y="342" on="1"/>
        <pt x="137" y="185" on="0"/>
        <pt x="197" y="66" on="0"/>
        <pt x="300" y="66" on="1"/>
        <pt x="368" y="66" on="0"/>
        <pt x="425" y="83" on="1"/>
        <pt x="420" y="107" on="0"/>
      </contour>
    </TTGlyph>
    <TTGlyph name="Oacute" xMin="68" yMin="-13" xMax="612" yMax="914">
      <contour>
        <pt x="567" y="849" on="1"/>
        <pt x="361" y="728" on="1"/>
        <pt x="334" y="768" on="1"/>
        <pt x="526" y="914" on="1"/>
      </contour>
      <contour>
        <pt x="387" y="703" on="1"/>
        <pt x="532" y="703" on="0"/>
        <pt x="640" y="538" on="0"/>
        <pt x="612" y="342" on="1"/>
        <pt x="585" y="143" on="0"/>
        <pt x="445" y="-13" on="0"/>
        <pt x="297" y="-13" on="1"/>
        <pt x="151" y="-13" on="0"/>
        <pt x="41" y="150" on="0"/>
        <pt x="68" y="348" on="1"/>
        <pt x="95" y="544" on="0"/>
        <pt x="236" y="703" on="0"/>
      </contour>
      <contour>
        <pt x="382" y="624" on="1"/>
        <pt x="277" y="624" on="0"/>
        <pt x="182" y="504" on="0"/>
        <pt x="160" y="342" on="1"/>
        <pt x="138" y="185" on="0"/>
        <pt x="197" y="66" on="0"/>
        <pt x="299" y="66" on="1"/>
        <pt x="402" y="66" on="0"/>
        <pt x="498" y="188" on="0"/>
        <pt x="544" y="508" on="0"/>
        <pt x="485" y="624" on="0"/>
      </contour>
    </TTGlyph>
    <TTGlyph name="Ocircumflex" xMin="68" yMin="-13" xMax="612" yMax="896">
      <contour>
        <pt x="570" y="764" on="1"/>
        <pt x="539" y="730" on="1"/>
        <pt x="419" y="831" on="1"/>
        <pt x="411" y="831" on="1"/>
        <pt x="262" y="732" on="1"/>
        <pt x="238" y="769" on="1"/>
        <pt x="386" y="896" on="1"/>
        <pt x="446" y="896" on="1"/>
      </contour>
      <contour>
        <pt x="387" y="703" on="1"/>
        <pt x="532" y="703" on="0"/>
        <pt x="640" y="538" on="0"/>
        <pt x="612" y="342" on="1"/>
        <pt x="585" y="143" on="0"/>
        <pt x="445" y="-13" on="0"/>
        <pt x="297" y="-13" on="1"/>
        <pt x="151" y="-13" on="0"/>
        <pt x="41" y="150" on="0"/>
        <pt x="68" y="348" on="1"/>
        <pt x="95" y="544" on="0"/>
        <pt x="236" y="703" on="0"/>
      </contour>
      <contour>
        <pt x="382" y="624" on="1"/>
        <pt x="277" y="624" on="0"/>
        <pt x="182" y="504" on="0"/>
        <pt x="160" y="342" on="1"/>
        <pt x="138" y="185" on="0"/>
        <pt x="197" y="66" on="0"/>
        <pt x="299" y="66" on="1"/>
        <pt x="402" y="66" on="0"/>
        <pt x="498" y="188" on="0"/>
        <pt x="544" y="508" on="0"/>
        <pt x="485" y="624" on="0"/>
      </contour>
    </TTGlyph>
    <TTGlyph name="Odieresis" xMin="68" yMin="-13" xMax="612" yMax="870">
      <contour>
        <pt x="318" y="870" on="1"/>
        <pt x="343" y="870" on="1"/>
        <pt x="369" y="870" on="0"/>
        <pt x="366" y="845" on="1"/>
        <pt x="357" y="791" on="1"/>
        <pt x="354" y="767" on="0"/>
        <pt x="331" y="767" on="1"/>
        <pt x="303" y="767" on="1"/>
        <pt x="278" y="767" on="0"/>
        <pt x="281" y="790" on="1"/>
        <pt x="290" y="845" on="1"/>
        <pt x="293" y="870" on="0"/>
      </contour>
      <contour>
        <pt x="487" y="870" on="1"/>
        <pt x="512" y="870" on="1"/>
        <pt x="538" y="870" on="0"/>
        <pt x="535" y="845" on="1"/>
        <pt x="526" y="791" on="1"/>
        <pt x="523" y="767" on="0"/>
        <pt x="500" y="767" on="1"/>
        <pt x="471" y="767" on="1"/>
        <pt x="447" y="767" on="0"/>
        <pt x="450" y="790" on="1"/>
        <pt x="459" y="845" on="1"/>
        <pt x="462" y="870" on="0"/>
      </contour>
      <contour>
        <pt x="387" y="703" on="1"/>
        <pt x="532" y="703" on="0"/>
        <pt x="640" y="538" on="0"/>
        <pt x="612" y="342" on="1"/>
        <pt x="585" y="143" on="0"/>
        <pt x="445" y="-13" on="0"/>
        <pt x="297" y="-13" on="1"/>
        <pt x="151" y="-13" on="0"/>
        <pt x="41" y="150" on="0"/>
        <pt x="68" y="348" on="1"/>
        <pt x="95" y="544" on="0"/>
        <pt x="236" y="703" on="0"/>
      </contour>
      <contour>
        <pt x="382" y="624" on="1"/>
        <pt x="277" y="624" on="0"/>
        <pt x="182" y="504" on="0"/>
        <pt x="160" y="342" on="1"/>
        <pt x="138" y="185" on="0"/>
        <pt x="197" y="66" on="0"/>
        <pt x="299" y="66" on="1"/>
        <pt x="402" y="66" on="0"/>
        <pt x="498" y="188" on="0"/>
        <pt x="544" y="508" on="0"/>
        <pt x="485" y="624" on="0"/>
      </contour>
    </TTGlyph>
    <TTGlyph name="Ograve" xMin="68" yMin="-13" xMax="612" yMax="913">
      <contour>
        <pt x="448" y="766" on="1"/>
        <pt x="417" y="728" on="1"/>
        <pt x="232" y="853" on="1"/>
        <pt x="279" y="913" on="1"/>
      </contour>
      <contour>
        <pt x="387" y="703" on="1"/>
        <pt x="532" y="703" on="0"/>
        <pt x="640" y="538" on="0"/>
        <pt x="612" y="342" on="1"/>
        <pt x="585" y="143" on="0"/>
        <pt x="445" y="-13" on="0"/>
        <pt x="297" y="-13" on="1"/>
        <pt x="151" y="-13" on="0"/>
        <pt x="41" y="150" on="0"/>
        <pt x="68" y="348" on="1"/>
        <pt x="95" y="544" on="0"/>
        <pt x="236" y="703" on="0"/>
      </contour>
      <contour>
        <pt x="382" y="624" on="1"/>
        <pt x="277" y="624" on="0"/>
        <pt x="182" y="504" on="0"/>
        <pt x="160" y="342" on="1"/>
        <pt x="138" y="185" on="0"/>
        <pt x="197" y="66" on="0"/>
        <pt x="299" y="66" on="1"/>
        <pt x="402" y="66" on="0"/>
        <pt x="498" y="188" on="0"/>
        <pt x="544" y="508" on="0"/>
        <pt x="485" y="624" on="0"/>
      </contour>
    </TTGlyph>
    <TTGlyph name="Ohungarumlaut" xMin="68" yMin="-13" xMax="622" yMax="919">
      <contour>
        <pt x="458" y="881" on="1"/>
        <pt x="302" y="722" on="1"/>
        <pt x="267" y="751" on="1"/>
        <pt x="405" y="919" on="1"/>
      </contour>
      <contour>
        <pt x="622" y="881" on="1"/>
        <pt x="466" y="722" on="1"/>
        <pt x="431" y="751" on="1"/>
        <pt x="569" y="919" on="1"/>
      </contour>
      <contour>
        <pt x="387" y="703" on="1"/>
        <pt x="532" y="703" on="0"/>
        <pt x="640" y="538" on="0"/>
        <pt x="612" y="342" on="1"/>
        <pt x="585" y="143" on="0"/>
        <pt x="445" y="-13" on="0"/>
        <pt x="297" y="-13" on="1"/>
        <pt x="151" y="-13" on="0"/>
        <pt x="41" y="150" on="0"/>
        <pt x="68" y="348" on="1"/>
        <pt x="95" y="544" on="0"/>
        <pt x="236" y="703" on="0"/>
      </contour>
      <contour>
        <pt x="382" y="624" on="1"/>
        <pt x="277" y="624" on="0"/>
        <pt x="182" y="504" on="0"/>
        <pt x="160" y="342" on="1"/>
        <pt x="138" y="185" on="0"/>
        <pt x="197" y="66" on="0"/>
        <pt x="299" y="66" on="1"/>
        <pt x="402" y="66" on="0"/>
        <pt x="498" y="188" on="0"/>
        <pt x="544" y="508" on="0"/>
        <pt x="485" y="624" on="0"/>
      </contour>
    </TTGlyph>
    <TTGlyph name="Omacron" xMin="68" yMin="-13" xMax="612" yMax="849">
      <contour>
        <pt x="542" y="786" on="1"/>
        <pt x="263" y="786" on="1"/>
        <pt x="272" y="849" on="1"/>
        <pt x="551" y="849" on="1"/>
      </contour>
      <contour>
        <pt x="387" y="703" on="1"/>
        <pt x="532" y="703" on="0"/>
        <pt x="640" y="538" on="0"/>
        <pt x="612" y="342" on="1"/>
        <pt x="585" y="143" on="0"/>
        <pt x="445" y="-13" on="0"/>
        <pt x="297" y="-13" on="1"/>
        <pt x="151" y="-13" on="0"/>
        <pt x="41" y="150" on="0"/>
        <pt x="68" y="348" on="1"/>
        <pt x="95" y="544" on="0"/>
        <pt x="236" y="703" on="0"/>
      </contour>
      <contour>
        <pt x="382" y="624" on="1"/>
        <pt x="277" y="624" on="0"/>
        <pt x="182" y="504" on="0"/>
        <pt x="160" y="342" on="1"/>
        <pt x="138" y="185" on="0"/>
        <pt x="197" y="66" on="0"/>
        <pt x="299" y="66" on="1"/>
        <pt x="402" y="66" on="0"/>
        <pt x="498" y="188" on="0"/>
        <pt x="544" y="508" on="0"/>
        <pt x="485" y="624" on="0"/>
      </contour>
    </TTGlyph>
    <TTGlyph name="Omega" xMin="10" yMin="0" xMax="651" yMax="703">
      <contour>
        <pt x="21" y="77" on="1"/>
        <pt x="123" y="77" on="1"/>
        <pt x="159" y="77" on="0"/>
        <pt x="189" y="72" on="1"/>
        <pt x="125" y="131" on="0"/>
        <pt x="73" y="276" on="0"/>
        <pt x="88" y="377" on="1"/>
        <pt x="110" y="542" on="0"/>
        <pt x="264" y="703" on="0"/>
        <pt x="411" y="703" on="1"/>
        <pt x="698" y="703" on="0"/>
        <pt x="651" y="368" on="1"/>
        <pt x="635" y="259" on="0"/>
        <pt x="551" y="127" on="0"/>
        <pt x="464" y="71" on="1"/>
        <pt x="490" y="77" on="0"/>
        <pt x="528" y="77" on="1"/>
        <pt x="634" y="77" on="1"/>
        <pt x="624" y="0" on="1"/>
        <pt x="374" y="0" on="1"/>
        <pt x="382" y="75" on="1"/>
        <pt x="465" y="128" on="0"/>
        <pt x="544" y="259" on="0"/>
        <pt x="558" y="364" on="1"/>
        <pt x="578" y="504" on="0"/>
        <pt x="509" y="625" on="0"/>
        <pt x="408" y="625" on="1"/>
        <pt x="303" y="625" on="0"/>
        <pt x="197" y="500" on="0"/>
        <pt x="177" y="356" on="1"/>
        <pt x="162" y="248" on="0"/>
        <pt x="204" y="129" on="0"/>
        <pt x="270" y="73" on="1"/>
        <pt x="260" y="0" on="1"/>
        <pt x="10" y="0" on="1"/>
      </contour>
    </TTGlyph>
    <TTGlyph name="Oslash" xMin="68" yMin="-60" xMax="612" yMax="753">
      <contour>
        <pt x="602" y="729" on="1"/>
        <pt x="557" y="655" on="1"/>
        <pt x="646" y="578" on="0"/>
        <pt x="612" y="342" on="1"/>
        <pt x="585" y="143" on="0"/>
        <pt x="445" y="-13" on="0"/>
        <pt x="297" y="-13" on="1"/>
        <pt x="215" y="-13" on="0"/>
        <pt x="165" y="10" on="1"/>
        <pt x="123" y="-60" on="1"/>
        <pt x="82" y="-35" on="1"/>
        <pt x="125" y="36" on="1"/>
        <pt x="36" y="113" on="0"/>
        <pt x="68" y="348" on="1"/>
        <pt x="95" y="544" on="0"/>
        <pt x="236" y="703" on="0"/>
        <pt x="387" y="703" on="1"/>
        <pt x="467" y="703" on="0"/>
        <pt x="516" y="680" on="1"/>
        <pt x="560" y="753" on="1"/>
      </contour>
      <contour>
        <pt x="173" y="116" on="1"/>
        <pt x="472" y="608" on="1"/>
        <pt x="443" y="624" on="0"/>
        <pt x="382" y="624" on="1"/>
        <pt x="277" y="624" on="0"/>
        <pt x="182" y="504" on="0"/>
        <pt x="160" y="342" on="1"/>
        <pt x="136" y="173" on="0"/>
      </contour>
      <contour>
        <pt x="509" y="576" on="1"/>
        <pt x="209" y="83" on="1"/>
        <pt x="242" y="66" on="0"/>
        <pt x="299" y="66" on="1"/>
        <pt x="402" y="66" on="0"/>
        <pt x="498" y="188" on="0"/>
        <pt x="521" y="348" on="1"/>
        <pt x="546" y="518" on="0"/>
      </contour>
    </TTGlyph>
    <TTGlyph name="Otilde" xMin="68" yMin="-13" xMax="612" yMax="880">
      <contour>
        <pt x="282" y="764" on="1"/>
        <pt x="242" y="767" on="1"/>
        <pt x="245" y="825" on="0"/>
        <pt x="295" y="883" on="0"/>
        <pt x="332" y="880" on="1"/>
        <pt x="365" y="877" on="0"/>
        <pt x="448" y="827" on="0"/>
        <pt x="473" y="824" on="1"/>
        <pt x="502" y="821" on="0"/>
        <pt x="530" y="847" on="0"/>
        <pt x="534" y="877" on="1"/>
        <pt x="573" y="873" on="1"/>
        <pt x="572" y="818" on="0"/>
        <pt x="523" y="760" on="0"/>
        <pt x="485" y="763" on="1"/>
        <pt x="446" y="766" on="0"/>
        <pt x="360" y="817" on="0"/>
        <pt x="342" y="820" on="1"/>
        <pt x="314" y="823" on="0"/>
        <pt x="286" y="795" on="0"/>
      </contour>
      <contour>
        <pt x="387" y="703" on="1"/>
        <pt x="532" y="703" on="0"/>
        <pt x="640" y="538" on="0"/>
        <pt x="612" y="342" on="1"/>
        <pt x="585" y="143" on="0"/>
        <pt x="445" y="-13" on="0"/>
        <pt x="297" y="-13" on="1"/>
        <pt x="151" y="-13" on="0"/>
        <pt x="41" y="150" on="0"/>
        <pt x="68" y="348" on="1"/>
        <pt x="95" y="544" on="0"/>
        <pt x="236" y="703" on="0"/>
      </contour>
      <contour>
        <pt x="382" y="624" on="1"/>
        <pt x="277" y="624" on="0"/>
        <pt x="182" y="504" on="0"/>
        <pt x="160" y="342" on="1"/>
        <pt x="138" y="185" on="0"/>
        <pt x="197" y="66" on="0"/>
        <pt x="299" y="66" on="1"/>
        <pt x="402" y="66" on="0"/>
        <pt x="498" y="188" on="0"/>
        <pt x="544" y="508" on="0"/>
        <pt x="485" y="624" on="0"/>
      </contour>
    </TTGlyph>
    <TTGlyph name="P" xMin="45" yMin="0" xMax="571" yMax="699">
      <contour>
        <pt x="45" y="0" on="1"/>
        <pt x="142" y="690" on="1"/>
        <pt x="228" y="699" on="0"/>
        <pt x="376" y="699" on="1"/>
        <pt x="497" y="699" on="0"/>
        <pt x="588" y="600" on="0"/>
        <pt x="571" y="480" on="1"/>
        <pt x="553" y="352" on="0"/>
        <pt x="449" y="267" on="0"/>
        <pt x="327" y="267" on="1"/>
        <pt x="244" y="267" on="0"/>
        <pt x="172" y="277" on="1"/>
        <pt x="133" y="0" on="1"/>
      </contour>
      <contour>
        <pt x="181" y="343" on="1"/>
        <pt x="324" y="343" on="1"/>
        <pt x="406" y="343" on="0"/>
        <pt x="471" y="402" on="0"/>
        <pt x="484" y="487" on="1"/>
        <pt x="496" y="567" on="0"/>
        <pt x="447" y="623" on="0"/>
        <pt x="373" y="623" on="1"/>
        <pt x="260" y="623" on="0"/>
        <pt x="220" y="622" on="1"/>
      </contour>
    </TTGlyph>
    <TTGlyph name="Q" xMin="68" yMin="-209" xMax="612" yMax="703">
      <contour>
        <pt x="387" y="703" on="1"/>
        <pt x="532" y="703" on="0"/>
        <pt x="640" y="538" on="0"/>
        <pt x="612" y="342" on="1"/>
        <pt x="585" y="143" on="0"/>
        <pt x="445" y="-13" on="0"/>
        <pt x="297" y="-13" on="1"/>
        <pt x="151" y="-13" on="0"/>
        <pt x="41" y="150" on="0"/>
        <pt x="68" y="348" on="1"/>
        <pt x="95" y="544" on="0"/>
        <pt x="236" y="703" on="0"/>
      </contour>
      <contour>
        <pt x="382" y="624" on="1"/>
        <pt x="277" y="624" on="0"/>
        <pt x="182" y="504" on="0"/>
        <pt x="160" y="342" on="1"/>
        <pt x="138" y="185" on="0"/>
        <pt x="197" y="66" on="0"/>
        <pt x="299" y="66" on="1"/>
        <pt x="402" y="66" on="0"/>
        <pt x="498" y="188" on="0"/>
        <pt x="544" y="508" on="0"/>
        <pt x="485" y="624" on="0"/>
      </contour>
      <contour>
        <pt x="208" y="-96" on="1"/>
        <pt x="242" y="-44" on="1"/>
        <pt x="351" y="-98" on="0"/>
        <pt x="499" y="-121" on="1"/>
        <pt x="464" y="-209" on="1"/>
        <pt x="321" y="-176" on="0"/>
      </contour>
    </TTGlyph>
    <TTGlyph name="R" xMin="45" yMin="0" xMax="576" yMax="699">
      <contour>
        <pt x="45" y="0" on="1"/>
        <pt x="142" y="690" on="1"/>
        <pt x="228" y="699" on="0"/>
        <pt x="376" y="699" on="1"/>
        <pt x="490" y="699" on="0"/>
        <pt x="591" y="608" on="0"/>
        <pt x="576" y="496" on="1"/>
        <pt x="564" y="415" on="0"/>
        <pt x="492" y="331" on="0"/>
        <pt x="422" y="322" on="1"/>
        <pt x="421" y="317" on="1"/>
        <pt x="478" y="301" on="0"/>
        <pt x="494" y="216" on="1"/>
        <pt x="538" y="0" on="1"/>
        <pt x="448" y="0" on="1"/>
        <pt x="407" y="218" on="1"/>
        <pt x="400" y="256" on="0"/>
        <pt x="363" y="288" on="0"/>
        <pt x="329" y="288" on="1"/>
        <pt x="172" y="289" on="1"/>
        <pt x="131" y="0" on="1"/>
      </contour>
      <contour>
        <pt x="183" y="364" on="1"/>
        <pt x="330" y="364" on="1"/>
        <pt x="407" y="365" on="0"/>
        <pt x="476" y="422" on="0"/>
        <pt x="487" y="499" on="1"/>
        <pt x="497" y="571" on="0"/>
        <pt x="449" y="623" on="0"/>
        <pt x="374" y="623" on="1"/>
        <pt x="259" y="623" on="0"/>
        <pt x="219" y="622" on="1"/>
      </contour>
    </TTGlyph>
    <TTGlyph name="Racute" xMin="45" yMin="0" xMax="576" yMax="914">
      <contour>
        <pt x="328" y="728" on="1"/>
        <pt x="302" y="768" on="1"/>
        <pt x="493" y="914" on="1"/>
        <pt x="534" y="849" on="1"/>
      </contour>
      <contour>
        <pt x="45" y="0" on="1"/>
        <pt x="142" y="690" on="1"/>
        <pt x="228" y="699" on="0"/>
        <pt x="376" y="699" on="1"/>
        <pt x="490" y="699" on="0"/>
        <pt x="591" y="608" on="0"/>
        <pt x="576" y="496" on="1"/>
        <pt x="564" y="415" on="0"/>
        <pt x="492" y="331" on="0"/>
        <pt x="422" y="322" on="1"/>
        <pt x="421" y="317" on="1"/>
        <pt x="478" y="301" on="0"/>
        <pt x="494" y="216" on="1"/>
        <pt x="538" y="0" on="1"/>
        <pt x="448" y="0" on="1"/>
        <pt x="407" y="218" on="1"/>
        <pt x="400" y="256" on="0"/>
        <pt x="363" y="288" on="0"/>
        <pt x="329" y="288" on="1"/>
        <pt x="172" y="289" on="1"/>
        <pt x="131" y="0" on="1"/>
      </contour>
      <contour>
        <pt x="183" y="364" on="1"/>
        <pt x="330" y="364" on="1"/>
        <pt x="407" y="365" on="0"/>
        <pt x="476" y="422" on="0"/>
        <pt x="487" y="499" on="1"/>
        <pt x="497" y="571" on="0"/>
        <pt x="449" y="623" on="0"/>
        <pt x="374" y="623" on="1"/>
        <pt x="259" y="623" on="0"/>
        <pt x="219" y="622" on="1"/>
      </contour>
    </TTGlyph>
    <TTGlyph name="Rcaron" xMin="45" yMin="0" xMax="576" yMax="908">
      <contour>
        <pt x="336" y="744" on="1"/>
        <pt x="219" y="876" on="1"/>
        <pt x="253" y="908" on="1"/>
        <pt x="367" y="808" on="1"/>
        <pt x="375" y="808" on="1"/>
        <pt x="521" y="908" on="1"/>
        <pt x="548" y="871" on="1"/>
        <pt x="398" y="744" on="1"/>
      </contour>
      <contour>
        <pt x="45" y="0" on="1"/>
        <pt x="142" y="690" on="1"/>
        <pt x="228" y="699" on="0"/>
        <pt x="376" y="699" on="1"/>
        <pt x="490" y="699" on="0"/>
        <pt x="591" y="608" on="0"/>
        <pt x="576" y="496" on="1"/>
        <pt x="564" y="415" on="0"/>
        <pt x="492" y="331" on="0"/>
        <pt x="422" y="322" on="1"/>
        <pt x="421" y="317" on="1"/>
        <pt x="478" y="301" on="0"/>
        <pt x="494" y="216" on="1"/>
        <pt x="538" y="0" on="1"/>
        <pt x="448" y="0" on="1"/>
        <pt x="407" y="218" on="1"/>
        <pt x="400" y="256" on="0"/>
        <pt x="363" y="288" on="0"/>
        <pt x="329" y="288" on="1"/>
        <pt x="172" y="289" on="1"/>
        <pt x="131" y="0" on="1"/>
      </contour>
      <contour>
        <pt x="183" y="364" on="1"/>
        <pt x="330" y="364" on="1"/>
        <pt x="407" y="365" on="0"/>
        <pt x="476" y="422" on="0"/>
        <pt x="487" y="499" on="1"/>
        <pt x="497" y="571" on="0"/>
        <pt x="449" y="623" on="0"/>
        <pt x="374" y="623" on="1"/>
        <pt x="259" y="623" on="0"/>
        <pt x="219" y="622" on="1"/>
      </contour>
    </TTGlyph>
    <TTGlyph name="Rcommaaccent" xMin="45" yMin="-274" xMax="576" yMax="699">
      <contour>
        <pt x="45" y="0" on="1"/>
        <pt x="142" y="690" on="1"/>
        <pt x="228" y="699" on="0"/>
        <pt x="376" y="699" on="1"/>
        <pt x="490" y="699" on="0"/>
        <pt x="591" y="608" on="0"/>
        <pt x="576" y="496" on="1"/>
        <pt x="564" y="415" on="0"/>
        <pt x="492" y="331" on="0"/>
        <pt x="422" y="322" on="1"/>
        <pt x="421" y="317" on="1"/>
        <pt x="478" y="301" on="0"/>
        <pt x="494" y="216" on="1"/>
        <pt x="538" y="0" on="1"/>
        <pt x="448" y="0" on="1"/>
        <pt x="407" y="218" on="1"/>
        <pt x="400" y="256" on="0"/>
        <pt x="363" y="288" on="0"/>
        <pt x="329" y="288" on="1"/>
        <pt x="172" y="289" on="1"/>
        <pt x="131" y="0" on="1"/>
      </contour>
      <contour>
        <pt x="183" y="364" on="1"/>
        <pt x="330" y="364" on="1"/>
        <pt x="407" y="365" on="0"/>
        <pt x="476" y="422" on="0"/>
        <pt x="487" y="499" on="1"/>
        <pt x="497" y="571" on="0"/>
        <pt x="449" y="623" on="0"/>
        <pt x="374" y="623" on="1"/>
        <pt x="259" y="623" on="0"/>
        <pt x="219" y="622" on="1"/>
      </contour>
      <contour>
        <pt x="292" y="-58" on="1"/>
        <pt x="315" y="-58" on="1"/>
        <pt x="344" y="-58" on="0"/>
        <pt x="340" y="-87" on="1"/>
        <pt x="332" y="-142" on="1"/>
        <pt x="324" y="-201" on="0"/>
        <pt x="281" y="-274" on="1"/>
        <pt x="243" y="-261" on="1"/>
        <pt x="266" y="-186" on="0"/>
        <pt x="272" y="-158" on="1"/>
        <pt x="260" y="-159" on="0"/>
        <pt x="247" y="-146" on="0"/>
        <pt x="249" y="-135" on="1"/>
        <pt x="257" y="-84" on="1"/>
        <pt x="260" y="-69" on="0"/>
        <pt x="274" y="-58" on="0"/>
      </contour>
    </TTGlyph>
    <TTGlyph name="S" xMin="26" yMin="-12" xMax="535" yMax="702">
      <contour>
        <pt x="336" y="286" on="1"/>
        <pt x="199" y="337" on="1"/>
        <pt x="128" y="363" on="0"/>
        <pt x="77" y="454" on="0"/>
        <pt x="87" y="529" on="1"/>
        <pt x="93" y="575" on="0"/>
        <pt x="122" y="638" on="0"/>
        <pt x="161" y="676" on="0"/>
        <pt x="223" y="696" on="0"/>
        <pt x="285" y="702" on="0"/>
        <pt x="331" y="702" on="1"/>
        <pt x="455" y="700" on="0"/>
        <pt x="535" y="682" on="1"/>
        <pt x="526" y="618" on="1"/>
        <pt x="413" y="623" on="0"/>
        <pt x="329" y="623" on="1"/>
        <pt x="295" y="623" on="0"/>
        <pt x="262" y="622" on="0"/>
        <pt x="218" y="612" on="0"/>
        <pt x="198" y="591" on="0"/>
        <pt x="179" y="551" on="0"/>
        <pt x="175" y="520" on="1"/>
        <pt x="168" y="470" on="0"/>
        <pt x="196" y="429" on="0"/>
        <pt x="244" y="411" on="1"/>
        <pt x="379" y="361" on="1"/>
        <pt x="455" y="333" on="0"/>
        <pt x="504" y="246" on="0"/>
        <pt x="493" y="167" on="1"/>
        <pt x="478" y="59" on="0"/>
        <pt x="365" y="-12" on="0"/>
        <pt x="236" y="-12" on="1"/>
        <pt x="129" y="-12" on="0"/>
        <pt x="26" y="7" on="1"/>
        <pt x="37" y="72" on="1"/>
        <pt x="205" y="66" on="0"/>
        <pt x="237" y="67" on="1"/>
        <pt x="327" y="67" on="0"/>
        <pt x="396" y="107" on="0"/>
        <pt x="405" y="176" on="1"/>
        <pt x="412" y="228" on="0"/>
        <pt x="384" y="268" on="0"/>
      </contour>
    </TTGlyph>
    <TTGlyph name="Sacute" xMin="26" yMin="-12" xMax="535" yMax="914">
      <contour>
        <pt x="509" y="849" on="1"/>
        <pt x="303" y="728" on="1"/>
        <pt x="276" y="768" on="1"/>
        <pt x="468" y="914" on="1"/>
      </contour>
      <contour>
        <pt x="336" y="286" on="1"/>
        <pt x="199" y="337" on="1"/>
        <pt x="128" y="363" on="0"/>
        <pt x="77" y="454" on="0"/>
        <pt x="87" y="529" on="1"/>
        <pt x="93" y="575" on="0"/>
        <pt x="122" y="638" on="0"/>
        <pt x="161" y="676" on="0"/>
        <pt x="223" y="696" on="0"/>
        <pt x="285" y="702" on="0"/>
        <pt x="331" y="702" on="1"/>
        <pt x="455" y="700" on="0"/>
        <pt x="535" y="682" on="1"/>
        <pt x="526" y="618" on="1"/>
        <pt x="413" y="623" on="0"/>
        <pt x="329" y="623" on="1"/>
        <pt x="295" y="623" on="0"/>
        <pt x="262" y="622" on="0"/>
        <pt x="218" y="612" on="0"/>
        <pt x="198" y="591" on="0"/>
        <pt x="179" y="551" on="0"/>
        <pt x="175" y="520" on="1"/>
        <pt x="168" y="470" on="0"/>
        <pt x="196" y="429" on="0"/>
        <pt x="244" y="411" on="1"/>
        <pt x="379" y="361" on="1"/>
        <pt x="455" y="333" on="0"/>
        <pt x="504" y="246" on="0"/>
        <pt x="493" y="167" on="1"/>
        <pt x="478" y="59" on="0"/>
        <pt x="365" y="-12" on="0"/>
        <pt x="236" y="-12" on="1"/>
        <pt x="129" y="-12" on="0"/>
        <pt x="26" y="7" on="1"/>
        <pt x="37" y="72" on="1"/>
        <pt x="205" y="66" on="0"/>
        <pt x="237" y="67" on="1"/>
        <pt x="327" y="67" on="0"/>
        <pt x="396" y="107" on="0"/>
        <pt x="405" y="176" on="1"/>
        <pt x="412" y="228" on="0"/>
        <pt x="384" y="268" on="0"/>
      </contour>
    </TTGlyph>
    <TTGlyph name="Scaron" xMin="26" yMin="-12" xMax="535" yMax="908">
      <contour>
        <pt x="522" y="871" on="1"/>
        <pt x="372" y="744" on="1"/>
        <pt x="311" y="744" on="1"/>
        <pt x="194" y="876" on="1"/>
        <pt x="228" y="908" on="1"/>
        <pt x="341" y="808" on="1"/>
        <pt x="349" y="808" on="1"/>
        <pt x="496" y="908" on="1"/>
      </contour>
      <contour>
        <pt x="336" y="286" on="1"/>
        <pt x="199" y="337" on="1"/>
        <pt x="128" y="363" on="0"/>
        <pt x="77" y="454" on="0"/>
        <pt x="87" y="529" on="1"/>
        <pt x="93" y="575" on="0"/>
        <pt x="122" y="638" on="0"/>
        <pt x="161" y="676" on="0"/>
        <pt x="223" y="696" on="0"/>
        <pt x="285" y="702" on="0"/>
        <pt x="331" y="702" on="1"/>
        <pt x="455" y="700" on="0"/>
        <pt x="535" y="682" on="1"/>
        <pt x="526" y="618" on="1"/>
        <pt x="413" y="623" on="0"/>
        <pt x="329" y="623" on="1"/>
        <pt x="295" y="623" on="0"/>
        <pt x="262" y="622" on="0"/>
        <pt x="218" y="612" on="0"/>
        <pt x="198" y="591" on="0"/>
        <pt x="179" y="551" on="0"/>
        <pt x="175" y="520" on="1"/>
        <pt x="168" y="470" on="0"/>
        <pt x="196" y="429" on="0"/>
        <pt x="244" y="411" on="1"/>
        <pt x="379" y="361" on="1"/>
        <pt x="455" y="333" on="0"/>
        <pt x="504" y="246" on="0"/>
        <pt x="493" y="167" on="1"/>
        <pt x="478" y="59" on="0"/>
        <pt x="365" y="-12" on="0"/>
        <pt x="236" y="-12" on="1"/>
        <pt x="129" y="-12" on="0"/>
        <pt x="26" y="7" on="1"/>
        <pt x="37" y="72" on="1"/>
        <pt x="205" y="66" on="0"/>
        <pt x="237" y="67" on="1"/>
        <pt x="327" y="67" on="0"/>
        <pt x="396" y="107" on="0"/>
        <pt x="405" y="176" on="1"/>
        <pt x="412" y="228" on="0"/>
        <pt x="384" y="268" on="0"/>
      </contour>
    </TTGlyph>
    <TTGlyph name="Scedilla" xMin="26" yMin="-241" xMax="535" yMax="702">
      <contour>
        <pt x="336" y="286" on="1"/>
        <pt x="199" y="337" on="1"/>
        <pt x="128" y="363" on="0"/>
        <pt x="77" y="454" on="0"/>
        <pt x="87" y="529" on="1"/>
        <pt x="93" y="575" on="0"/>
        <pt x="122" y="638" on="0"/>
        <pt x="161" y="676" on="0"/>
        <pt x="223" y="696" on="0"/>
        <pt x="285" y="702" on="0"/>
        <pt x="331" y="702" on="1"/>
        <pt x="455" y="700" on="0"/>
        <pt x="535" y="682" on="1"/>
        <pt x="526" y="618" on="1"/>
        <pt x="413" y="623" on="0"/>
        <pt x="329" y="623" on="1"/>
        <pt x="295" y="623" on="0"/>
        <pt x="262" y="622" on="0"/>
        <pt x="218" y="612" on="0"/>
        <pt x="198" y="591" on="0"/>
        <pt x="179" y="551" on="0"/>
        <pt x="175" y="520" on="1"/>
        <pt x="168" y="470" on="0"/>
        <pt x="196" y="429" on="0"/>
        <pt x="244" y="411" on="1"/>
        <pt x="379" y="361" on="1"/>
        <pt x="455" y="333" on="0"/>
        <pt x="504" y="246" on="0"/>
        <pt x="493" y="167" on="1"/>
        <pt x="478" y="59" on="0"/>
        <pt x="365" y="-12" on="0"/>
        <pt x="236" y="-12" on="1"/>
        <pt x="129" y="-12" on="0"/>
        <pt x="26" y="7" on="1"/>
        <pt x="37" y="72" on="1"/>
        <pt x="205" y="66" on="0"/>
        <pt x="237" y="67" on="1"/>
        <pt x="327" y="67" on="0"/>
        <pt x="396" y="107" on="0"/>
        <pt x="405" y="176" on="1"/>
        <pt x="412" y="228" on="0"/>
        <pt x="384" y="268" on="0"/>
      </contour>
      <contour>
        <pt x="184" y="-95" on="1"/>
        <pt x="194" y="-55" on="1"/>
        <pt x="256" y="-49" on="0"/>
        <pt x="306" y="-78" on="0"/>
        <pt x="299" y="-123" on="1"/>
        <pt x="289" y="-185" on="0"/>
        <pt x="187" y="-250" on="0"/>
        <pt x="116" y="-241" on="1"/>
        <pt x="132" y="-196" on="1"/>
        <pt x="172" y="-197" on="0"/>
        <pt x="231" y="-156" on="0"/>
        <pt x="237" y="-123" on="1"/>
        <pt x="240" y="-106" on="0"/>
        <pt x="220" y="-95" on="0"/>
      </contour>
    </TTGlyph>
    <TTGlyph name="Scommaaccent" xMin="26" yMin="-274" xMax="535" yMax="702">
      <contour>
        <pt x="336" y="286" on="1"/>
        <pt x="199" y="337" on="1"/>
        <pt x="128" y="363" on="0"/>
        <pt x="77" y="454" on="0"/>
        <pt x="87" y="529" on="1"/>
        <pt x="93" y="575" on="0"/>
        <pt x="122" y="638" on="0"/>
        <pt x="161" y="676" on="0"/>
        <pt x="223" y="696" on="0"/>
        <pt x="285" y="702" on="0"/>
        <pt x="331" y="702" on="1"/>
        <pt x="455" y="700" on="0"/>
        <pt x="535" y="682" on="1"/>
        <pt x="526" y="618" on="1"/>
        <pt x="413" y="623" on="0"/>
        <pt x="329" y="623" on="1"/>
        <pt x="295" y="623" on="0"/>
        <pt x="262" y="622" on="0"/>
        <pt x="218" y="612" on="0"/>
        <pt x="198" y="591" on="0"/>
        <pt x="179" y="551" on="0"/>
        <pt x="175" y="520" on="1"/>
        <pt x="168" y="470" on="0"/>
        <pt x="196" y="429" on="0"/>
        <pt x="244" y="411" on="1"/>
        <pt x="379" y="361" on="1"/>
        <pt x="455" y="333" on="0"/>
        <pt x="504" y="246" on="0"/>
        <pt x="493" y="167" on="1"/>
        <pt x="478" y="59" on="0"/>
        <pt x="365" y="-12" on="0"/>
        <pt x="236" y="-12" on="1"/>
        <pt x="129" y="-12" on="0"/>
        <pt x="26" y="7" on="1"/>
        <pt x="37" y="72" on="1"/>
        <pt x="205" y="66" on="0"/>
        <pt x="237" y="67" on="1"/>
        <pt x="327" y="67" on="0"/>
        <pt x="396" y="107" on="0"/>
        <pt x="405" y="176" on="1"/>
        <pt x="412" y="228" on="0"/>
        <pt x="384" y="268" on="0"/>
      </contour>
      <contour>
        <pt x="248" y="-58" on="1"/>
        <pt x="272" y="-58" on="1"/>
        <pt x="302" y="-58" on="0"/>
        <pt x="296" y="-87" on="1"/>
        <pt x="288" y="-142" on="1"/>
        <pt x="280" y="-201" on="0"/>
        <pt x="237" y="-274" on="1"/>
        <pt x="199" y="-261" on="1"/>
        <pt x="222" y="-194" on="0"/>
        <pt x="229" y="-158" on="1"/>
        <pt x="217" y="-159" on="0"/>
        <pt x="204" y="-146" on="0"/>
        <pt x="205" y="-135" on="1"/>
        <pt x="213" y="-84" on="1"/>
        <pt x="216" y="-69" on="0"/>
        <pt x="230" y="-58" on="0"/>
      </contour>
    </TTGlyph>
    <TTGlyph name="T" xMin="65" yMin="0" xMax="608" yMax="690">
      <contour>
        <pt x="598" y="612" on="1"/>
        <pt x="375" y="612" on="1"/>
        <pt x="289" y="0" on="1"/>
        <pt x="201" y="0" on="1"/>
        <pt x="287" y="612" on="1"/>
        <pt x="65" y="612" on="1"/>
        <pt x="76" y="690" on="1"/>
        <pt x="608" y="690" on="1"/>
      </contour>
    </TTGlyph>
    <TTGlyph name="Tbar" xMin="65" yMin="0" xMax="608" yMax="690">
      <contour>
        <pt x="375" y="612" on="1"/>
        <pt x="347" y="417" on="1"/>
        <pt x="495" y="417" on="1"/>
        <pt x="488" y="368" on="1"/>
        <pt x="340" y="368" on="1"/>
        <pt x="289" y="0" on="1"/>
        <pt x="201" y="0" on="1"/>
        <pt x="253" y="368" on="1"/>
        <pt x="119" y="368" on="1"/>
        <pt x="126" y="417" on="1"/>
        <pt x="260" y="417" on="1"/>
        <pt x="287" y="612" on="1"/>
        <pt x="65" y="612" on="1"/>
        <pt x="76" y="690" on="1"/>
        <pt x="608" y="690" on="1"/>
        <pt x="598" y="612" on="1"/>
      </contour>
    </TTGlyph>
    <TTGlyph name="Tcaron" xMin="65" yMin="0" xMax="608" yMax="908">
      <contour>
        <pt x="321" y="744" on="1"/>
        <pt x="204" y="876" on="1"/>
        <pt x="239" y="908" on="1"/>
        <pt x="352" y="808" on="1"/>
        <pt x="360" y="808" on="1"/>
        <pt x="506" y="908" on="1"/>
        <pt x="533" y="871" on="1"/>
        <pt x="383" y="744" on="1"/>
      </contour>
      <contour>
        <pt x="598" y="612" on="1"/>
        <pt x="375" y="612" on="1"/>
        <pt x="289" y="0" on="1"/>
        <pt x="201" y="0" on="1"/>
        <pt x="287" y="612" on="1"/>
        <pt x="65" y="612" on="1"/>
        <pt x="76" y="690" on="1"/>
        <pt x="608" y="690" on="1"/>
      </contour>
    </TTGlyph>
    <TTGlyph name="Tcedilla" xMin="65" yMin="-229" xMax="608" yMax="690">
      <contour>
        <pt x="598" y="612" on="1"/>
        <pt x="375" y="612" on="1"/>
        <pt x="289" y="0" on="1"/>
        <pt x="201" y="0" on="1"/>
        <pt x="287" y="612" on="1"/>
        <pt x="65" y="612" on="1"/>
        <pt x="76" y="690" on="1"/>
        <pt x="608" y="690" on="1"/>
      </contour>
      <contour>
        <pt x="180" y="-83" on="1"/>
        <pt x="191" y="-43" on="1"/>
        <pt x="253" y="-37" on="0"/>
        <pt x="303" y="-67" on="0"/>
        <pt x="295" y="-112" on="1"/>
        <pt x="284" y="-174" on="0"/>
        <pt x="183" y="-239" on="0"/>
        <pt x="113" y="-229" on="1"/>
        <pt x="129" y="-184" on="1"/>
        <pt x="169" y="-185" on="0"/>
        <pt x="228" y="-144" on="0"/>
        <pt x="234" y="-111" on="1"/>
        <pt x="236" y="-94" on="0"/>
        <pt x="216" y="-84" on="0"/>
      </contour>
    </TTGlyph>
    <TTGlyph name="Thorn" xMin="45" yMin="0" xMax="552" yMax="690">
      <contour>
        <pt x="230" y="690" on="1"/>
        <pt x="213" y="565" on="1"/>
        <pt x="252" y="567" on="0"/>
        <pt x="358" y="567" on="1"/>
        <pt x="477" y="567" on="0"/>
        <pt x="570" y="471" on="0"/>
        <pt x="534" y="221" on="0"/>
        <pt x="430" y="131" on="0"/>
        <pt x="316" y="131" on="1"/>
        <pt x="230" y="131" on="0"/>
        <pt x="153" y="140" on="1"/>
        <pt x="133" y="0" on="1"/>
        <pt x="45" y="0" on="1"/>
        <pt x="142" y="690" on="1"/>
      </contour>
      <contour>
        <pt x="162" y="207" on="1"/>
        <pt x="305" y="207" on="1"/>
        <pt x="385" y="208" on="0"/>
        <pt x="453" y="267" on="0"/>
        <pt x="465" y="353" on="1"/>
        <pt x="476" y="436" on="0"/>
        <pt x="431" y="492" on="0"/>
        <pt x="355" y="492" on="1"/>
        <pt x="242" y="492" on="0"/>
        <pt x="202" y="491" on="1"/>
      </contour>
    </TTGlyph>
    <TTGlyph name="U" xMin="78" yMin="-13" xMax="639" yMax="690">
      <contour>
        <pt x="639" y="690" on="1"/>
        <pt x="579" y="263" on="1"/>
        <pt x="557" y="113" on="0"/>
        <pt x="429" y="-13" on="0"/>
        <pt x="298" y="-13" on="1"/>
        <pt x="163" y="-13" on="0"/>
        <pt x="57" y="118" on="0"/>
        <pt x="78" y="267" on="1"/>
        <pt x="136" y="690" on="1"/>
        <pt x="225" y="690" on="1"/>
        <pt x="165" y="263" on="1"/>
        <pt x="149" y="152" on="0"/>
        <pt x="207" y="66" on="0"/>
        <pt x="296" y="66" on="1"/>
        <pt x="388" y="66" on="0"/>
        <pt x="476" y="156" on="0"/>
        <pt x="492" y="267" on="1"/>
        <pt x="550" y="690" on="1"/>
      </contour>
    </TTGlyph>
    <TTGlyph name="Uacute" xMin="78" yMin="-13" xMax="639" yMax="914">
      <contour>
        <pt x="566" y="849" on="1"/>
        <pt x="360" y="728" on="1"/>
        <pt x="333" y="768" on="1"/>
        <pt x="525" y="914" on="1"/>
      </contour>
      <contour>
        <pt x="639" y="690" on="1"/>
        <pt x="579" y="263" on="1"/>
        <pt x="557" y="113" on="0"/>
        <pt x="429" y="-13" on="0"/>
        <pt x="298" y="-13" on="1"/>
        <pt x="163" y="-13" on="0"/>
        <pt x="57" y="118" on="0"/>
        <pt x="78" y="267" on="1"/>
        <pt x="136" y="690" on="1"/>
        <pt x="225" y="690" on="1"/>
        <pt x="165" y="263" on="1"/>
        <pt x="149" y="152" on="0"/>
        <pt x="207" y="66" on="0"/>
        <pt x="296" y="66" on="1"/>
        <pt x="388" y="66" on="0"/>
        <pt x="476" y="156" on="0"/>
        <pt x="492" y="267" on="1"/>
        <pt x="550" y="690" on="1"/>
      </contour>
    </TTGlyph>
    <TTGlyph name="Ucircumflex" xMin="78" yMin="-13" xMax="639" yMax="896">
      <contour>
        <pt x="569" y="764" on="1"/>
        <pt x="538" y="730" on="1"/>
        <pt x="418" y="831" on="1"/>
        <pt x="410" y="831" on="1"/>
        <pt x="261" y="732" on="1"/>
        <pt x="237" y="769" on="1"/>
        <pt x="385" y="896" on="1"/>
        <pt x="445" y="896" on="1"/>
      </contour>
      <contour>
        <pt x="639" y="690" on="1"/>
        <pt x="579" y="263" on="1"/>
        <pt x="557" y="113" on="0"/>
        <pt x="429" y="-13" on="0"/>
        <pt x="298" y="-13" on="1"/>
        <pt x="163" y="-13" on="0"/>
        <pt x="57" y="118" on="0"/>
        <pt x="78" y="267" on="1"/>
        <pt x="136" y="690" on="1"/>
        <pt x="225" y="690" on="1"/>
        <pt x="165" y="263" on="1"/>
        <pt x="149" y="152" on="0"/>
        <pt x="207" y="66" on="0"/>
        <pt x="296" y="66" on="1"/>
        <pt x="388" y="66" on="0"/>
        <pt x="476" y="156" on="0"/>
        <pt x="492" y="267" on="1"/>
        <pt x="550" y="690" on="1"/>
      </contour>
    </TTGlyph>
    <TTGlyph name="Udieresis" xMin="78" yMin="-13" xMax="639" yMax="870">
      <contour>
        <pt x="317" y="870" on="1"/>
        <pt x="342" y="870" on="1"/>
        <pt x="368" y="870" on="0"/>
        <pt x="365" y="845" on="1"/>
        <pt x="356" y="791" on="1"/>
        <pt x="353" y="767" on="0"/>
        <pt x="330" y="767" on="1"/>
        <pt x="302" y="767" on="1"/>
        <pt x="277" y="767" on="0"/>
        <pt x="280" y="790" on="1"/>
        <pt x="289" y="845" on="1"/>
        <pt x="292" y="870" on="0"/>
      </contour>
      <contour>
        <pt x="486" y="870" on="1"/>
        <pt x="511" y="870" on="1"/>
        <pt x="537" y="870" on="0"/>
        <pt x="534" y="845" on="1"/>
        <pt x="525" y="791" on="1"/>
        <pt x="522" y="767" on="0"/>
        <pt x="499" y="767" on="1"/>
        <pt x="470" y="767" on="1"/>
        <pt x="446" y="767" on="0"/>
        <pt x="449" y="790" on="1"/>
        <pt x="458" y="845" on="1"/>
        <pt x="461" y="870" on="0"/>
      </contour>
      <contour>
        <pt x="639" y="690" on="1"/>
        <pt x="579" y="263" on="1"/>
        <pt x="557" y="113" on="0"/>
        <pt x="429" y="-13" on="0"/>
        <pt x="298" y="-13" on="1"/>
        <pt x="163" y="-13" on="0"/>
        <pt x="57" y="118" on="0"/>
        <pt x="78" y="267" on="1"/>
        <pt x="136" y="690" on="1"/>
        <pt x="225" y="690" on="1"/>
        <pt x="165" y="263" on="1"/>
        <pt x="149" y="152" on="0"/>
        <pt x="207" y="66" on="0"/>
        <pt x="296" y="66" on="1"/>
        <pt x="388" y="66" on="0"/>
        <pt x="476" y="156" on="0"/>
        <pt x="492" y="267" on="1"/>
        <pt x="550" y="690" on="1"/>
      </contour>
    </TTGlyph>
    <TTGlyph name="Ugrave" xMin="78" yMin="-13" xMax="639" yMax="913">
      <contour>
        <pt x="447" y="766" on="1"/>
        <pt x="416" y="728" on="1"/>
        <pt x="231" y="853" on="1"/>
        <pt x="278" y="913" on="1"/>
      </contour>
      <contour>
        <pt x="639" y="690" on="1"/>
        <pt x="579" y="263" on="1"/>
        <pt x="557" y="113" on="0"/>
        <pt x="429" y="-13" on="0"/>
        <pt x="298" y="-13" on="1"/>
        <pt x="163" y="-13" on="0"/>
        <pt x="57" y="118" on="0"/>
        <pt x="78" y="267" on="1"/>
        <pt x="136" y="690" on="1"/>
        <pt x="225" y="690" on="1"/>
        <pt x="165" y="263" on="1"/>
        <pt x="149" y="152" on="0"/>
        <pt x="207" y="66" on="0"/>
        <pt x="296" y="66" on="1"/>
        <pt x="388" y="66" on="0"/>
        <pt x="476" y="156" on="0"/>
        <pt x="492" y="267" on="1"/>
        <pt x="550" y="690" on="1"/>
      </contour>
    </TTGlyph>
    <TTGlyph name="Uhungarumlaut" xMin="78" yMin="-13" xMax="639" yMax="919">
      <contour>
        <pt x="457" y="881" on="1"/>
        <pt x="301" y="722" on="1"/>
        <pt x="266" y="751" on="1"/>
        <pt x="404" y="919" on="1"/>
      </contour>
      <contour>
        <pt x="621" y="881" on="1"/>
        <pt x="465" y="722" on="1"/>
        <pt x="430" y="751" on="1"/>
        <pt x="568" y="919" on="1"/>
      </contour>
      <contour>
        <pt x="639" y="690" on="1"/>
        <pt x="579" y="263" on="1"/>
        <pt x="557" y="113" on="0"/>
        <pt x="429" y="-13" on="0"/>
        <pt x="298" y="-13" on="1"/>
        <pt x="163" y="-13" on="0"/>
        <pt x="57" y="118" on="0"/>
        <pt x="78" y="267" on="1"/>
        <pt x="136" y="690" on="1"/>
        <pt x="225" y="690" on="1"/>
        <pt x="165" y="263" on="1"/>
        <pt x="149" y="152" on="0"/>
        <pt x="207" y="66" on="0"/>
        <pt x="296" y="66" on="1"/>
        <pt x="388" y="66" on="0"/>
        <pt x="476" y="156" on="0"/>
        <pt x="492" y="267" on="1"/>
        <pt x="550" y="690" on="1"/>
      </contour>
    </TTGlyph>
    <TTGlyph name="Umacron" xMin="78" yMin="-13" xMax="639" yMax="849">
      <contour>
        <pt x="541" y="786" on="1"/>
        <pt x="262" y="786" on="1"/>
        <pt x="271" y="849" on="1"/>
        <pt x="550" y="849" on="1"/>
      </contour>
      <contour>
        <pt x="639" y="690" on="1"/>
        <pt x="579" y="263" on="1"/>
        <pt x="557" y="113" on="0"/>
        <pt x="429" y="-13" on="0"/>
        <pt x="298" y="-13" on="1"/>
        <pt x="163" y="-13" on="0"/>
        <pt x="57" y="118" on="0"/>
        <pt x="78" y="267" on="1"/>
        <pt x="136" y="690" on="1"/>
        <pt x="225" y="690" on="1"/>
        <pt x="165" y="263" on="1"/>
        <pt x="149" y="152" on="0"/>
        <pt x="207" y="66" on="0"/>
        <pt x="296" y="66" on="1"/>
        <pt x="388" y="66" on="0"/>
        <pt x="476" y="156" on="0"/>
        <pt x="492" y="267" on="1"/>
        <pt x="550" y="690" on="1"/>
      </contour>
    </TTGlyph>
    <TTGlyph name="Uogonek" xMin="78" yMin="-222" xMax="639" yMax="690">
      <contour>
        <pt x="639" y="690" on="1"/>
        <pt x="579" y="263" on="1"/>
        <pt x="559" y="121" on="0"/>
        <pt x="443" y="-6" on="0"/>
        <pt x="328" y="-12" on="1"/>
        <pt x="275" y="-67" on="0"/>
        <pt x="242" y="-126" on="1"/>
        <pt x="222" y="-161" on="0"/>
        <pt x="260" y="-182" on="0"/>
        <pt x="310" y="-166" on="1"/>
        <pt x="320" y="-203" on="1"/>
        <pt x="282" y="-218" on="0"/>
        <pt x="221" y="-225" on="0"/>
        <pt x="185" y="-211" on="0"/>
        <pt x="166" y="-183" on="0"/>
        <pt x="169" y="-144" on="0"/>
        <pt x="180" y="-123" on="1"/>
        <pt x="207" y="-68" on="0"/>
        <pt x="282" y="-12" on="1"/>
        <pt x="157" y="-9" on="0"/>
        <pt x="57" y="123" on="0"/>
        <pt x="78" y="267" on="1"/>
        <pt x="136" y="690" on="1"/>
        <pt x="225" y="690" on="1"/>
        <pt x="165" y="263" on="1"/>
        <pt x="149" y="152" on="0"/>
        <pt x="207" y="66" on="0"/>
        <pt x="296" y="66" on="1"/>
        <pt x="388" y="66" on="0"/>
        <pt x="476" y="156" on="0"/>
        <pt x="492" y="267" on="1"/>
        <pt x="550" y="690" on="1"/>
      </contour>
    </TTGlyph>
    <TTGlyph name="Uring" xMin="78" yMin="-13" xMax="639" yMax="924">
      <contour>
        <pt x="413" y="924" on="1"/>
        <pt x="461" y="924" on="0"/>
        <pt x="519" y="863" on="0"/>
        <pt x="513" y="816" on="1"/>
        <pt x="508" y="773" on="0"/>
        <pt x="448" y="715" on="0"/>
        <pt x="401" y="715" on="1"/>
        <pt x="352" y="715" on="0"/>
        <pt x="296" y="776" on="0"/>
        <pt x="301" y="823" on="1"/>
        <pt x="306" y="866" on="0"/>
        <pt x="366" y="924" on="0"/>
      </contour>
      <contour>
        <pt x="440" y="881" on="0"/>
        <pt x="386" y="881" on="0"/>
        <pt x="351" y="846" on="0"/>
        <pt x="348" y="819" on="1"/>
        <pt x="345" y="791" on="0"/>
        <pt x="376" y="758" on="0"/>
        <pt x="402" y="758" on="1"/>
        <pt x="429" y="758" on="0"/>
        <pt x="464" y="794" on="0"/>
        <pt x="466" y="821" on="1"/>
        <pt x="469" y="847" on="0"/>
      </contour>
      <contour>
        <pt x="639" y="690" on="1"/>
        <pt x="579" y="263" on="1"/>
        <pt x="557" y="113" on="0"/>
        <pt x="429" y="-13" on="0"/>
        <pt x="298" y="-13" on="1"/>
        <pt x="163" y="-13" on="0"/>
        <pt x="57" y="118" on="0"/>
        <pt x="78" y="267" on="1"/>
        <pt x="136" y="690" on="1"/>
        <pt x="225" y="690" on="1"/>
        <pt x="165" y="263" on="1"/>
        <pt x="149" y="152" on="0"/>
        <pt x="207" y="66" on="0"/>
        <pt x="296" y="66" on="1"/>
        <pt x="388" y="66" on="0"/>
        <pt x="476" y="156" on="0"/>
        <pt x="492" y="267" on="1"/>
        <pt x="550" y="690" on="1"/>
      </contour>
    </TTGlyph>
    <TTGlyph name="V" xMin="69" yMin="0" xMax="645" yMax="690">
      <contour>
        <pt x="645" y="690" on="1"/>
        <pt x="340" y="23" on="1"/>
        <pt x="331" y="0" on="0"/>
        <pt x="306" y="0" on="1"/>
        <pt x="218" y="0" on="1"/>
        <pt x="192" y="0" on="0"/>
        <pt x="188" y="27" on="1"/>
        <pt x="69" y="690" on="1"/>
        <pt x="158" y="690" on="1"/>
        <pt x="245" y="142" on="1"/>
        <pt x="253" y="93" on="0"/>
        <pt x="255" y="66" on="1"/>
        <pt x="281" y="66" on="1"/>
        <pt x="298" y="113" on="0"/>
        <pt x="312" y="145" on="1"/>
        <pt x="552" y="690" on="1"/>
      </contour>
    </TTGlyph>
    <TTGlyph name="W" xMin="83" yMin="0" xMax="969" yMax="690">
      <contour>
        <pt x="969" y="690" on="1"/>
        <pt x="734" y="24" on="1"/>
        <pt x="726" y="0" on="0"/>
        <pt x="698" y="0" on="1"/>
        <pt x="600" y="0" on="1"/>
        <pt x="587" y="0" on="0"/>
        <pt x="569" y="16" on="0"/>
        <pt x="568" y="29" on="1"/>
        <pt x="532" y="548" on="1"/>
        <pt x="532" y="551" on="0"/>
        <pt x="527" y="609" on="0"/>
        <pt x="526" y="624" on="1"/>
        <pt x="505" y="624" on="1"/>
        <pt x="478" y="544" on="1"/>
        <pt x="299" y="25" on="1"/>
        <pt x="291" y="0" on="0"/>
        <pt x="263" y="0" on="1"/>
        <pt x="166" y="0" on="1"/>
        <pt x="153" y="0" on="0"/>
        <pt x="134" y="16" on="0"/>
        <pt x="133" y="28" on="1"/>
        <pt x="83" y="690" on="1"/>
        <pt x="173" y="690" on="1"/>
        <pt x="205" y="151" on="1"/>
        <pt x="205" y="146" on="0"/>
        <pt x="208" y="65" on="1"/>
        <pt x="232" y="65" on="1"/>
        <pt x="261" y="154" on="1"/>
        <pt x="438" y="662" on="1"/>
        <pt x="446" y="690" on="0"/>
        <pt x="474" y="690" on="1"/>
        <pt x="569" y="690" on="1"/>
        <pt x="581" y="690" on="0"/>
        <pt x="598" y="672" on="0"/>
        <pt x="599" y="659" on="1"/>
        <pt x="640" y="150" on="1"/>
        <pt x="644" y="94" on="0"/>
        <pt x="644" y="65" on="1"/>
        <pt x="669" y="65" on="1"/>
        <pt x="696" y="152" on="1"/>
        <pt x="877" y="690" on="1"/>
      </contour>
    </TTGlyph>
    <TTGlyph name="Wacute" xMin="83" yMin="0" xMax="969" yMax="914">
      <contour>
        <pt x="703" y="848" on="1"/>
        <pt x="497" y="727" on="1"/>
        <pt x="470" y="767" on="1"/>
        <pt x="662" y="914" on="1"/>
      </contour>
      <contour>
        <pt x="969" y="690" on="1"/>
        <pt x="734" y="24" on="1"/>
        <pt x="726" y="0" on="0"/>
        <pt x="698" y="0" on="1"/>
        <pt x="600" y="0" on="1"/>
        <pt x="587" y="0" on="0"/>
        <pt x="569" y="16" on="0"/>
        <pt x="568" y="29" on="1"/>
        <pt x="532" y="548" on="1"/>
        <pt x="532" y="551" on="0"/>
        <pt x="527" y="609" on="0"/>
        <pt x="526" y="624" on="1"/>
        <pt x="505" y="624" on="1"/>
        <pt x="478" y="544" on="1"/>
        <pt x="299" y="25" on="1"/>
        <pt x="291" y="0" on="0"/>
        <pt x="263" y="0" on="1"/>
        <pt x="166" y="0" on="1"/>
        <pt x="153" y="0" on="0"/>
        <pt x="134" y="16" on="0"/>
        <pt x="133" y="28" on="1"/>
        <pt x="83" y="690" on="1"/>
        <pt x="173" y="690" on="1"/>
        <pt x="205" y="151" on="1"/>
        <pt x="205" y="146" on="0"/>
        <pt x="208" y="65" on="1"/>
        <pt x="232" y="65" on="1"/>
        <pt x="261" y="154" on="1"/>
        <pt x="438" y="662" on="1"/>
        <pt x="446" y="690" on="0"/>
        <pt x="474" y="690" on="1"/>
        <pt x="569" y="690" on="1"/>
        <pt x="581" y="690" on="0"/>
        <pt x="598" y="672" on="0"/>
        <pt x="599" y="659" on="1"/>
        <pt x="640" y="150" on="1"/>
        <pt x="644" y="94" on="0"/>
        <pt x="644" y="65" on="1"/>
        <pt x="669" y="65" on="1"/>
        <pt x="696" y="152" on="1"/>
        <pt x="877" y="690" on="1"/>
      </contour>
    </TTGlyph>
    <TTGlyph name="Wcircumflex" xMin="83" yMin="0" xMax="969" yMax="895">
      <contour>
        <pt x="707" y="763" on="1"/>
        <pt x="675" y="729" on="1"/>
        <pt x="555" y="830" on="1"/>
        <pt x="547" y="830" on="1"/>
        <pt x="399" y="731" on="1"/>
        <pt x="374" y="768" on="1"/>
        <pt x="522" y="895" on="1"/>
        <pt x="583" y="895" on="1"/>
      </contour>
      <contour>
        <pt x="969" y="690" on="1"/>
        <pt x="734" y="24" on="1"/>
        <pt x="726" y="0" on="0"/>
        <pt x="698" y="0" on="1"/>
        <pt x="600" y="0" on="1"/>
        <pt x="587" y="0" on="0"/>
        <pt x="569" y="16" on="0"/>
        <pt x="568" y="29" on="1"/>
        <pt x="532" y="548" on="1"/>
        <pt x="532" y="551" on="0"/>
        <pt x="527" y="609" on="0"/>
        <pt x="526" y="624" on="1"/>
        <pt x="505" y="624" on="1"/>
        <pt x="478" y="544" on="1"/>
        <pt x="299" y="25" on="1"/>
        <pt x="291" y="0" on="0"/>
        <pt x="263" y="0" on="1"/>
        <pt x="166" y="0" on="1"/>
        <pt x="153" y="0" on="0"/>
        <pt x="134" y="16" on="0"/>
        <pt x="133" y="28" on="1"/>
        <pt x="83" y="690" on="1"/>
        <pt x="173" y="690" on="1"/>
        <pt x="205" y="151" on="1"/>
        <pt x="205" y="146" on="0"/>
        <pt x="208" y="65" on="1"/>
        <pt x="232" y="65" on="1"/>
        <pt x="261" y="154" on="1"/>
        <pt x="438" y="662" on="1"/>
        <pt x="446" y="690" on="0"/>
        <pt x="474" y="690" on="1"/>
        <pt x="569" y="690" on="1"/>
        <pt x="581" y="690" on="0"/>
        <pt x="598" y="672" on="0"/>
        <pt x="599" y="659" on="1"/>
        <pt x="640" y="150" on="1"/>
        <pt x="644" y="94" on="0"/>
        <pt x="644" y="65" on="1"/>
        <pt x="669" y="65" on="1"/>
        <pt x="696" y="152" on="1"/>
        <pt x="877" y="690" on="1"/>
      </contour>
    </TTGlyph>
    <TTGlyph name="Wdieresis" xMin="83" yMin="0" xMax="969" yMax="869">
      <contour>
        <pt x="454" y="869" on="1"/>
        <pt x="480" y="869" on="1"/>
        <pt x="505" y="869" on="0"/>
        <pt x="502" y="845" on="1"/>
        <pt x="493" y="790" on="1"/>
        <pt x="490" y="766" on="0"/>
        <pt x="467" y="766" on="1"/>
        <pt x="439" y="766" on="1"/>
        <pt x="414" y="766" on="0"/>
        <pt x="417" y="789" on="1"/>
        <pt x="426" y="845" on="1"/>
        <pt x="429" y="869" on="0"/>
      </contour>
      <contour>
        <pt x="623" y="869" on="1"/>
        <pt x="649" y="869" on="1"/>
        <pt x="674" y="869" on="0"/>
        <pt x="671" y="845" on="1"/>
        <pt x="662" y="790" on="1"/>
        <pt x="659" y="766" on="0"/>
        <pt x="636" y="766" on="1"/>
        <pt x="608" y="766" on="1"/>
        <pt x="583" y="766" on="0"/>
        <pt x="586" y="789" on="1"/>
        <pt x="595" y="845" on="1"/>
        <pt x="598" y="869" on="0"/>
      </contour>
      <contour>
        <pt x="969" y="690" on="1"/>
        <pt x="734" y="24" on="1"/>
        <pt x="726" y="0" on="0"/>
        <pt x="698" y="0" on="1"/>
        <pt x="600" y="0" on="1"/>
        <pt x="587" y="0" on="0"/>
        <pt x="569" y="16" on="0"/>
        <pt x="568" y="29" on="1"/>
        <pt x="532" y="548" on="1"/>
        <pt x="532" y="551" on="0"/>
        <pt x="527" y="609" on="0"/>
        <pt x="526" y="624" on="1"/>
        <pt x="505" y="624" on="1"/>
        <pt x="478" y="544" on="1"/>
        <pt x="299" y="25" on="1"/>
        <pt x="291" y="0" on="0"/>
        <pt x="263" y="0" on="1"/>
        <pt x="166" y="0" on="1"/>
        <pt x="153" y="0" on="0"/>
        <pt x="134" y="16" on="0"/>
        <pt x="133" y="28" on="1"/>
        <pt x="83" y="690" on="1"/>
        <pt x="173" y="690" on="1"/>
        <pt x="205" y="151" on="1"/>
        <pt x="205" y="146" on="0"/>
        <pt x="208" y="65" on="1"/>
        <pt x="232" y="65" on="1"/>
        <pt x="261" y="154" on="1"/>
        <pt x="438" y="662" on="1"/>
        <pt x="446" y="690" on="0"/>
        <pt x="474" y="690" on="1"/>
        <pt x="569" y="690" on="1"/>
        <pt x="581" y="690" on="0"/>
        <pt x="598" y="672" on="0"/>
        <pt x="599" y="659" on="1"/>
        <pt x="640" y="150" on="1"/>
        <pt x="644" y="94" on="0"/>
        <pt x="644" y="65" on="1"/>
        <pt x="669" y="65" on="1"/>
        <pt x="696" y="152" on="1"/>
        <pt x="877" y="690" on="1"/>
      </contour>
    </TTGlyph>
    <TTGlyph name="Wgrave" xMin="83" yMin="0" xMax="969" yMax="913">
      <contour>
        <pt x="584" y="766" on="1"/>
        <pt x="554" y="727" on="1"/>
        <pt x="369" y="852" on="1"/>
        <pt x="415" y="913" on="1"/>
      </contour>
      <contour>
        <pt x="969" y="690" on="1"/>
        <pt x="734" y="24" on="1"/>
        <pt x="726" y="0" on="0"/>
        <pt x="698" y="0" on="1"/>
        <pt x="600" y="0" on="1"/>
        <pt x="587" y="0" on="0"/>
        <pt x="569" y="16" on="0"/>
        <pt x="568" y="29" on="1"/>
        <pt x="532" y="548" on="1"/>
        <pt x="532" y="551" on="0"/>
        <pt x="527" y="609" on="0"/>
        <pt x="526" y="624" on="1"/>
        <pt x="505" y="624" on="1"/>
        <pt x="478" y="544" on="1"/>
        <pt x="299" y="25" on="1"/>
        <pt x="291" y="0" on="0"/>
        <pt x="263" y="0" on="1"/>
        <pt x="166" y="0" on="1"/>
        <pt x="153" y="0" on="0"/>
        <pt x="134" y="16" on="0"/>
        <pt x="133" y="28" on="1"/>
        <pt x="83" y="690" on="1"/>
        <pt x="173" y="690" on="1"/>
        <pt x="205" y="151" on="1"/>
        <pt x="205" y="146" on="0"/>
        <pt x="208" y="65" on="1"/>
        <pt x="232" y="65" on="1"/>
        <pt x="261" y="154" on="1"/>
        <pt x="438" y="662" on="1"/>
        <pt x="446" y="690" on="0"/>
        <pt x="474" y="690" on="1"/>
        <pt x="569" y="690" on="1"/>
        <pt x="581" y="690" on="0"/>
        <pt x="598" y="672" on="0"/>
        <pt x="599" y="659" on="1"/>
        <pt x="640" y="150" on="1"/>
        <pt x="644" y="94" on="0"/>
        <pt x="644" y="65" on="1"/>
        <pt x="669" y="65" on="1"/>
        <pt x="696" y="152" on="1"/>
        <pt x="877" y="690" on="1"/>
      </contour>
    </TTGlyph>
    <TTGlyph name="X" xMin="-18" yMin="0" xMax="630" yMax="690">
      <contour>
        <pt x="400" y="357" on="1"/>
        <pt x="545" y="0" on="1"/>
        <pt x="455" y="0" on="1"/>
        <pt x="328" y="324" on="1"/>
        <pt x="301" y="324" on="1"/>
        <pt x="84" y="0" on="1"/>
        <pt x="-18" y="0" on="1"/>
        <pt x="228" y="357" on="1"/>
        <pt x="94" y="690" on="1"/>
        <pt x="184" y="690" on="1"/>
        <pt x="300" y="392" on="1"/>
        <pt x="328" y="392" on="1"/>
        <pt x="533" y="690" on="1"/>
        <pt x="630" y="690" on="1"/>
      </contour>
    </TTGlyph>
    <TTGlyph name="Y" xMin="64" yMin="0" xMax="609" yMax="690">
      <contour>
        <pt x="317" y="241" on="1"/>
        <pt x="283" y="0" on="1"/>
        <pt x="194" y="0" on="1"/>
        <pt x="229" y="245" on="1"/>
        <pt x="64" y="690" on="1"/>
        <pt x="154" y="690" on="1"/>
        <pt x="258" y="397" on="1"/>
        <pt x="273" y="352" on="0"/>
        <pt x="278" y="319" on="1"/>
        <pt x="286" y="319" on="1"/>
        <pt x="301" y="359" on="0"/>
        <pt x="327" y="400" on="1"/>
        <pt x="513" y="690" on="1"/>
        <pt x="609" y="690" on="1"/>
      </contour>
    </TTGlyph>
    <TTGlyph name="Yacute" xMin="64" yMin="0" xMax="609" yMax="914">
      <contour>
        <pt x="306" y="728" on="1"/>
        <pt x="280" y="768" on="1"/>
        <pt x="471" y="914" on="1"/>
        <pt x="512" y="849" on="1"/>
      </contour>
      <contour>
        <pt x="317" y="241" on="1"/>
        <pt x="283" y="0" on="1"/>
        <pt x="194" y="0" on="1"/>
        <pt x="229" y="245" on="1"/>
        <pt x="64" y="690" on="1"/>
        <pt x="154" y="690" on="1"/>
        <pt x="258" y="397" on="1"/>
        <pt x="273" y="352" on="0"/>
        <pt x="278" y="319" on="1"/>
        <pt x="286" y="319" on="1"/>
        <pt x="301" y="359" on="0"/>
        <pt x="327" y="400" on="1"/>
        <pt x="513" y="690" on="1"/>
        <pt x="609" y="690" on="1"/>
      </contour>
    </TTGlyph>
    <TTGlyph name="Ycircumflex" xMin="64" yMin="0" xMax="609" yMax="896">
      <contour>
        <pt x="208" y="732" on="1"/>
        <pt x="183" y="769" on="1"/>
        <pt x="331" y="896" on="1"/>
        <pt x="392" y="896" on="1"/>
        <pt x="516" y="764" on="1"/>
        <pt x="484" y="730" on="1"/>
        <pt x="365" y="831" on="1"/>
        <pt x="356" y="831" on="1"/>
      </contour>
      <contour>
        <pt x="317" y="241" on="1"/>
        <pt x="283" y="0" on="1"/>
        <pt x="194" y="0" on="1"/>
        <pt x="229" y="245" on="1"/>
        <pt x="64" y="690" on="1"/>
        <pt x="154" y="690" on="1"/>
        <pt x="258" y="397" on="1"/>
        <pt x="273" y="352" on="0"/>
        <pt x="278" y="319" on="1"/>
        <pt x="286" y="319" on="1"/>
        <pt x="301" y="359" on="0"/>
        <pt x="327" y="400" on="1"/>
        <pt x="513" y="690" on="1"/>
        <pt x="609" y="690" on="1"/>
      </contour>
    </TTGlyph>
    <TTGlyph name="Ydieresis" xMin="64" yMin="0" xMax="609" yMax="870">
      <contour>
        <pt x="276" y="767" on="1"/>
        <pt x="248" y="767" on="1"/>
        <pt x="223" y="767" on="0"/>
        <pt x="226" y="790" on="1"/>
        <pt x="235" y="845" on="1"/>
        <pt x="238" y="870" on="0"/>
        <pt x="263" y="870" on="1"/>
        <pt x="289" y="870" on="1"/>
        <pt x="314" y="870" on="0"/>
        <pt x="311" y="845" on="1"/>
        <pt x="302" y="791" on="1"/>
        <pt x="299" y="767" on="0"/>
      </contour>
      <contour>
        <pt x="445" y="767" on="1"/>
        <pt x="417" y="767" on="1"/>
        <pt x="392" y="767" on="0"/>
        <pt x="395" y="790" on="1"/>
        <pt x="404" y="845" on="1"/>
        <pt x="407" y="870" on="0"/>
        <pt x="432" y="870" on="1"/>
        <pt x="458" y="870" on="1"/>
        <pt x="483" y="870" on="0"/>
        <pt x="480" y="845" on="1"/>
        <pt x="471" y="791" on="1"/>
        <pt x="468" y="767" on="0"/>
      </contour>
      <contour>
        <pt x="317" y="241" on="1"/>
        <pt x="283" y="0" on="1"/>
        <pt x="194" y="0" on="1"/>
        <pt x="229" y="245" on="1"/>
        <pt x="64" y="690" on="1"/>
        <pt x="154" y="690" on="1"/>
        <pt x="258" y="397" on="1"/>
        <pt x="273" y="352" on="0"/>
        <pt x="278" y="319" on="1"/>
        <pt x="286" y="319" on="1"/>
        <pt x="301" y="359" on="0"/>
        <pt x="327" y="400" on="1"/>
        <pt x="513" y="690" on="1"/>
        <pt x="609" y="690" on="1"/>
      </contour>
    </TTGlyph>
    <TTGlyph name="Ygrave" xMin="64" yMin="0" xMax="609" yMax="913">
      <contour>
        <pt x="363" y="728" on="1"/>
        <pt x="178" y="853" on="1"/>
        <pt x="224" y="913" on="1"/>
        <pt x="394" y="766" on="1"/>
      </contour>
      <contour>
        <pt x="317" y="241" on="1"/>
        <pt x="283" y="0" on="1"/>
        <pt x="194" y="0" on="1"/>
        <pt x="229" y="245" on="1"/>
        <pt x="64" y="690" on="1"/>
        <pt x="154" y="690" on="1"/>
        <pt x="258" y="397" on="1"/>
        <pt x="273" y="352" on="0"/>
        <pt x="278" y="319" on="1"/>
        <pt x="286" y="319" on="1"/>
        <pt x="301" y="359" on="0"/>
        <pt x="327" y="400" on="1"/>
        <pt x="513" y="690" on="1"/>
        <pt x="609" y="690" on="1"/>
      </contour>
    </TTGlyph>
    <TTGlyph name="Z" xMin="6" yMin="0" xMax="567" yMax="690">
      <contour>
        <pt x="113" y="75" on="1"/>
        <pt x="487" y="75" on="1"/>
        <pt x="476" y="0" on="1"/>
        <pt x="6" y="0" on="1"/>
        <pt x="16" y="75" on="1"/>
        <pt x="458" y="615" on="1"/>
        <pt x="97" y="615" on="1"/>
        <pt x="108" y="690" on="1"/>
        <pt x="567" y="690" on="1"/>
        <pt x="556" y="615" on="1"/>
      </contour>
    </TTGlyph>
    <TTGlyph name="Zacute" xMin="6" yMin="0" xMax="567" yMax="914">
      <contour>
        <pt x="311" y="728" on="1"/>
        <pt x="284" y="768" on="1"/>
        <pt x="476" y="914" on="1"/>
        <pt x="517" y="849" on="1"/>
      </contour>
      <contour>
        <pt x="113" y="75" on="1"/>
        <pt x="487" y="75" on="1"/>
        <pt x="476" y="0" on="1"/>
        <pt x="6" y="0" on="1"/>
        <pt x="16" y="75" on="1"/>
        <pt x="458" y="615" on="1"/>
        <pt x="97" y="615" on="1"/>
        <pt x="108" y="690" on="1"/>
        <pt x="567" y="690" on="1"/>
        <pt x="556" y="615" on="1"/>
      </contour>
    </TTGlyph>
    <TTGlyph name="Zcaron" xMin="6" yMin="0" xMax="567" yMax="908">
      <contour>
        <pt x="319" y="744" on="1"/>
        <pt x="202" y="876" on="1"/>
        <pt x="236" y="908" on="1"/>
        <pt x="349" y="808" on="1"/>
        <pt x="357" y="808" on="1"/>
        <pt x="504" y="908" on="1"/>
        <pt x="530" y="871" on="1"/>
        <pt x="381" y="744" on="1"/>
      </contour>
      <contour>
        <pt x="113" y="75" on="1"/>
        <pt x="487" y="75" on="1"/>
        <pt x="476" y="0" on="1"/>
        <pt x="6" y="0" on="1"/>
        <pt x="16" y="75" on="1"/>
        <pt x="458" y="615" on="1"/>
        <pt x="97" y="615" on="1"/>
        <pt x="108" y="690" on="1"/>
        <pt x="567" y="690" on="1"/>
        <pt x="556" y="615" on="1"/>
      </contour>
    </TTGlyph>
    <TTGlyph name="Zdotaccent" xMin="6" yMin="0" xMax="567" yMax="867">
      <contour>
        <pt x="366" y="759" on="1"/>
        <pt x="339" y="759" on="1"/>
        <pt x="326" y="759" on="0"/>
        <pt x="312" y="774" on="0"/>
        <pt x="314" y="786" on="1"/>
        <pt x="322" y="843" on="1"/>
        <pt x="325" y="867" on="0"/>
        <pt x="349" y="867" on="1"/>
        <pt x="376" y="867" on="1"/>
        <pt x="404" y="867" on="0"/>
        <pt x="401" y="840" on="1"/>
        <pt x="393" y="783" on="1"/>
        <pt x="389" y="759" on="0"/>
      </contour>
      <contour>
        <pt x="113" y="75" on="1"/>
        <pt x="487" y="75" on="1"/>
        <pt x="476" y="0" on="1"/>
        <pt x="6" y="0" on="1"/>
        <pt x="16" y="75" on="1"/>
        <pt x="458" y="615" on="1"/>
        <pt x="97" y="615" on="1"/>
        <pt x="108" y="690" on="1"/>
        <pt x="567" y="690" on="1"/>
        <pt x="556" y="615" on="1"/>
      </contour>
    </TTGlyph>
    <TTGlyph name="a" xMin="51" yMin="-12" xMax="523" yMax="499">
      <contour>
        <pt x="456" y="0" on="1"/>
        <pt x="389" y="0" on="1"/>
        <pt x="395" y="98" on="1"/>
        <pt x="301" y="-12" on="0"/>
        <pt x="178" y="-12" on="1"/>
        <pt x="90" y="-12" on="0"/>
        <pt x="30" y="105" on="0"/>
        <pt x="51" y="249" on="1"/>
        <pt x="62" y="330" on="0"/>
        <pt x="101" y="431" on="0"/>
        <pt x="165" y="482" on="0"/>
        <pt x="237" y="499" on="0"/>
        <pt x="294" y="499" on="1"/>
        <pt x="403" y="499" on="0"/>
        <pt x="523" y="476" on="1"/>
      </contour>
      <contour>
        <pt x="394" y="171" on="1"/>
        <pt x="430" y="425" on="1"/>
        <pt x="358" y="428" on="0"/>
        <pt x="320" y="428" on="1"/>
        <pt x="219" y="428" on="0"/>
        <pt x="154" y="363" on="0"/>
        <pt x="136" y="242" on="1"/>
        <pt x="121" y="132" on="0"/>
        <pt x="144" y="62" on="0"/>
        <pt x="195" y="62" on="1"/>
        <pt x="282" y="62" on="0"/>
      </contour>
    </TTGlyph>
    <TTGlyph name="aacute" xMin="51" yMin="-12" xMax="523" yMax="734">
      <contour>
        <pt x="288" y="548" on="1"/>
        <pt x="261" y="588" on="1"/>
        <pt x="453" y="734" on="1"/>
        <pt x="494" y="669" on="1"/>
      </contour>
      <contour>
        <pt x="456" y="0" on="1"/>
        <pt x="389" y="0" on="1"/>
        <pt x="395" y="98" on="1"/>
        <pt x="301" y="-12" on="0"/>
        <pt x="178" y="-12" on="1"/>
        <pt x="90" y="-12" on="0"/>
        <pt x="30" y="105" on="0"/>
        <pt x="51" y="249" on="1"/>
        <pt x="62" y="330" on="0"/>
        <pt x="101" y="431" on="0"/>
        <pt x="165" y="482" on="0"/>
        <pt x="237" y="499" on="0"/>
        <pt x="294" y="499" on="1"/>
        <pt x="403" y="499" on="0"/>
        <pt x="523" y="476" on="1"/>
      </contour>
      <contour>
        <pt x="394" y="171" on="1"/>
        <pt x="430" y="425" on="1"/>
        <pt x="358" y="428" on="0"/>
        <pt x="320" y="428" on="1"/>
        <pt x="219" y="428" on="0"/>
        <pt x="154" y="363" on="0"/>
        <pt x="136" y="242" on="1"/>
        <pt x="121" y="132" on="0"/>
        <pt x="144" y="62" on="0"/>
        <pt x="195" y="62" on="1"/>
        <pt x="282" y="62" on="0"/>
      </contour>
    </TTGlyph>
    <TTGlyph name="abreve" xMin="51" yMin="-12" xMax="523" yMax="706">
      <contour>
        <pt x="449" y="706" on="1"/>
        <pt x="492" y="695" on="1"/>
        <pt x="487" y="637" on="0"/>
        <pt x="399" y="566" on="0"/>
        <pt x="330" y="566" on="1"/>
        <pt x="256" y="566" on="0"/>
        <pt x="181" y="640" on="0"/>
        <pt x="193" y="699" on="1"/>
        <pt x="237" y="702" on="1"/>
        <pt x="232" y="667" on="0"/>
        <pt x="281" y="629" on="0"/>
        <pt x="329" y="629" on="1"/>
        <pt x="381" y="629" on="0"/>
        <pt x="444" y="670" on="0"/>
      </contour>
      <contour>
        <pt x="456" y="0" on="1"/>
        <pt x="389" y="0" on="1"/>
        <pt x="395" y="98" on="1"/>
        <pt x="301" y="-12" on="0"/>
        <pt x="178" y="-12" on="1"/>
        <pt x="90" y="-12" on="0"/>
        <pt x="30" y="105" on="0"/>
        <pt x="51" y="249" on="1"/>
        <pt x="62" y="330" on="0"/>
        <pt x="101" y="431" on="0"/>
        <pt x="165" y="482" on="0"/>
        <pt x="237" y="499" on="0"/>
        <pt x="294" y="499" on="1"/>
        <pt x="403" y="499" on="0"/>
        <pt x="523" y="476" on="1"/>
      </contour>
      <contour>
        <pt x="394" y="171" on="1"/>
        <pt x="430" y="425" on="1"/>
        <pt x="358" y="428" on="0"/>
        <pt x="320" y="428" on="1"/>
        <pt x="219" y="428" on="0"/>
        <pt x="154" y="363" on="0"/>
        <pt x="136" y="242" on="1"/>
        <pt x="121" y="132" on="0"/>
        <pt x="144" y="62" on="0"/>
        <pt x="195" y="62" on="1"/>
        <pt x="282" y="62" on="0"/>
      </contour>
    </TTGlyph>
    <TTGlyph name="acircumflex" xMin="51" yMin="-12" xMax="523" yMax="716">
      <contour>
        <pt x="190" y="552" on="1"/>
        <pt x="165" y="589" on="1"/>
        <pt x="313" y="716" on="1"/>
        <pt x="374" y="716" on="1"/>
        <pt x="498" y="584" on="1"/>
        <pt x="466" y="550" on="1"/>
        <pt x="347" y="651" on="1"/>
        <pt x="338" y="651" on="1"/>
      </contour>
      <contour>
        <pt x="456" y="0" on="1"/>
        <pt x="389" y="0" on="1"/>
        <pt x="395" y="98" on="1"/>
        <pt x="301" y="-12" on="0"/>
        <pt x="178" y="-12" on="1"/>
        <pt x="90" y="-12" on="0"/>
        <pt x="30" y="105" on="0"/>
        <pt x="51" y="249" on="1"/>
        <pt x="62" y="330" on="0"/>
        <pt x="101" y="431" on="0"/>
        <pt x="165" y="482" on="0"/>
        <pt x="237" y="499" on="0"/>
        <pt x="294" y="499" on="1"/>
        <pt x="403" y="499" on="0"/>
        <pt x="523" y="476" on="1"/>
      </contour>
      <contour>
        <pt x="394" y="171" on="1"/>
        <pt x="430" y="425" on="1"/>
        <pt x="358" y="428" on="0"/>
        <pt x="320" y="428" on="1"/>
        <pt x="219" y="428" on="0"/>
        <pt x="154" y="363" on="0"/>
        <pt x="136" y="242" on="1"/>
        <pt x="121" y="132" on="0"/>
        <pt x="144" y="62" on="0"/>
        <pt x="195" y="62" on="1"/>
        <pt x="282" y="62" on="0"/>
      </contour>
    </TTGlyph>
    <TTGlyph name="acute" xMin="101" yMin="538" xMax="334" yMax="724">
      <contour>
        <pt x="334" y="658" on="1"/>
        <pt x="127" y="538" on="1"/>
        <pt x="101" y="577" on="1"/>
        <pt x="293" y="724" on="1"/>
      </contour>
    </TTGlyph>
    <TTGlyph name="adieresis" xMin="51" yMin="-12" xMax="523" yMax="690">
      <contour>
        <pt x="258" y="587" on="1"/>
        <pt x="230" y="587" on="1"/>
        <pt x="205" y="587" on="0"/>
        <pt x="208" y="610" on="1"/>
        <pt x="217" y="666" on="1"/>
        <pt x="220" y="690" on="0"/>
        <pt x="245" y="690" on="1"/>
        <pt x="271" y="690" on="1"/>
        <pt x="296" y="690" on="0"/>
        <pt x="293" y="666" on="1"/>
        <pt x="284" y="611" on="1"/>
        <pt x="281" y="587" on="0"/>
      </contour>
      <contour>
        <pt x="427" y="587" on="1"/>
        <pt x="399" y="587" on="1"/>
        <pt x="374" y="587" on="0"/>
        <pt x="377" y="610" on="1"/>
        <pt x="386" y="666" on="1"/>
        <pt x="389" y="690" on="0"/>
        <pt x="414" y="690" on="1"/>
        <pt x="440" y="690" on="1"/>
        <pt x="465" y="690" on="0"/>
        <pt x="462" y="666" on="1"/>
        <pt x="453" y="611" on="1"/>
        <pt x="450" y="587" on="0"/>
      </contour>
      <contour>
        <pt x="456" y="0" on="1"/>
        <pt x="389" y="0" on="1"/>
        <pt x="395" y="98" on="1"/>
        <pt x="301" y="-12" on="0"/>
        <pt x="178" y="-12" on="1"/>
        <pt x="90" y="-12" on="0"/>
        <pt x="30" y="105" on="0"/>
        <pt x="51" y="249" on="1"/>
        <pt x="62" y="330" on="0"/>
        <pt x="101" y="431" on="0"/>
        <pt x="165" y="482" on="0"/>
        <pt x="237" y="499" on="0"/>
        <pt x="294" y="499" on="1"/>
        <pt x="403" y="499" on="0"/>
        <pt x="523" y="476" on="1"/>
      </contour>
      <contour>
        <pt x="394" y="171" on="1"/>
        <pt x="430" y="425" on="1"/>
        <pt x="358" y="428" on="0"/>
        <pt x="320" y="428" on="1"/>
        <pt x="219" y="428" on="0"/>
        <pt x="154" y="363" on="0"/>
        <pt x="136" y="242" on="1"/>
        <pt x="121" y="132" on="0"/>
        <pt x="144" y="62" on="0"/>
        <pt x="195" y="62" on="1"/>
        <pt x="282" y="62" on="0"/>
      </contour>
    </TTGlyph>
    <TTGlyph name="ae" xMin="50" yMin="-12" xMax="832" yMax="499">
      <contour>
        <pt x="772" y="72" on="1"/>
        <pt x="778" y="15" on="1"/>
        <pt x="712" y="-12" on="0"/>
        <pt x="582" y="-12" on="1"/>
        <pt x="424" y="-12" on="0"/>
        <pt x="390" y="97" on="1"/>
        <pt x="299" y="-12" on="0"/>
        <pt x="175" y="-12" on="1"/>
        <pt x="88" y="-12" on="0"/>
        <pt x="30" y="107" on="0"/>
        <pt x="50" y="249" on="1"/>
        <pt x="61" y="330" on="0"/>
        <pt x="100" y="431" on="0"/>
        <pt x="165" y="482" on="0"/>
        <pt x="236" y="499" on="0"/>
        <pt x="292" y="499" on="1"/>
        <pt x="395" y="499" on="0"/>
        <pt x="508" y="477" on="1"/>
        <pt x="559" y="499" on="0"/>
        <pt x="651" y="499" on="1"/>
        <pt x="762" y="499" on="0"/>
        <pt x="844" y="422" on="0"/>
        <pt x="832" y="343" on="1"/>
        <pt x="820" y="274" on="0"/>
        <pt x="735" y="214" on="0"/>
        <pt x="647" y="207" on="1"/>
        <pt x="467" y="191" on="1"/>
        <pt x="464" y="114" on="0"/>
        <pt x="527" y="60" on="0"/>
        <pt x="597" y="60" on="1"/>
        <pt x="685" y="60" on="0"/>
      </contour>
      <contour>
        <pt x="192" y="62" on="1"/>
        <pt x="276" y="62" on="0"/>
        <pt x="379" y="162" on="1"/>
        <pt x="378" y="204" on="0"/>
        <pt x="385" y="255" on="1"/>
        <pt x="400" y="370" on="0"/>
        <pt x="440" y="423" on="1"/>
        <pt x="352" y="428" on="0"/>
        <pt x="318" y="428" on="1"/>
        <pt x="219" y="428" on="0"/>
        <pt x="155" y="362" on="0"/>
        <pt x="138" y="242" on="1"/>
        <pt x="123" y="133" on="0"/>
        <pt x="144" y="62" on="0"/>
      </contour>
      <contour>
        <pt x="473" y="254" on="1"/>
        <pt x="646" y="271" on="1"/>
        <pt x="695" y="275" on="0"/>
        <pt x="740" y="308" on="0"/>
        <pt x="747" y="350" on="1"/>
        <pt x="755" y="401" on="0"/>
        <pt x="708" y="428" on="0"/>
        <pt x="640" y="428" on="1"/>
        <pt x="557" y="428" on="0"/>
        <pt x="489" y="361" on="0"/>
      </contour>
    </TTGlyph>
    <TTGlyph name="agrave" xMin="51" yMin="-12" xMax="523" yMax="733">
      <contour>
        <pt x="345" y="548" on="1"/>
        <pt x="160" y="673" on="1"/>
        <pt x="206" y="733" on="1"/>
        <pt x="375" y="586" on="1"/>
      </contour>
      <contour>
        <pt x="456" y="0" on="1"/>
        <pt x="389" y="0" on="1"/>
        <pt x="395" y="98" on="1"/>
        <pt x="301" y="-12" on="0"/>
        <pt x="178" y="-12" on="1"/>
        <pt x="90" y="-12" on="0"/>
        <pt x="30" y="105" on="0"/>
        <pt x="51" y="249" on="1"/>
        <pt x="62" y="330" on="0"/>
        <pt x="101" y="431" on="0"/>
        <pt x="165" y="482" on="0"/>
        <pt x="237" y="499" on="0"/>
        <pt x="294" y="499" on="1"/>
        <pt x="403" y="499" on="0"/>
        <pt x="523" y="476" on="1"/>
      </contour>
      <contour>
        <pt x="394" y="171" on="1"/>
        <pt x="430" y="425" on="1"/>
        <pt x="358" y="428" on="0"/>
        <pt x="320" y="428" on="1"/>
        <pt x="219" y="428" on="0"/>
        <pt x="154" y="363" on="0"/>
        <pt x="136" y="242" on="1"/>
        <pt x="121" y="132" on="0"/>
        <pt x="144" y="62" on="0"/>
        <pt x="195" y="62" on="1"/>
        <pt x="282" y="62" on="0"/>
      </contour>
    </TTGlyph>
    <TTGlyph name="amacron" xMin="51" yMin="-12" xMax="523" yMax="669">
      <contour>
        <pt x="470" y="606" on="1"/>
        <pt x="191" y="606" on="1"/>
        <pt x="200" y="669" on="1"/>
        <pt x="478" y="669" on="1"/>
      </contour>
      <contour>
        <pt x="456" y="0" on="1"/>
        <pt x="389" y="0" on="1"/>
        <pt x="395" y="98" on="1"/>
        <pt x="301" y="-12" on="0"/>
        <pt x="178" y="-12" on="1"/>
        <pt x="90" y="-12" on="0"/>
        <pt x="30" y="105" on="0"/>
        <pt x="51" y="249" on="1"/>
        <pt x="62" y="330" on="0"/>
        <pt x="101" y="431" on="0"/>
        <pt x="165" y="482" on="0"/>
        <pt x="237" y="499" on="0"/>
        <pt x="294" y="499" on="1"/>
        <pt x="403" y="499" on="0"/>
        <pt x="523" y="476" on="1"/>
      </contour>
      <contour>
        <pt x="394" y="171" on="1"/>
        <pt x="430" y="425" on="1"/>
        <pt x="358" y="428" on="0"/>
        <pt x="320" y="428" on="1"/>
        <pt x="219" y="428" on="0"/>
        <pt x="154" y="363" on="0"/>
        <pt x="136" y="242" on="1"/>
        <pt x="121" y="132" on="0"/>
        <pt x="144" y="62" on="0"/>
        <pt x="195" y="62" on="1"/>
        <pt x="282" y="62" on="0"/>
      </contour>
    </TTGlyph>
    <TTGlyph name="ampersand" xMin="44" yMin="-11" xMax="727" yMax="700">
      <contour>
        <pt x="716" y="324" on="1"/>
        <pt x="609" y="324" on="1"/>
        <pt x="592" y="212" on="0"/>
        <pt x="547" y="141" on="1"/>
        <pt x="454" y="-9" on="0"/>
        <pt x="238" y="-11" on="1"/>
        <pt x="123" y="-12" on="0"/>
        <pt x="31" y="75" on="0"/>
        <pt x="44" y="178" on="1"/>
        <pt x="55" y="263" on="0"/>
        <pt x="139" y="352" on="0"/>
        <pt x="216" y="356" on="1"/>
        <pt x="217" y="361" on="1"/>
        <pt x="92" y="370" on="0"/>
        <pt x="119" y="524" on="1"/>
        <pt x="137" y="630" on="0"/>
        <pt x="256" y="700" on="0"/>
        <pt x="380" y="700" on="1"/>
        <pt x="469" y="700" on="0"/>
        <pt x="549" y="679" on="1"/>
        <pt x="534" y="613" on="1"/>
        <pt x="469" y="628" on="0"/>
        <pt x="382" y="628" on="1"/>
        <pt x="290" y="628" on="0"/>
        <pt x="217" y="581" on="0"/>
        <pt x="205" y="507" on="1"/>
        <pt x="194" y="439" on="0"/>
        <pt x="247" y="391" on="0"/>
        <pt x="326" y="391" on="1"/>
        <pt x="538" y="391" on="1"/>
        <pt x="541" y="431" on="0"/>
        <pt x="541" y="520" on="1"/>
        <pt x="619" y="520" on="1"/>
        <pt x="620" y="451" on="0"/>
        <pt x="616" y="391" on="1"/>
        <pt x="727" y="391" on="1"/>
      </contour>
      <contour>
        <pt x="531" y="324" on="1"/>
        <pt x="317" y="324" on="1"/>
        <pt x="229" y="323" on="0"/>
        <pt x="150" y="267" on="0"/>
        <pt x="137" y="186" on="1"/>
        <pt x="126" y="116" on="0"/>
        <pt x="174" y="65" on="0"/>
        <pt x="244" y="65" on="1"/>
        <pt x="402" y="65" on="0"/>
        <pt x="476" y="174" on="1"/>
        <pt x="517" y="231" on="0"/>
      </contour>
    </TTGlyph>
    <TTGlyph name="aogonek" xMin="51" yMin="-213" xMax="523" yMax="499">
      <contour>
        <pt x="523" y="476" on="1"/>
        <pt x="456" y="0" on="1"/>
        <pt x="401" y="-56" on="0"/>
        <pt x="367" y="-117" on="1"/>
        <pt x="347" y="-152" on="0"/>
        <pt x="385" y="-173" on="0"/>
        <pt x="435" y="-157" on="1"/>
        <pt x="445" y="-194" on="1"/>
        <pt x="407" y="-209" on="0"/>
        <pt x="346" y="-216" on="0"/>
        <pt x="310" y="-202" on="0"/>
        <pt x="291" y="-174" on="0"/>
        <pt x="294" y="-135" on="0"/>
        <pt x="305" y="-114" on="1"/>
        <pt x="334" y="-57" on="0"/>
        <pt x="411" y="0" on="1"/>
        <pt x="389" y="0" on="1"/>
        <pt x="395" y="98" on="1"/>
        <pt x="301" y="-12" on="0"/>
        <pt x="178" y="-12" on="1"/>
        <pt x="90" y="-12" on="0"/>
        <pt x="30" y="105" on="0"/>
        <pt x="51" y="249" on="1"/>
        <pt x="62" y="330" on="0"/>
        <pt x="101" y="431" on="0"/>
        <pt x="165" y="482" on="0"/>
        <pt x="237" y="499" on="0"/>
        <pt x="294" y="499" on="1"/>
        <pt x="403" y="499" on="0"/>
      </contour>
      <contour>
        <pt x="394" y="171" on="1"/>
        <pt x="430" y="425" on="1"/>
        <pt x="358" y="428" on="0"/>
        <pt x="320" y="428" on="1"/>
        <pt x="219" y="428" on="0"/>
        <pt x="154" y="363" on="0"/>
        <pt x="136" y="242" on="1"/>
        <pt x="121" y="132" on="0"/>
        <pt x="144" y="62" on="0"/>
        <pt x="195" y="62" on="1"/>
        <pt x="282" y="62" on="0"/>
      </contour>
    </TTGlyph>
    <TTGlyph name="approxequal" xMin="54" yMin="133" xMax="531" yMax="447">
      <contour>
        <pt x="137" y="325" on="1"/>
        <pt x="82" y="329" on="1"/>
        <pt x="83" y="393" on="0"/>
        <pt x="139" y="449" on="0"/>
        <pt x="188" y="447" on="1"/>
        <pt x="225" y="446" on="0"/>
        <pt x="382" y="390" on="0"/>
        <pt x="417" y="389" on="1"/>
        <pt x="443" y="388" on="0"/>
        <pt x="469" y="411" on="0"/>
        <pt x="474" y="444" on="1"/>
        <pt x="531" y="440" on="1"/>
        <pt x="530" y="381" on="0"/>
        <pt x="476" y="323" on="0"/>
        <pt x="421" y="324" on="1"/>
        <pt x="381" y="325" on="0"/>
        <pt x="225" y="382" on="0"/>
        <pt x="194" y="383" on="1"/>
        <pt x="168" y="384" on="0"/>
        <pt x="142" y="359" on="0"/>
      </contour>
      <contour>
        <pt x="110" y="134" on="1"/>
        <pt x="54" y="137" on="1"/>
        <pt x="55" y="201" on="0"/>
        <pt x="112" y="258" on="0"/>
        <pt x="161" y="256" on="1"/>
        <pt x="198" y="255" on="0"/>
        <pt x="356" y="198" on="0"/>
        <pt x="390" y="197" on="1"/>
        <pt x="416" y="196" on="0"/>
        <pt x="442" y="220" on="0"/>
        <pt x="447" y="252" on="1"/>
        <pt x="504" y="249" on="1"/>
        <pt x="503" y="189" on="0"/>
        <pt x="449" y="132" on="0"/>
        <pt x="394" y="133" on="1"/>
        <pt x="353" y="134" on="0"/>
        <pt x="198" y="191" on="0"/>
        <pt x="167" y="192" on="1"/>
        <pt x="141" y="192" on="0"/>
        <pt x="115" y="168" on="0"/>
      </contour>
    </TTGlyph>
    <TTGlyph name="aring" xMin="51" yMin="-12" xMax="523" yMax="745">
      <contour>
        <pt x="329" y="535" on="1"/>
        <pt x="280" y="535" on="0"/>
        <pt x="224" y="596" on="0"/>
        <pt x="229" y="643" on="1"/>
        <pt x="234" y="686" on="0"/>
        <pt x="295" y="745" on="0"/>
        <pt x="341" y="745" on="1"/>
        <pt x="389" y="745" on="0"/>
        <pt x="447" y="683" on="0"/>
        <pt x="442" y="636" on="1"/>
        <pt x="437" y="593" on="0"/>
        <pt x="376" y="535" on="0"/>
      </contour>
      <contour>
        <pt x="277" y="639" on="1"/>
        <pt x="273" y="612" on="0"/>
        <pt x="305" y="579" on="0"/>
        <pt x="330" y="579" on="1"/>
        <pt x="356" y="579" on="0"/>
        <pt x="392" y="614" on="0"/>
        <pt x="394" y="641" on="1"/>
        <pt x="397" y="667" on="0"/>
        <pt x="368" y="701" on="0"/>
        <pt x="342" y="701" on="1"/>
        <pt x="314" y="701" on="0"/>
        <pt x="279" y="666" on="0"/>
      </contour>
      <contour>
        <pt x="456" y="0" on="1"/>
        <pt x="389" y="0" on="1"/>
        <pt x="395" y="98" on="1"/>
        <pt x="301" y="-12" on="0"/>
        <pt x="178" y="-12" on="1"/>
        <pt x="90" y="-12" on="0"/>
        <pt x="30" y="105" on="0"/>
        <pt x="51" y="249" on="1"/>
        <pt x="62" y="330" on="0"/>
        <pt x="101" y="431" on="0"/>
        <pt x="165" y="482" on="0"/>
        <pt x="237" y="499" on="0"/>
        <pt x="294" y="499" on="1"/>
        <pt x="403" y="499" on="0"/>
        <pt x="523" y="476" on="1"/>
      </contour>
      <contour>
        <pt x="394" y="171" on="1"/>
        <pt x="430" y="425" on="1"/>
        <pt x="358" y="428" on="0"/>
        <pt x="320" y="428" on="1"/>
        <pt x="219" y="428" on="0"/>
        <pt x="154" y="363" on="0"/>
        <pt x="136" y="242" on="1"/>
        <pt x="121" y="132" on="0"/>
        <pt x="144" y="62" on="0"/>
        <pt x="195" y="62" on="1"/>
        <pt x="282" y="62" on="0"/>
      </contour>
    </TTGlyph>
    <TTGlyph name="asciicircum" xMin="50" yMin="368" xMax="417" yMax="601">
      <contour>
        <pt x="417" y="389" on="1"/>
        <pt x="380" y="368" on="1"/>
        <pt x="263" y="542" on="1"/>
        <pt x="255" y="542" on="1"/>
        <pt x="84" y="368" on="1"/>
        <pt x="50" y="390" on="1"/>
        <pt x="232" y="601" on="1"/>
        <pt x="294" y="601" on="1"/>
      </contour>
    </TTGlyph>
    <TTGlyph name="asciitilde" xMin="66" yMin="225" xMax="454" yMax="348">
      <contour>
        <pt x="110" y="226" on="1"/>
        <pt x="66" y="230" on="1"/>
        <pt x="67" y="289" on="0"/>
        <pt x="118" y="350" on="0"/>
        <pt x="155" y="348" on="1"/>
        <pt x="194" y="346" on="0"/>
        <pt x="326" y="292" on="0"/>
        <pt x="380" y="286" on="0"/>
        <pt x="406" y="312" on="0"/>
        <pt x="411" y="344" on="1"/>
        <pt x="454" y="341" on="1"/>
        <pt x="453" y="283" on="0"/>
        <pt x="404" y="223" on="0"/>
        <pt x="366" y="225" on="1"/>
        <pt x="321" y="227" on="0"/>
        <pt x="190" y="282" on="0"/>
        <pt x="167" y="284" on="1"/>
        <pt x="140" y="287" on="0"/>
        <pt x="114" y="259" on="0"/>
      </contour>
    </TTGlyph>
    <TTGlyph name="asterisk" xMin="88" yMin="371" xMax="432" yMax="691">
      <contour>
        <pt x="274" y="530" on="1"/>
        <pt x="358" y="401" on="1"/>
        <pt x="315" y="371" on="1"/>
        <pt x="254" y="494" on="1"/>
        <pt x="160" y="372" on="1"/>
        <pt x="120" y="403" on="1"/>
        <pt x="239" y="530" on="1"/>
        <pt x="253" y="691" on="1"/>
        <pt x="306" y="691" on="1"/>
      </contour>
      <contour>
        <pt x="225" y="555" on="1"/>
        <pt x="222" y="533" on="1"/>
        <pt x="209" y="519" on="1"/>
        <pt x="88" y="553" on="1"/>
        <pt x="108" y="601" on="1"/>
      </contour>
      <contour>
        <pt x="432" y="549" on="1"/>
        <pt x="303" y="519" on="1"/>
        <pt x="295" y="533" on="1"/>
        <pt x="295" y="555" on="1"/>
        <pt x="421" y="601" on="1"/>
      </contour>
    </TTGlyph>
    <TTGlyph name="at" xMin="57" yMin="-12" xMax="713" yMax="642">
      <contour>
        <pt x="111" y="571" on="1"/>
        <pt x="118" y="634" on="1"/>
        <pt x="238" y="640" on="0"/>
        <pt x="430" y="642" on="1"/>
        <pt x="500" y="643" on="0"/>
        <pt x="588" y="635" on="0"/>
        <pt x="661" y="609" on="0"/>
        <pt x="696" y="567" on="0"/>
        <pt x="715" y="489" on="0"/>
        <pt x="710" y="389" on="0"/>
        <pt x="700" y="314" on="1"/>
        <pt x="684" y="184" on="0"/>
        <pt x="637" y="48" on="0"/>
        <pt x="558" y="-8" on="0"/>
        <pt x="490" y="-8" on="1"/>
        <pt x="381" y="-8" on="0"/>
        <pt x="378" y="95" on="1"/>
        <pt x="289" y="-12" on="0"/>
        <pt x="181" y="-12" on="1"/>
        <pt x="96" y="-12" on="0"/>
        <pt x="36" y="105" on="0"/>
        <pt x="57" y="229" on="1"/>
        <pt x="69" y="300" on="0"/>
        <pt x="107" y="388" on="0"/>
        <pt x="168" y="435" on="0"/>
        <pt x="239" y="451" on="0"/>
        <pt x="295" y="451" on="1"/>
        <pt x="379" y="451" on="0"/>
        <pt x="510" y="428" on="1"/>
        <pt x="462" y="114" on="1"/>
        <pt x="459" y="87" on="0"/>
        <pt x="475" y="64" on="0"/>
        <pt x="497" y="64" on="1"/>
        <pt x="554" y="64" on="0"/>
        <pt x="601" y="168" on="0"/>
        <pt x="621" y="321" on="1"/>
        <pt x="628" y="370" on="0"/>
        <pt x="635" y="434" on="0"/>
        <pt x="632" y="492" on="0"/>
        <pt x="627" y="524" on="0"/>
        <pt x="600" y="551" on="0"/>
        <pt x="577" y="562" on="0"/>
        <pt x="521" y="570" on="0"/>
        <pt x="473" y="571" on="0"/>
        <pt x="428" y="571" on="1"/>
      </contour>
      <contour>
        <pt x="387" y="173" on="1"/>
        <pt x="419" y="379" on="1"/>
        <pt x="350" y="382" on="0"/>
        <pt x="324" y="382" on="1"/>
        <pt x="222" y="382" on="0"/>
        <pt x="157" y="326" on="0"/>
        <pt x="139" y="222" on="1"/>
        <pt x="124" y="130" on="0"/>
        <pt x="148" y="60" on="0"/>
        <pt x="199" y="60" on="1"/>
        <pt x="246" y="60" on="0"/>
        <pt x="332" y="114" on="0"/>
      </contour>
    </TTGlyph>
    <TTGlyph name="atilde" xMin="51" yMin="-12" xMax="523" yMax="700">
      <contour>
        <pt x="461" y="697" on="1"/>
        <pt x="501" y="693" on="1"/>
        <pt x="499" y="638" on="0"/>
        <pt x="450" y="580" on="0"/>
        <pt x="412" y="583" on="1"/>
        <pt x="373" y="586" on="0"/>
        <pt x="288" y="638" on="0"/>
        <pt x="270" y="640" on="1"/>
        <pt x="242" y="643" on="0"/>
        <pt x="214" y="615" on="0"/>
        <pt x="209" y="584" on="1"/>
        <pt x="169" y="587" on="1"/>
        <pt x="172" y="645" on="0"/>
        <pt x="222" y="703" on="0"/>
        <pt x="259" y="700" on="1"/>
        <pt x="293" y="697" on="0"/>
        <pt x="376" y="647" on="0"/>
        <pt x="400" y="644" on="1"/>
        <pt x="429" y="641" on="0"/>
        <pt x="457" y="667" on="0"/>
      </contour>
      <contour>
        <pt x="456" y="0" on="1"/>
        <pt x="389" y="0" on="1"/>
        <pt x="395" y="98" on="1"/>
        <pt x="301" y="-12" on="0"/>
        <pt x="178" y="-12" on="1"/>
        <pt x="90" y="-12" on="0"/>
        <pt x="30" y="105" on="0"/>
        <pt x="51" y="249" on="1"/>
        <pt x="62" y="330" on="0"/>
        <pt x="101" y="431" on="0"/>
        <pt x="165" y="482" on="0"/>
        <pt x="237" y="499" on="0"/>
        <pt x="294" y="499" on="1"/>
        <pt x="403" y="499" on="0"/>
        <pt x="523" y="476" on="1"/>
      </contour>
      <contour>
        <pt x="394" y="171" on="1"/>
        <pt x="430" y="425" on="1"/>
        <pt x="358" y="428" on="0"/>
        <pt x="320" y="428" on="1"/>
        <pt x="219" y="428" on="0"/>
        <pt x="154" y="363" on="0"/>
        <pt x="136" y="242" on="1"/>
        <pt x="121" y="132" on="0"/>
        <pt x="144" y="62" on="0"/>
        <pt x="195" y="62" on="1"/>
        <pt x="282" y="62" on="0"/>
      </contour>
    </TTGlyph>
    <TTGlyph name="b" xMin="37" yMin="-13" xMax="508" yMax="700">
      <contour>
        <pt x="216" y="700" on="1"/>
        <pt x="189" y="498" on="1"/>
        <pt x="178" y="423" on="0"/>
        <pt x="163" y="379" on="1"/>
        <pt x="212" y="430" on="0"/>
        <pt x="329" y="499" on="0"/>
        <pt x="380" y="499" on="1"/>
        <pt x="467" y="499" on="0"/>
        <pt x="528" y="387" on="0"/>
        <pt x="508" y="238" on="1"/>
        <pt x="497" y="157" on="0"/>
        <pt x="458" y="55" on="0"/>
        <pt x="395" y="4" on="0"/>
        <pt x="328" y="-13" on="0"/>
        <pt x="275" y="-13" on="1"/>
        <pt x="155" y="-13" on="0"/>
        <pt x="37" y="23" on="1"/>
        <pt x="132" y="700" on="1"/>
      </contour>
      <contour>
        <pt x="162" y="315" on="1"/>
        <pt x="127" y="63" on="1"/>
        <pt x="191" y="58" on="0"/>
        <pt x="244" y="58" on="1"/>
        <pt x="342" y="58" on="0"/>
        <pt x="405" y="124" on="0"/>
        <pt x="421" y="244" on="1"/>
        <pt x="436" y="356" on="0"/>
        <pt x="411" y="425" on="0"/>
        <pt x="360" y="425" on="1"/>
        <pt x="286" y="425" on="0"/>
      </contour>
    </TTGlyph>
    <TTGlyph name="backslash" xMin="79" yMin="-66" xMax="435" yMax="690">
      <contour>
        <pt x="435" y="-66" on="1"/>
        <pt x="368" y="-66" on="1"/>
        <pt x="79" y="690" on="1"/>
        <pt x="146" y="690" on="1"/>
      </contour>
    </TTGlyph>
    <TTGlyph name="bar" xMin="26" yMin="-169" xMax="222" yMax="781">
      <contour>
        <pt x="89" y="-169" on="1"/>
        <pt x="26" y="-169" on="1"/>
        <pt x="159" y="781" on="1"/>
        <pt x="222" y="781" on="1"/>
      </contour>
    </TTGlyph>
    <TTGlyph name="braceleft" xMin="45" yMin="-165" xMax="340" yMax="768">
      <contour>
        <pt x="340" y="768" on="1"/>
        <pt x="337" y="714" on="1"/>
        <pt x="286" y="714" on="0"/>
        <pt x="238" y="673" on="0"/>
        <pt x="232" y="627" on="1"/>
        <pt x="207" y="448" on="1"/>
        <pt x="199" y="386" on="0"/>
        <pt x="158" y="337" on="0"/>
        <pt x="102" y="327" on="1"/>
        <pt x="153" y="310" on="0"/>
        <pt x="184" y="260" on="0"/>
        <pt x="177" y="208" on="1"/>
        <pt x="144" y="-28" on="1"/>
        <pt x="137" y="-75" on="0"/>
        <pt x="169" y="-111" on="0"/>
        <pt x="220" y="-111" on="1"/>
        <pt x="217" y="-165" on="1"/>
        <pt x="129" y="-172" on="0"/>
        <pt x="52" y="-102" on="0"/>
        <pt x="63" y="-31" on="1"/>
        <pt x="99" y="225" on="1"/>
        <pt x="104" y="260" on="0"/>
        <pt x="84" y="283" on="0"/>
        <pt x="51" y="296" on="1"/>
        <pt x="47" y="297" on="0"/>
        <pt x="45" y="298" on="1"/>
        <pt x="53" y="360" on="1"/>
        <pt x="78" y="367" on="0"/>
        <pt x="92" y="373" on="0"/>
        <pt x="114" y="390" on="0"/>
        <pt x="122" y="415" on="0"/>
        <pt x="125" y="439" on="1"/>
        <pt x="153" y="637" on="1"/>
        <pt x="162" y="710" on="0"/>
        <pt x="249" y="775" on="0"/>
      </contour>
    </TTGlyph>
    <TTGlyph name="braceright" xMin="-24" yMin="-165" xMax="283" yMax="768">
      <contour>
        <pt x="103" y="714" on="1"/>
        <pt x="107" y="768" on="1"/>
        <pt x="196" y="775" on="0"/>
        <pt x="270" y="703" on="0"/>
        <pt x="261" y="634" on="1"/>
        <pt x="233" y="435" on="1"/>
        <pt x="227" y="390" on="0"/>
        <pt x="243" y="370" on="0"/>
        <pt x="283" y="358" on="1"/>
        <pt x="275" y="296" on="1"/>
        <pt x="251" y="287" on="0"/>
        <pt x="236" y="281" on="0"/>
        <pt x="211" y="264" on="0"/>
        <pt x="202" y="241" on="0"/>
        <pt x="199" y="221" on="1"/>
        <pt x="164" y="-34" on="1"/>
        <pt x="154" y="-107" on="0"/>
        <pt x="69" y="-172" on="0"/>
        <pt x="-24" y="-165" on="1"/>
        <pt x="-21" y="-111" on="1"/>
        <pt x="30" y="-111" on="0"/>
        <pt x="77" y="-71" on="0"/>
        <pt x="83" y="-25" on="1"/>
        <pt x="117" y="212" on="1"/>
        <pt x="125" y="265" on="0"/>
        <pt x="167" y="311" on="0"/>
        <pt x="226" y="329" on="1"/>
        <pt x="176" y="339" on="0"/>
        <pt x="145" y="390" on="0"/>
        <pt x="154" y="452" on="1"/>
        <pt x="180" y="631" on="1"/>
        <pt x="186" y="677" on="0"/>
        <pt x="155" y="714" on="0"/>
      </contour>
    </TTGlyph>
    <TTGlyph name="bracketleft" xMin="33" yMin="-165" xMax="352" yMax="768">
      <contour>
        <pt x="344" y="712" on="1"/>
        <pt x="246" y="712" on="1"/>
        <pt x="239" y="712" on="0"/>
        <pt x="227" y="701" on="0"/>
        <pt x="226" y="694" on="1"/>
        <pt x="115" y="-95" on="1"/>
        <pt x="113" y="-109" on="0"/>
        <pt x="125" y="-109" on="1"/>
        <pt x="229" y="-109" on="1"/>
        <pt x="221" y="-165" on="1"/>
        <pt x="81" y="-165" on="1"/>
        <pt x="56" y="-165" on="0"/>
        <pt x="29" y="-137" on="0"/>
        <pt x="33" y="-110" on="1"/>
        <pt x="149" y="716" on="1"/>
        <pt x="152" y="740" on="0"/>
        <pt x="184" y="768" on="0"/>
        <pt x="208" y="768" on="1"/>
        <pt x="352" y="768" on="1"/>
      </contour>
    </TTGlyph>
    <TTGlyph name="bracketright" xMin="-25" yMin="-165" xMax="294" yMax="768">
      <contour>
        <pt x="106" y="768" on="1"/>
        <pt x="245" y="768" on="1"/>
        <pt x="269" y="768" on="0"/>
        <pt x="298" y="736" on="0"/>
        <pt x="294" y="713" on="1"/>
        <pt x="178" y="-113" on="1"/>
        <pt x="175" y="-136" on="0"/>
        <pt x="142" y="-165" on="0"/>
        <pt x="119" y="-165" on="1"/>
        <pt x="-25" y="-165" on="1"/>
        <pt x="-18" y="-109" on="1"/>
        <pt x="80" y="-109" on="1"/>
        <pt x="97" y="-109" on="0"/>
        <pt x="101" y="-91" on="1"/>
        <pt x="212" y="698" on="1"/>
        <pt x="214" y="712" on="0"/>
        <pt x="201" y="712" on="1"/>
        <pt x="98" y="712" on="1"/>
      </contour>
    </TTGlyph>
    <TTGlyph name="breve" xMin="101" yMin="558" xMax="400" yMax="698">
      <contour>
        <pt x="357" y="698" on="1"/>
        <pt x="400" y="688" on="1"/>
        <pt x="395" y="629" on="0"/>
        <pt x="307" y="558" on="0"/>
        <pt x="237" y="558" on="1"/>
        <pt x="164" y="558" on="0"/>
        <pt x="89" y="633" on="0"/>
        <pt x="101" y="691" on="1"/>
        <pt x="145" y="695" on="1"/>
        <pt x="140" y="659" on="0"/>
        <pt x="189" y="621" on="0"/>
        <pt x="237" y="621" on="1"/>
        <pt x="288" y="621" on="0"/>
        <pt x="352" y="663" on="0"/>
      </contour>
    </TTGlyph>
    <TTGlyph name="brevecy" xMin="101" yMin="558" xMax="400" yMax="694">
      <contour>
        <pt x="335" y="694" on="1"/>
        <pt x="400" y="694" on="1"/>
        <pt x="395" y="633" on="0"/>
        <pt x="307" y="558" on="0"/>
        <pt x="237" y="558" on="1"/>
        <pt x="164" y="558" on="0"/>
        <pt x="89" y="634" on="0"/>
        <pt x="101" y="694" on="1"/>
        <pt x="165" y="694" on="1"/>
        <pt x="152" y="605" on="0"/>
        <pt x="242" y="605" on="1"/>
        <pt x="325" y="605" on="0"/>
      </contour>
    </TTGlyph>
    <TTGlyph name="brokenbar" xMin="26" yMin="-169" xMax="222" yMax="781">
      <contour>
        <pt x="166" y="381" on="1"/>
        <pt x="103" y="381" on="1"/>
        <pt x="160" y="781" on="1"/>
        <pt x="222" y="781" on="1"/>
      </contour>
      <contour>
        <pt x="89" y="-169" on="1"/>
        <pt x="26" y="-169" on="1"/>
        <pt x="82" y="231" on="1"/>
        <pt x="145" y="231" on="1"/>
      </contour>
    </TTGlyph>
    <TTGlyph name="bullet" xMin="86" yMin="177" xMax="269" yMax="358">
      <contour>
        <pt x="183" y="358" on="1"/>
        <pt x="195" y="358" on="1"/>
        <pt x="241" y="358" on="0"/>
        <pt x="275" y="319" on="0"/>
        <pt x="269" y="273" on="1"/>
        <pt x="267" y="260" on="1"/>
        <pt x="260" y="211" on="0"/>
        <pt x="221" y="177" on="0"/>
        <pt x="174" y="177" on="1"/>
        <pt x="162" y="177" on="1"/>
        <pt x="113" y="177" on="0"/>
        <pt x="79" y="216" on="0"/>
        <pt x="86" y="265" on="1"/>
        <pt x="88" y="278" on="1"/>
        <pt x="94" y="325" on="0"/>
        <pt x="134" y="358" on="0"/>
      </contour>
    </TTGlyph>
    <TTGlyph name="c" xMin="46" yMin="-12" xMax="464" yMax="499">
      <contour>
        <pt x="407" y="70" on="1"/>
        <pt x="413" y="12" on="1"/>
        <pt x="336" y="-12" on="0"/>
        <pt x="246" y="-12" on="1"/>
        <pt x="118" y="-12" on="0"/>
        <pt x="26" y="107" on="0"/>
        <pt x="46" y="247" on="1"/>
        <pt x="66" y="386" on="0"/>
        <pt x="183" y="499" on="0"/>
        <pt x="308" y="499" on="1"/>
        <pt x="404" y="499" on="0"/>
        <pt x="464" y="475" on="1"/>
        <pt x="450" y="422" on="1"/>
        <pt x="396" y="427" on="0"/>
        <pt x="322" y="427" on="1"/>
        <pt x="230" y="427" on="0"/>
        <pt x="149" y="351" on="0"/>
        <pt x="135" y="240" on="1"/>
        <pt x="121" y="130" on="0"/>
        <pt x="174" y="60" on="0"/>
        <pt x="261" y="60" on="1"/>
        <pt x="344" y="60" on="0"/>
      </contour>
    </TTGlyph>
    <TTGlyph name="cacute" xMin="46" yMin="-12" xMax="471" yMax="734">
      <contour>
        <pt x="471" y="669" on="1"/>
        <pt x="265" y="548" on="1"/>
        <pt x="238" y="588" on="1"/>
        <pt x="430" y="734" on="1"/>
      </contour>
      <contour>
        <pt x="407" y="70" on="1"/>
        <pt x="413" y="12" on="1"/>
        <pt x="336" y="-12" on="0"/>
        <pt x="246" y="-12" on="1"/>
        <pt x="118" y="-12" on="0"/>
        <pt x="26" y="107" on="0"/>
        <pt x="46" y="247" on="1"/>
        <pt x="66" y="386" on="0"/>
        <pt x="183" y="499" on="0"/>
        <pt x="308" y="499" on="1"/>
        <pt x="404" y="499" on="0"/>
        <pt x="464" y="475" on="1"/>
        <pt x="450" y="422" on="1"/>
        <pt x="396" y="427" on="0"/>
        <pt x="322" y="427" on="1"/>
        <pt x="230" y="427" on="0"/>
        <pt x="149" y="351" on="0"/>
        <pt x="135" y="240" on="1"/>
        <pt x="121" y="130" on="0"/>
        <pt x="174" y="60" on="0"/>
        <pt x="261" y="60" on="1"/>
        <pt x="344" y="60" on="0"/>
      </contour>
    </TTGlyph>
    <TTGlyph name="caron" xMin="108" yMin="560" xMax="437" yMax="724">
      <contour>
        <pt x="437" y="688" on="1"/>
        <pt x="287" y="560" on="1"/>
        <pt x="225" y="560" on="1"/>
        <pt x="108" y="693" on="1"/>
        <pt x="143" y="724" on="1"/>
        <pt x="256" y="625" on="1"/>
        <pt x="264" y="625" on="1"/>
        <pt x="410" y="724" on="1"/>
      </contour>
    </TTGlyph>
    <TTGlyph name="ccaron" xMin="46" yMin="-12" xMax="484" yMax="728">
      <contour>
        <pt x="484" y="691" on="1"/>
        <pt x="335" y="564" on="1"/>
        <pt x="273" y="564" on="1"/>
        <pt x="156" y="696" on="1"/>
        <pt x="190" y="728" on="1"/>
        <pt x="303" y="628" on="1"/>
        <pt x="311" y="628" on="1"/>
        <pt x="458" y="728" on="1"/>
      </contour>
      <contour>
        <pt x="407" y="70" on="1"/>
        <pt x="413" y="12" on="1"/>
        <pt x="336" y="-12" on="0"/>
        <pt x="246" y="-12" on="1"/>
        <pt x="118" y="-12" on="0"/>
        <pt x="26" y="107" on="0"/>
        <pt x="46" y="247" on="1"/>
        <pt x="66" y="386" on="0"/>
        <pt x="183" y="499" on="0"/>
        <pt x="308" y="499" on="1"/>
        <pt x="404" y="499" on="0"/>
        <pt x="464" y="475" on="1"/>
        <pt x="450" y="422" on="1"/>
        <pt x="396" y="427" on="0"/>
        <pt x="322" y="427" on="1"/>
        <pt x="230" y="427" on="0"/>
        <pt x="149" y="351" on="0"/>
        <pt x="135" y="240" on="1"/>
        <pt x="121" y="130" on="0"/>
        <pt x="174" y="60" on="0"/>
        <pt x="261" y="60" on="1"/>
        <pt x="344" y="60" on="0"/>
      </contour>
    </TTGlyph>
    <TTGlyph name="ccedilla" xMin="46" yMin="-241" xMax="464" yMax="499">
      <contour>
        <pt x="407" y="70" on="1"/>
        <pt x="413" y="12" on="1"/>
        <pt x="336" y="-12" on="0"/>
        <pt x="246" y="-12" on="1"/>
        <pt x="118" y="-12" on="0"/>
        <pt x="26" y="107" on="0"/>
        <pt x="46" y="247" on="1"/>
        <pt x="66" y="386" on="0"/>
        <pt x="183" y="499" on="0"/>
        <pt x="308" y="499" on="1"/>
        <pt x="404" y="499" on="0"/>
        <pt x="464" y="475" on="1"/>
        <pt x="450" y="422" on="1"/>
        <pt x="396" y="427" on="0"/>
        <pt x="322" y="427" on="1"/>
        <pt x="230" y="427" on="0"/>
        <pt x="149" y="351" on="0"/>
        <pt x="135" y="240" on="1"/>
        <pt x="121" y="130" on="0"/>
        <pt x="174" y="60" on="0"/>
        <pt x="261" y="60" on="1"/>
        <pt x="344" y="60" on="0"/>
      </contour>
      <contour>
        <pt x="172" y="-95" on="1"/>
        <pt x="182" y="-55" on="1"/>
        <pt x="244" y="-49" on="0"/>
        <pt x="294" y="-79" on="0"/>
        <pt x="286" y="-124" on="1"/>
        <pt x="276" y="-185" on="0"/>
        <pt x="175" y="-251" on="0"/>
        <pt x="104" y="-241" on="1"/>
        <pt x="120" y="-196" on="1"/>
        <pt x="160" y="-197" on="0"/>
        <pt x="219" y="-156" on="0"/>
        <pt x="225" y="-123" on="1"/>
        <pt x="228" y="-106" on="0"/>
        <pt x="208" y="-96" on="0"/>
      </contour>
    </TTGlyph>
    <TTGlyph name="cdotaccent" xMin="46" yMin="-12" xMax="464" yMax="687">
      <contour>
        <pt x="303" y="687" on="1"/>
        <pt x="330" y="687" on="1"/>
        <pt x="358" y="687" on="0"/>
        <pt x="355" y="660" on="1"/>
        <pt x="347" y="604" on="1"/>
        <pt x="343" y="579" on="0"/>
        <pt x="320" y="579" on="1"/>
        <pt x="293" y="579" on="1"/>
        <pt x="280" y="579" on="0"/>
        <pt x="266" y="594" on="0"/>
        <pt x="268" y="606" on="1"/>
        <pt x="276" y="663" on="1"/>
        <pt x="279" y="687" on="0"/>
      </contour>
      <contour>
        <pt x="407" y="70" on="1"/>
        <pt x="413" y="12" on="1"/>
        <pt x="336" y="-12" on="0"/>
        <pt x="246" y="-12" on="1"/>
        <pt x="118" y="-12" on="0"/>
        <pt x="26" y="107" on="0"/>
        <pt x="46" y="247" on="1"/>
        <pt x="66" y="386" on="0"/>
        <pt x="183" y="499" on="0"/>
        <pt x="308" y="499" on="1"/>
        <pt x="404" y="499" on="0"/>
        <pt x="464" y="475" on="1"/>
        <pt x="450" y="422" on="1"/>
        <pt x="396" y="427" on="0"/>
        <pt x="322" y="427" on="1"/>
        <pt x="230" y="427" on="0"/>
        <pt x="149" y="351" on="0"/>
        <pt x="135" y="240" on="1"/>
        <pt x="121" y="130" on="0"/>
        <pt x="174" y="60" on="0"/>
        <pt x="261" y="60" on="1"/>
        <pt x="344" y="60" on="0"/>
      </contour>
    </TTGlyph>
    <TTGlyph name="cedilla" xMin="-31" yMin="-229" xMax="151" yMax="-43">
      <contour>
        <pt x="37" y="-83" on="1"/>
        <pt x="47" y="-43" on="1"/>
        <pt x="109" y="-37" on="0"/>
        <pt x="159" y="-67" on="0"/>
        <pt x="151" y="-112" on="1"/>
        <pt x="141" y="-173" on="0"/>
        <pt x="40" y="-239" on="0"/>
        <pt x="-31" y="-229" on="1"/>
        <pt x="-15" y="-184" on="1"/>
        <pt x="25" y="-185" on="0"/>
        <pt x="84" y="-144" on="0"/>
        <pt x="90" y="-111" on="1"/>
        <pt x="93" y="-94" on="0"/>
        <pt x="73" y="-84" on="0"/>
      </contour>
    </TTGlyph>
    <TTGlyph name="cent" xMin="61" yMin="0" xMax="478" yMax="690">
      <contour>
        <pt x="478" y="579" on="1"/>
        <pt x="465" y="526" on="1"/>
        <pt x="407" y="531" on="0"/>
        <pt x="358" y="531" on="1"/>
        <pt x="277" y="164" on="1"/>
        <pt x="353" y="164" on="0"/>
        <pt x="422" y="175" on="1"/>
        <pt x="428" y="116" on="1"/>
        <pt x="352" y="92" on="0"/>
        <pt x="260" y="92" on="1"/>
        <pt x="258" y="92" on="1"/>
        <pt x="237" y="0" on="1"/>
        <pt x="195" y="0" on="1"/>
        <pt x="217" y="94" on="1"/>
        <pt x="115" y="103" on="0"/>
        <pt x="43" y="223" on="0"/>
        <pt x="61" y="351" on="1"/>
        <pt x="81" y="490" on="0"/>
        <pt x="198" y="603" on="0"/>
        <pt x="323" y="603" on="1"/>
        <pt x="334" y="603" on="1"/>
        <pt x="354" y="690" on="1"/>
        <pt x="396" y="690" on="1"/>
        <pt x="375" y="601" on="1"/>
        <pt x="437" y="596" on="0"/>
      </contour>
      <contour>
        <pt x="235" y="166" on="1"/>
        <pt x="316" y="531" on="1"/>
        <pt x="236" y="528" on="0"/>
        <pt x="163" y="450" on="0"/>
        <pt x="150" y="345" on="1"/>
        <pt x="137" y="248" on="0"/>
        <pt x="174" y="172" on="0"/>
      </contour>
    </TTGlyph>
    <TTGlyph name="circumflex" xMin="96" yMin="547" xMax="429" yMax="713">
      <contour>
        <pt x="429" y="580" on="1"/>
        <pt x="397" y="547" on="1"/>
        <pt x="278" y="648" on="1"/>
        <pt x="270" y="648" on="1"/>
        <pt x="121" y="548" on="1"/>
        <pt x="96" y="586" on="1"/>
        <pt x="245" y="713" on="1"/>
        <pt x="305" y="713" on="1"/>
      </contour>
    </TTGlyph>
    <TTGlyph name="colon" xMin="35" yMin="0" xMax="179" yMax="440">
      <contour>
        <pt x="122" y="440" on="1"/>
        <pt x="151" y="440" on="1"/>
        <pt x="185" y="440" on="0"/>
        <pt x="179" y="407" on="1"/>
        <pt x="172" y="352" on="1"/>
        <pt x="168" y="322" on="0"/>
        <pt x="139" y="322" on="1"/>
        <pt x="110" y="322" on="1"/>
        <pt x="76" y="322" on="0"/>
        <pt x="80" y="356" on="1"/>
        <pt x="89" y="411" on="1"/>
        <pt x="92" y="440" on="0"/>
      </contour>
      <contour>
        <pt x="77" y="118" on="1"/>
        <pt x="105" y="118" on="1"/>
        <pt x="138" y="118" on="0"/>
        <pt x="134" y="85" on="1"/>
        <pt x="127" y="30" on="1"/>
        <pt x="122" y="0" on="0"/>
        <pt x="93" y="0" on="1"/>
        <pt x="65" y="0" on="1"/>
        <pt x="30" y="0" on="0"/>
        <pt x="35" y="33" on="1"/>
        <pt x="43" y="89" on="1"/>
        <pt x="47" y="118" on="0"/>
      </contour>
    </TTGlyph>
    <TTGlyph name="comma" xMin="24" yMin="-133" xMax="131" yMax="118">
      <contour>
        <pt x="78" y="118" on="1"/>
        <pt x="104" y="118" on="1"/>
        <pt x="121" y="118" on="0"/>
        <pt x="134" y="103" on="0"/>
        <pt x="131" y="85" on="1"/>
        <pt x="122" y="21" on="1"/>
        <pt x="113" y="-50" on="0"/>
        <pt x="66" y="-133" on="1"/>
        <pt x="24" y="-118" on="1"/>
        <pt x="49" y="-42" on="0"/>
        <pt x="57" y="2" on="1"/>
        <pt x="43" y="1" on="0"/>
        <pt x="29" y="16" on="0"/>
        <pt x="31" y="29" on="1"/>
        <pt x="39" y="88" on="1"/>
        <pt x="43" y="106" on="0"/>
        <pt x="58" y="118" on="0"/>
      </contour>
    </TTGlyph>
    <TTGlyph name="copyright" xMin="66" yMin="-13" xMax="783" yMax="703">
      <contour>
        <pt x="464" y="703" on="1"/>
        <pt x="623" y="703" on="0"/>
        <pt x="804" y="502" on="0"/>
        <pt x="783" y="342" on="1"/>
        <pt x="763" y="186" on="0"/>
        <pt x="545" y="-13" on="0"/>
        <pt x="383" y="-13" on="1"/>
        <pt x="222" y="-13" on="0"/>
        <pt x="46" y="191" on="0"/>
        <pt x="66" y="348" on="1"/>
        <pt x="85" y="503" on="0"/>
        <pt x="302" y="703" on="0"/>
      </contour>
      <contour>
        <pt x="467" y="659" on="1"/>
        <pt x="324" y="659" on="0"/>
        <pt x="130" y="481" on="0"/>
        <pt x="112" y="342" on="1"/>
        <pt x="95" y="202" on="0"/>
        <pt x="247" y="31" on="0"/>
        <pt x="382" y="31" on="1"/>
        <pt x="524" y="31" on="0"/>
        <pt x="720" y="209" on="0"/>
        <pt x="737" y="348" on="1"/>
        <pt x="754" y="484" on="0"/>
        <pt x="604" y="659" on="0"/>
      </contour>
      <contour>
        <pt x="544" y="191" on="1"/>
        <pt x="548" y="142" on="1"/>
        <pt x="484" y="127" on="0"/>
        <pt x="411" y="127" on="1"/>
        <pt x="295" y="127" on="0"/>
        <pt x="218" y="225" on="0"/>
        <pt x="235" y="351" on="1"/>
        <pt x="252" y="474" on="0"/>
        <pt x="353" y="568" on="0"/>
        <pt x="465" y="568" on="1"/>
        <pt x="529" y="568" on="0"/>
        <pt x="591" y="554" on="1"/>
        <pt x="581" y="506" on="1"/>
        <pt x="525" y="510" on="0"/>
        <pt x="471" y="510" on="1"/>
        <pt x="384" y="510" on="0"/>
        <pt x="315" y="446" on="0"/>
        <pt x="301" y="344" on="1"/>
        <pt x="288" y="253" on="0"/>
        <pt x="331" y="185" on="0"/>
        <pt x="401" y="185" on="1"/>
        <pt x="494" y="185" on="0"/>
      </contour>
    </TTGlyph>
    <TTGlyph name="currency" xMin="52" yMin="114" xMax="558" yMax="594">
      <contour>
        <pt x="558" y="539" on="1"/>
        <pt x="480" y="471" on="1"/>
        <pt x="511" y="420" on="0"/>
        <pt x="502" y="349" on="1"/>
        <pt x="493" y="276" on="0"/>
        <pt x="450" y="227" on="1"/>
        <pt x="519" y="150" on="1"/>
        <pt x="480" y="114" on="1"/>
        <pt x="411" y="192" on="1"/>
        <pt x="358" y="156" on="0"/>
        <pt x="285" y="156" on="1"/>
        <pt x="213" y="156" on="0"/>
        <pt x="165" y="195" on="1"/>
        <pt x="88" y="126" on="1"/>
        <pt x="52" y="167" on="1"/>
        <pt x="130" y="236" on="1"/>
        <pt x="101" y="287" on="0"/>
        <pt x="110" y="355" on="1"/>
        <pt x="119" y="430" on="0"/>
        <pt x="163" y="480" on="1"/>
        <pt x="95" y="557" on="1"/>
        <pt x="135" y="594" on="1"/>
        <pt x="203" y="515" on="1"/>
        <pt x="256" y="549" on="0"/>
        <pt x="326" y="549" on="1"/>
        <pt x="398" y="549" on="0"/>
        <pt x="445" y="511" on="1"/>
        <pt x="523" y="581" on="1"/>
      </contour>
      <contour>
        <pt x="284" y="205" on="1"/>
        <pt x="352" y="204" on="0"/>
        <pt x="443" y="286" on="0"/>
        <pt x="450" y="356" on="1"/>
        <pt x="457" y="421" on="0"/>
        <pt x="389" y="500" on="0"/>
        <pt x="324" y="500" on="1"/>
        <pt x="256" y="500" on="0"/>
        <pt x="169" y="418" on="0"/>
        <pt x="161" y="349" on="1"/>
        <pt x="154" y="284" on="0"/>
        <pt x="221" y="206" on="0"/>
      </contour>
    </TTGlyph>
    <TTGlyph name="d" xMin="50" yMin="-12" xMax="553" yMax="700">
      <contour>
        <pt x="553" y="700" on="1"/>
        <pt x="455" y="0" on="1"/>
        <pt x="388" y="0" on="1"/>
        <pt x="395" y="106" on="1"/>
        <pt x="287" y="-12" on="0"/>
        <pt x="168" y="-12" on="1"/>
        <pt x="91" y="-12" on="0"/>
        <pt x="30" y="108" on="0"/>
        <pt x="50" y="249" on="1"/>
        <pt x="62" y="329" on="0"/>
        <pt x="100" y="430" on="0"/>
        <pt x="163" y="482" on="0"/>
        <pt x="232" y="499" on="0"/>
        <pt x="285" y="499" on="1"/>
        <pt x="354" y="499" on="0"/>
        <pt x="443" y="487" on="1"/>
        <pt x="445" y="536" on="0"/>
        <pt x="451" y="580" on="1"/>
        <pt x="468" y="700" on="1"/>
      </contour>
      <contour>
        <pt x="395" y="174" on="1"/>
        <pt x="429" y="427" on="1"/>
        <pt x="333" y="429" on="0"/>
        <pt x="317" y="429" on="1"/>
        <pt x="264" y="429" on="0"/>
        <pt x="208" y="418" on="0"/>
        <pt x="165" y="375" on="0"/>
        <pt x="145" y="306" on="0"/>
        <pt x="136" y="242" on="1"/>
        <pt x="121" y="137" on="0"/>
        <pt x="143" y="62" on="0"/>
        <pt x="192" y="62" on="1"/>
        <pt x="239" y="62" on="0"/>
        <pt x="333" y="115" on="0"/>
      </contour>
    </TTGlyph>
    <TTGlyph name="dagger" xMin="57" yMin="-110" xMax="435" yMax="691">
      <contour>
        <pt x="206" y="-110" on="1"/>
        <pt x="129" y="-110" on="1"/>
        <pt x="209" y="434" on="1"/>
        <pt x="216" y="482" on="1"/>
        <pt x="241" y="691" on="1"/>
        <pt x="319" y="691" on="1"/>
        <pt x="286" y="482" on="1"/>
        <pt x="279" y="434" on="1"/>
      </contour>
      <contour>
        <pt x="435" y="487" on="1"/>
        <pt x="425" y="412" on="1"/>
        <pt x="296" y="422" on="1"/>
        <pt x="305" y="487" on="1"/>
      </contour>
      <contour>
        <pt x="57" y="412" on="1"/>
        <pt x="67" y="487" on="1"/>
        <pt x="197" y="487" on="1"/>
        <pt x="189" y="422" on="1"/>
      </contour>
    </TTGlyph>
    <TTGlyph name="daggerdbl" xMin="32" yMin="-110" xMax="455" yMax="691">
      <contour>
        <pt x="306" y="485" on="1"/>
        <pt x="251" y="95" on="1"/>
        <pt x="226" y="-110" on="1"/>
        <pt x="148" y="-110" on="1"/>
        <pt x="181" y="95" on="1"/>
        <pt x="236" y="485" on="1"/>
        <pt x="261" y="691" on="1"/>
        <pt x="339" y="691" on="1"/>
      </contour>
      <contour>
        <pt x="208" y="422" on="1"/>
        <pt x="76" y="412" on="1"/>
        <pt x="87" y="487" on="1"/>
        <pt x="217" y="487" on="1"/>
      </contour>
      <contour>
        <pt x="444" y="412" on="1"/>
        <pt x="315" y="422" on="1"/>
        <pt x="325" y="487" on="1"/>
        <pt x="455" y="487" on="1"/>
      </contour>
      <contour>
        <pt x="172" y="159" on="1"/>
        <pt x="163" y="94" on="1"/>
        <pt x="32" y="94" on="1"/>
        <pt x="42" y="169" on="1"/>
      </contour>
      <contour>
        <pt x="400" y="94" on="1"/>
        <pt x="270" y="94" on="1"/>
        <pt x="279" y="159" on="1"/>
        <pt x="410" y="169" on="1"/>
      </contour>
    </TTGlyph>
    <TTGlyph name="dcaron" xMin="50" yMin="-12" xMax="694" yMax="700">
      <contour>
        <pt x="468" y="700" on="1"/>
        <pt x="553" y="700" on="1"/>
        <pt x="455" y="0" on="1"/>
        <pt x="388" y="0" on="1"/>
        <pt x="395" y="106" on="1"/>
        <pt x="287" y="-12" on="0"/>
        <pt x="168" y="-12" on="1"/>
        <pt x="91" y="-12" on="0"/>
        <pt x="30" y="108" on="0"/>
        <pt x="50" y="249" on="1"/>
        <pt x="62" y="329" on="0"/>
        <pt x="100" y="430" on="0"/>
        <pt x="163" y="482" on="0"/>
        <pt x="232" y="499" on="0"/>
        <pt x="285" y="499" on="1"/>
        <pt x="354" y="499" on="0"/>
        <pt x="443" y="487" on="1"/>
        <pt x="445" y="536" on="0"/>
        <pt x="451" y="580" on="1"/>
      </contour>
      <contour>
        <pt x="646" y="700" on="1"/>
        <pt x="669" y="700" on="1"/>
        <pt x="698" y="700" on="0"/>
        <pt x="694" y="672" on="1"/>
        <pt x="686" y="617" on="1"/>
        <pt x="677" y="557" on="0"/>
        <pt x="635" y="486" on="1"/>
        <pt x="597" y="499" on="1"/>
        <pt x="620" y="570" on="0"/>
        <pt x="626" y="601" on="1"/>
        <pt x="614" y="600" on="0"/>
        <pt x="601" y="613" on="0"/>
        <pt x="603" y="624" on="1"/>
        <pt x="611" y="674" on="1"/>
        <pt x="614" y="689" on="0"/>
        <pt x="628" y="700" on="0"/>
      </contour>
      <contour>
        <pt x="395" y="174" on="1"/>
        <pt x="429" y="427" on="1"/>
        <pt x="333" y="429" on="0"/>
        <pt x="317" y="429" on="1"/>
        <pt x="264" y="429" on="0"/>
        <pt x="208" y="418" on="0"/>
        <pt x="165" y="375" on="0"/>
        <pt x="145" y="306" on="0"/>
        <pt x="136" y="242" on="1"/>
        <pt x="121" y="137" on="0"/>
        <pt x="143" y="62" on="0"/>
        <pt x="192" y="62" on="1"/>
        <pt x="239" y="62" on="0"/>
        <pt x="333" y="115" on="0"/>
      </contour>
    </TTGlyph>
</ttFont>
